<ttFont>
    <TTGlyph name="A" xMin="-201" yMin="-5" xMax="1917" yMax="1404">
      <contour>
        <pt x="750" y="199" on="1"/>
        <pt x="608" y="199" on="0"/>
        <pt x="486" y="237" on="1"/>
        <pt x="346" y="121" on="0"/>
        <pt x="276" y="76" on="1"/>
        <pt x="146" y="-5" on="0"/>
        <pt x="11" y="-5" on="1"/>
        <pt x="-143" y="-5" on="0"/>
        <pt x="-188" y="84" on="1"/>
        <pt x="-201" y="111" on="0"/>
        <pt x="-201" y="163" on="0"/>
        <pt x="-183" y="195" on="0"/>
        <pt x="-170" y="204" on="1"/>
        <pt x="-143" y="223" on="0"/>
        <pt x="-107" y="223" on="1"/>
        <pt x="-57" y="223" on="0"/>
        <pt x="-57" y="178" on="1"/>
        <pt x="-57" y="158" on="0"/>
        <pt x="-90" y="129" on="0"/>
        <pt x="-147" y="129" on="0"/>
        <pt x="-161" y="139" on="1"/>
        <pt x="-161" y="132" on="1"/>
        <pt x="-161" y="22" on="0"/>
        <pt x="19" y="22" on="1"/>
        <pt x="144" y="22" on="0"/>
        <pt x="302" y="132" on="1"/>
        <pt x="451" y="249" on="1"/>
        <pt x="309" y="302" on="0"/>
        <pt x="224" y="399" on="1"/>
        <pt x="142" y="491" on="0"/>
        <pt x="136" y="602" on="1"/>
        <pt x="130" y="711" on="0"/>
        <pt x="208" y="788" on="1"/>
        <pt x="290" y="869" on="0"/>
        <pt x="430" y="869" on="1"/>
        <pt x="625" y="869" on="0"/>
        <pt x="758" y="702" on="1"/>
        <pt x="798" y="651" on="0"/>
        <pt x="826" y="593" on="1"/>
        <pt x="1147" y="901" on="0"/>
        <pt x="1246" y="989" on="1"/>
        <pt x="1410" y="1131" on="1"/>
        <pt x="1742" y="1404" on="0"/>
        <pt x="1899" y="1404" on="1"/>
        <pt x="1917" y="1404" on="0"/>
        <pt x="1917" y="1398" on="1"/>
        <pt x="1917" y="1391" on="0"/>
        <pt x="1884" y="1379" on="0"/>
        <pt x="1844" y="1339" on="0"/>
        <pt x="1806" y="1292" on="1"/>
        <pt x="1708" y="1167" on="1"/>
        <pt x="1031" y="267" on="1"/>
        <pt x="1310" y="350" on="0"/>
        <pt x="1466" y="564" on="1"/>
        <pt x="1516" y="632" on="0"/>
        <pt x="1533" y="678" on="1"/>
        <pt x="1556" y="739" on="0"/>
        <pt x="1561" y="739" on="1"/>
        <pt x="1564" y="739" on="0"/>
        <pt x="1577" y="722" on="0"/>
        <pt x="1574" y="667" on="0"/>
        <pt x="1548" y="592" on="0"/>
        <pt x="1528" y="558" on="1"/>
        <pt x="1495" y="501" on="0"/>
        <pt x="1419" y="429" on="1"/>
        <pt x="1266" y="280" on="0"/>
        <pt x="999" y="225" on="1"/>
        <pt x="828" y="-1" on="1"/>
        <pt x="764" y="3" on="1"/>
        <pt x="732" y="5" on="0"/>
        <pt x="695" y="5" on="0"/>
        <pt x="682" y="3" on="1"/>
        <pt x="654" y="-1" on="1"/>
        <pt x="802" y="182" on="1"/>
        <pt x="805" y="187" on="0"/>
        <pt x="811" y="196" on="0"/>
        <pt x="813" y="201" on="1"/>
        <pt x="781" y="199" on="0"/>
      </contour>
      <contour>
        <pt x="840" y="562" on="1"/>
        <pt x="881" y="457" on="0"/>
        <pt x="881" y="307" on="0"/>
        <pt x="869" y="264" on="1"/>
        <pt x="1240" y="713" on="1"/>
        <pt x="1607" y="1140" on="0"/>
        <pt x="1783" y="1327" on="0"/>
        <pt x="1825" y="1366" on="1"/>
        <pt x="1758" y="1338" on="1"/>
        <pt x="1623" y="1279" on="0"/>
        <pt x="1372" y="1062" on="1"/>
        <pt x="1162" y="872" on="1"/>
      </contour>
      <contour>
        <pt x="475" y="269" on="1"/>
        <pt x="670" y="443" on="0"/>
        <pt x="803" y="572" on="1"/>
        <pt x="720" y="761" on="0"/>
        <pt x="550" y="820" on="1"/>
        <pt x="493" y="839" on="0"/>
        <pt x="384" y="839" on="0"/>
        <pt x="299" y="800" on="0"/>
        <pt x="267" y="768" on="1"/>
        <pt x="198" y="699" on="0"/>
        <pt x="198" y="604" on="1"/>
        <pt x="198" y="437" on="0"/>
        <pt x="354" y="329" on="1"/>
        <pt x="406" y="293" on="0"/>
      </contour>
      <contour>
        <pt x="510" y="258" on="1"/>
        <pt x="620" y="227" on="0"/>
        <pt x="756" y="227" on="1"/>
        <pt x="791" y="227" on="0"/>
        <pt x="826" y="230" on="1"/>
        <pt x="849" y="289" on="0"/>
        <pt x="849" y="344" on="1"/>
        <pt x="849" y="446" on="0"/>
        <pt x="816" y="539" on="1"/>
        <pt x="591" y="327" on="0"/>
      </contour>
    </TTGlyph>
    <TTGlyph name="AE" xMin="-220" yMin="-290" xMax="2490" yMax="1404">
      <contour>
        <pt x="734" y="132" on="1"/>
        <pt x="563" y="132" on="0"/>
        <pt x="418" y="181" on="1"/>
        <pt x="334" y="113" on="0"/>
        <pt x="269" y="73" on="1"/>
        <pt x="146" y="-5" on="0"/>
        <pt x="11" y="-5" on="1"/>
        <pt x="-94" y="-5" on="0"/>
        <pt x="-160" y="54" on="1"/>
        <pt x="-220" y="108" on="0"/>
        <pt x="-220" y="172" on="1"/>
        <pt x="-220" y="202" on="0"/>
        <pt x="-183" y="242" on="0"/>
        <pt x="-129" y="242" on="0"/>
        <pt x="-95" y="210" on="0"/>
        <pt x="-95" y="189" on="1"/>
        <pt x="-95" y="168" on="0"/>
        <pt x="-124" y="142" on="0"/>
        <pt x="-139" y="142" on="1"/>
        <pt x="-162" y="142" on="0"/>
        <pt x="-172" y="147" on="1"/>
        <pt x="-155" y="66" on="0"/>
        <pt x="-53" y="36" on="1"/>
        <pt x="-19" y="26" on="0"/>
        <pt x="35" y="26" on="1"/>
        <pt x="150" y="26" on="0"/>
        <pt x="302" y="132" on="1"/>
        <pt x="342" y="162" on="1"/>
        <pt x="363" y="177" on="0"/>
        <pt x="383" y="194" on="1"/>
        <pt x="164" y="282" on="0"/>
        <pt x="100" y="452" on="1"/>
        <pt x="79" y="505" on="0"/>
        <pt x="79" y="601" on="0"/>
        <pt x="113" y="685" on="0"/>
        <pt x="146" y="720" on="1"/>
        <pt x="220" y="797" on="0"/>
        <pt x="341" y="797" on="1"/>
        <pt x="538" y="797" on="0"/>
        <pt x="678" y="630" on="1"/>
        <pt x="721" y="580" on="0"/>
        <pt x="751" y="522" on="1"/>
        <pt x="1150" y="904" on="0"/>
        <pt x="1248" y="990" on="1"/>
        <pt x="1410" y="1131" on="1"/>
        <pt x="1742" y="1404" on="0"/>
        <pt x="1899" y="1404" on="1"/>
        <pt x="1917" y="1404" on="0"/>
        <pt x="1917" y="1398" on="1"/>
        <pt x="1917" y="1391" on="0"/>
        <pt x="1886" y="1380" on="0"/>
        <pt x="1852" y="1352" on="0"/>
        <pt x="1794" y="1290" on="0"/>
        <pt x="1750" y="1239" on="1"/>
        <pt x="1644" y="1111" on="1"/>
        <pt x="1498" y="927" on="1"/>
        <pt x="1305" y="677" on="1"/>
        <pt x="1445" y="749" on="0"/>
        <pt x="1599" y="749" on="1"/>
        <pt x="1629" y="749" on="0"/>
        <pt x="1655" y="747" on="1"/>
        <pt x="1644" y="786" on="0"/>
        <pt x="1644" y="895" on="0"/>
        <pt x="1698" y="1025" on="0"/>
        <pt x="1790" y="1147" on="0"/>
        <pt x="1915" y="1253" on="0"/>
        <pt x="1986" y="1292" on="1"/>
        <pt x="2138" y="1378" on="0"/>
        <pt x="2281" y="1378" on="1"/>
        <pt x="2442" y="1378" on="0"/>
        <pt x="2480" y="1284" on="1"/>
        <pt x="2490" y="1257" on="0"/>
        <pt x="2490" y="1181" on="0"/>
        <pt x="2451" y="1076" on="0"/>
        <pt x="2381" y="976" on="0"/>
        <pt x="2283" y="886" on="0"/>
        <pt x="2225" y="852" on="1"/>
        <pt x="2098" y="779" on="0"/>
        <pt x="1965" y="779" on="1"/>
        <pt x="1909" y="779" on="0"/>
        <pt x="1849" y="832" on="0"/>
        <pt x="1849" y="904" on="0"/>
        <pt x="1883" y="981" on="0"/>
        <pt x="1944" y="1059" on="0"/>
        <pt x="2030" y="1132" on="0"/>
        <pt x="2082" y="1160" on="1"/>
        <pt x="2196" y="1222" on="0"/>
        <pt x="2312" y="1222" on="1"/>
        <pt x="2335" y="1222" on="0"/>
        <pt x="2335" y="1197" on="0"/>
        <pt x="2251" y="1197" on="0"/>
        <pt x="2148" y="1166" on="0"/>
        <pt x="2054" y="1114" on="0"/>
        <pt x="1973" y="1046" on="0"/>
        <pt x="1944" y="1010" on="1"/>
        <pt x="1881" y="934" on="0"/>
        <pt x="1881" y="807" on="0"/>
        <pt x="1968" y="807" on="1"/>
        <pt x="2107" y="807" on="0"/>
        <pt x="2276" y="948" on="1"/>
        <pt x="2378" y="1032" on="0"/>
        <pt x="2425" y="1134" on="1"/>
        <pt x="2448" y="1184" on="0"/>
        <pt x="2448" y="1286" on="0"/>
        <pt x="2376" y="1350" on="0"/>
        <pt x="2302" y="1350" on="1"/>
        <pt x="2129" y="1350" on="0"/>
        <pt x="1936" y="1161" on="1"/>
        <pt x="1798" y="1026" on="0"/>
        <pt x="1743" y="883" on="1"/>
        <pt x="1717" y="815" on="0"/>
        <pt x="1717" y="760" on="1"/>
        <pt x="1717" y="740" on="1"/>
        <pt x="1795" y="726" on="0"/>
        <pt x="1871" y="673" on="0"/>
        <pt x="1871" y="613" on="0"/>
        <pt x="1822" y="613" on="1"/>
        <pt x="1716" y="613" on="0"/>
        <pt x="1668" y="714" on="1"/>
        <pt x="1661" y="714" on="1"/>
        <pt x="1549" y="714" on="0"/>
        <pt x="1408" y="624" on="1"/>
        <pt x="1279" y="542" on="0"/>
        <pt x="1185" y="426" on="1"/>
        <pt x="1089" y="307" on="0"/>
        <pt x="1089" y="144" on="0"/>
        <pt x="1184" y="40" on="0"/>
        <pt x="1275" y="24" on="1"/>
        <pt x="1299" y="182" on="0"/>
        <pt x="1396" y="314" on="1"/>
        <pt x="1536" y="505" on="0"/>
        <pt x="1725" y="505" on="1"/>
        <pt x="1794" y="505" on="0"/>
        <pt x="1860" y="438" on="0"/>
        <pt x="1860" y="308" on="0"/>
        <pt x="1776" y="168" on="0"/>
        <pt x="1705" y="113" on="1"/>
        <pt x="1548" y="-9" on="0"/>
        <pt x="1344" y="-9" on="1"/>
        <pt x="1320" y="-9" on="0"/>
        <pt x="1298" y="-7" on="1"/>
        <pt x="1295" y="-31" on="0"/>
        <pt x="1295" y="-132" on="0"/>
        <pt x="1338" y="-237" on="0"/>
        <pt x="1384" y="-274" on="0"/>
        <pt x="1384" y="-279" on="1"/>
        <pt x="1384" y="-290" on="0"/>
        <pt x="1371" y="-290" on="1"/>
        <pt x="1363" y="-290" on="0"/>
        <pt x="1310" y="-242" on="0"/>
        <pt x="1268" y="-139" on="0"/>
        <pt x="1268" y="-27" on="0"/>
        <pt x="1271" y="-3" on="1"/>
        <pt x="1154" y="15" on="0"/>
        <pt x="1083" y="88" on="1"/>
        <pt x="1015" y="160" on="0"/>
        <pt x="1015" y="254" on="1"/>
        <pt x="1015" y="278" on="0"/>
        <pt x="1018" y="302" on="1"/>
        <pt x="787" y="-1" on="1"/>
        <pt x="694" y="5" on="0"/>
        <pt x="664" y="5" on="0"/>
        <pt x="651" y="3" on="1"/>
        <pt x="624" y="-1" on="1"/>
      </contour>
      <contour>
        <pt x="766" y="491" on="1"/>
        <pt x="814" y="382" on="0"/>
        <pt x="814" y="275" on="1"/>
        <pt x="814" y="248" on="0"/>
        <pt x="810" y="222" on="1"/>
        <pt x="1198" y="678" on="1"/>
        <pt x="1577" y="1108" on="0"/>
        <pt x="1675" y="1210" on="1"/>
        <pt x="1815" y="1355" on="1"/>
        <pt x="1753" y="1332" on="1"/>
        <pt x="1721" y="1320" on="0"/>
        <pt x="1615" y="1257" on="0"/>
        <pt x="1466" y="1143" on="0"/>
        <pt x="1372" y="1062" on="1"/>
        <pt x="1162" y="872" on="1"/>
      </contour>
      <contour>
        <pt x="420" y="223" on="1"/>
        <pt x="610" y="387" on="0"/>
        <pt x="728" y="499" on="1"/>
        <pt x="671" y="616" on="0"/>
        <pt x="566" y="690" on="1"/>
        <pt x="462" y="763" on="0"/>
        <pt x="352" y="763" on="1"/>
        <pt x="203" y="763" on="0"/>
        <pt x="162" y="635" on="1"/>
        <pt x="149" y="596" on="0"/>
        <pt x="149" y="496" on="0"/>
        <pt x="187" y="400" on="0"/>
        <pt x="222" y="358" on="1"/>
        <pt x="294" y="273" on="0"/>
      </contour>
      <contour>
        <pt x="1722" y="709" on="1"/>
        <pt x="1741" y="642" on="0"/>
        <pt x="1817" y="642" on="1"/>
        <pt x="1830" y="642" on="0"/>
        <pt x="1830" y="668" on="0"/>
        <pt x="1773" y="701" on="0"/>
      </contour>
      <contour>
        <pt x="1303" y="21" on="1"/>
        <pt x="1314" y="19" on="0"/>
        <pt x="1336" y="19" on="0"/>
        <pt x="1395" y="19" on="0"/>
        <pt x="1503" y="61" on="0"/>
        <pt x="1610" y="128" on="0"/>
        <pt x="1707" y="213" on="0"/>
        <pt x="1744" y="256" on="1"/>
        <pt x="1826" y="349" on="0"/>
        <pt x="1826" y="441" on="0"/>
        <pt x="1783" y="474" on="0"/>
        <pt x="1693" y="474" on="0"/>
        <pt x="1595" y="432" on="0"/>
        <pt x="1544" y="393" on="1"/>
        <pt x="1428" y="304" on="0"/>
        <pt x="1362" y="178" on="1"/>
        <pt x="1320" y="97" on="0"/>
      </contour>
      <contour>
        <pt x="760" y="163" on="1"/>
        <pt x="761" y="163" on="0"/>
        <pt x="781" y="217" on="0"/>
        <pt x="781" y="272" on="1"/>
        <pt x="781" y="377" on="0"/>
        <pt x="742" y="469" on="1"/>
        <pt x="529" y="272" on="0"/>
        <pt x="454" y="210" on="1"/>
        <pt x="589" y="163" on="0"/>
      </contour>
    </TTGlyph>
    <TTGlyph name="Aacute" xMin="-201" yMin="-5" xMax="2177" yMax="1768">
      <contour>
        <pt x="1926" y="1459" on="0"/>
        <pt x="1901" y="1459" on="0"/>
        <pt x="1901" y="1471" on="1"/>
        <pt x="1901" y="1476" on="0"/>
        <pt x="1914" y="1485" on="0"/>
        <pt x="1934" y="1498" on="1"/>
        <pt x="2028" y="1557" on="0"/>
        <pt x="2062" y="1636" on="1"/>
        <pt x="2072" y="1657" on="0"/>
        <pt x="2080" y="1697" on="1"/>
        <pt x="2089" y="1768" on="0"/>
        <pt x="2177" y="1768" on="0"/>
        <pt x="2177" y="1713" on="1"/>
        <pt x="2177" y="1668" on="0"/>
        <pt x="2113" y="1598" on="1"/>
        <pt x="2054" y="1534" on="0"/>
      </contour>
      <contour>
        <pt x="750" y="199" on="1"/>
        <pt x="608" y="199" on="0"/>
        <pt x="486" y="237" on="1"/>
        <pt x="346" y="121" on="0"/>
        <pt x="276" y="76" on="1"/>
        <pt x="146" y="-5" on="0"/>
        <pt x="11" y="-5" on="1"/>
        <pt x="-143" y="-5" on="0"/>
        <pt x="-188" y="84" on="1"/>
        <pt x="-201" y="111" on="0"/>
        <pt x="-201" y="163" on="0"/>
        <pt x="-183" y="195" on="0"/>
        <pt x="-170" y="204" on="1"/>
        <pt x="-143" y="223" on="0"/>
        <pt x="-107" y="223" on="1"/>
        <pt x="-57" y="223" on="0"/>
        <pt x="-57" y="178" on="1"/>
        <pt x="-57" y="158" on="0"/>
        <pt x="-90" y="129" on="0"/>
        <pt x="-147" y="129" on="0"/>
        <pt x="-161" y="139" on="1"/>
        <pt x="-161" y="132" on="1"/>
        <pt x="-161" y="22" on="0"/>
        <pt x="19" y="22" on="1"/>
        <pt x="144" y="22" on="0"/>
        <pt x="302" y="132" on="1"/>
        <pt x="451" y="249" on="1"/>
        <pt x="309" y="302" on="0"/>
        <pt x="224" y="399" on="1"/>
        <pt x="142" y="491" on="0"/>
        <pt x="136" y="602" on="1"/>
        <pt x="130" y="711" on="0"/>
        <pt x="208" y="788" on="1"/>
        <pt x="290" y="869" on="0"/>
        <pt x="430" y="869" on="1"/>
        <pt x="625" y="869" on="0"/>
        <pt x="758" y="702" on="1"/>
        <pt x="798" y="651" on="0"/>
        <pt x="826" y="593" on="1"/>
        <pt x="1147" y="901" on="0"/>
        <pt x="1246" y="989" on="1"/>
        <pt x="1410" y="1131" on="1"/>
        <pt x="1742" y="1404" on="0"/>
        <pt x="1899" y="1404" on="1"/>
        <pt x="1917" y="1404" on="0"/>
        <pt x="1917" y="1398" on="1"/>
        <pt x="1917" y="1391" on="0"/>
        <pt x="1884" y="1379" on="0"/>
        <pt x="1844" y="1339" on="0"/>
        <pt x="1806" y="1292" on="1"/>
        <pt x="1708" y="1167" on="1"/>
        <pt x="1031" y="267" on="1"/>
        <pt x="1310" y="350" on="0"/>
        <pt x="1466" y="564" on="1"/>
        <pt x="1516" y="632" on="0"/>
        <pt x="1533" y="678" on="1"/>
        <pt x="1556" y="739" on="0"/>
        <pt x="1561" y="739" on="1"/>
        <pt x="1564" y="739" on="0"/>
        <pt x="1577" y="722" on="0"/>
        <pt x="1574" y="667" on="0"/>
        <pt x="1548" y="592" on="0"/>
        <pt x="1528" y="558" on="1"/>
        <pt x="1495" y="501" on="0"/>
        <pt x="1419" y="429" on="1"/>
        <pt x="1266" y="280" on="0"/>
        <pt x="999" y="225" on="1"/>
        <pt x="828" y="-1" on="1"/>
        <pt x="764" y="3" on="1"/>
        <pt x="732" y="5" on="0"/>
        <pt x="695" y="5" on="0"/>
        <pt x="682" y="3" on="1"/>
        <pt x="654" y="-1" on="1"/>
        <pt x="802" y="182" on="1"/>
        <pt x="805" y="187" on="0"/>
        <pt x="811" y="196" on="0"/>
        <pt x="813" y="201" on="1"/>
        <pt x="781" y="199" on="0"/>
      </contour>
      <contour>
        <pt x="840" y="562" on="1"/>
        <pt x="881" y="457" on="0"/>
        <pt x="881" y="307" on="0"/>
        <pt x="869" y="264" on="1"/>
        <pt x="1240" y="713" on="1"/>
        <pt x="1607" y="1140" on="0"/>
        <pt x="1783" y="1327" on="0"/>
        <pt x="1825" y="1366" on="1"/>
        <pt x="1758" y="1338" on="1"/>
        <pt x="1623" y="1279" on="0"/>
        <pt x="1372" y="1062" on="1"/>
        <pt x="1162" y="872" on="1"/>
      </contour>
      <contour>
        <pt x="475" y="269" on="1"/>
        <pt x="670" y="443" on="0"/>
        <pt x="803" y="572" on="1"/>
        <pt x="720" y="761" on="0"/>
        <pt x="550" y="820" on="1"/>
        <pt x="493" y="839" on="0"/>
        <pt x="384" y="839" on="0"/>
        <pt x="299" y="800" on="0"/>
        <pt x="267" y="768" on="1"/>
        <pt x="198" y="699" on="0"/>
        <pt x="198" y="604" on="1"/>
        <pt x="198" y="437" on="0"/>
        <pt x="354" y="329" on="1"/>
        <pt x="406" y="293" on="0"/>
      </contour>
      <contour>
        <pt x="510" y="258" on="1"/>
        <pt x="620" y="227" on="0"/>
        <pt x="756" y="227" on="1"/>
        <pt x="791" y="227" on="0"/>
        <pt x="826" y="230" on="1"/>
        <pt x="849" y="289" on="0"/>
        <pt x="849" y="344" on="1"/>
        <pt x="849" y="446" on="0"/>
        <pt x="816" y="539" on="1"/>
        <pt x="591" y="327" on="0"/>
      </contour>
    </TTGlyph>
    <TTGlyph name="Acircumflex" xMin="-201" yMin="-5" xMax="2071" yMax="1768">
      <contour>
        <pt x="1821" y="1528" on="1"/>
        <pt x="1723" y="1463" on="1"/>
        <pt x="1683" y="1438" on="0"/>
        <pt x="1663" y="1438" on="0"/>
        <pt x="1663" y="1442" on="1"/>
        <pt x="1663" y="1455" on="0"/>
        <pt x="1724" y="1500" on="1"/>
        <pt x="1851" y="1600" on="1"/>
        <pt x="1918" y="1654" on="0"/>
        <pt x="1987" y="1719" on="1"/>
        <pt x="2031" y="1768" on="0"/>
        <pt x="2046" y="1768" on="1"/>
        <pt x="2054" y="1768" on="0"/>
        <pt x="2054" y="1761" on="1"/>
        <pt x="2054" y="1748" on="0"/>
        <pt x="2047" y="1731" on="1"/>
        <pt x="2023" y="1673" on="0"/>
        <pt x="2023" y="1609" on="1"/>
        <pt x="2023" y="1498" on="0"/>
        <pt x="2066" y="1459" on="1"/>
        <pt x="2071" y="1455" on="0"/>
        <pt x="2071" y="1447" on="0"/>
        <pt x="2062" y="1436" on="0"/>
        <pt x="2054" y="1436" on="1"/>
        <pt x="2020" y="1436" on="0"/>
        <pt x="1980" y="1508" on="1"/>
        <pt x="1957" y="1549" on="0"/>
        <pt x="1953" y="1577" on="1"/>
        <pt x="1947" y="1619" on="1"/>
        <pt x="1880" y="1567" on="0"/>
      </contour>
      <contour>
        <pt x="750" y="199" on="1"/>
        <pt x="608" y="199" on="0"/>
        <pt x="486" y="237" on="1"/>
        <pt x="346" y="121" on="0"/>
        <pt x="276" y="76" on="1"/>
        <pt x="146" y="-5" on="0"/>
        <pt x="11" y="-5" on="1"/>
        <pt x="-143" y="-5" on="0"/>
        <pt x="-188" y="84" on="1"/>
        <pt x="-201" y="111" on="0"/>
        <pt x="-201" y="163" on="0"/>
        <pt x="-183" y="195" on="0"/>
        <pt x="-170" y="204" on="1"/>
        <pt x="-143" y="223" on="0"/>
        <pt x="-107" y="223" on="1"/>
        <pt x="-57" y="223" on="0"/>
        <pt x="-57" y="178" on="1"/>
        <pt x="-57" y="158" on="0"/>
        <pt x="-90" y="129" on="0"/>
        <pt x="-147" y="129" on="0"/>
        <pt x="-161" y="139" on="1"/>
        <pt x="-161" y="132" on="1"/>
        <pt x="-161" y="22" on="0"/>
        <pt x="19" y="22" on="1"/>
        <pt x="144" y="22" on="0"/>
        <pt x="302" y="132" on="1"/>
        <pt x="451" y="249" on="1"/>
        <pt x="309" y="302" on="0"/>
        <pt x="224" y="399" on="1"/>
        <pt x="142" y="491" on="0"/>
        <pt x="136" y="602" on="1"/>
        <pt x="130" y="711" on="0"/>
        <pt x="208" y="788" on="1"/>
        <pt x="290" y="869" on="0"/>
        <pt x="430" y="869" on="1"/>
        <pt x="625" y="869" on="0"/>
        <pt x="758" y="702" on="1"/>
        <pt x="798" y="651" on="0"/>
        <pt x="826" y="593" on="1"/>
        <pt x="1147" y="901" on="0"/>
        <pt x="1246" y="989" on="1"/>
        <pt x="1410" y="1131" on="1"/>
        <pt x="1742" y="1404" on="0"/>
        <pt x="1899" y="1404" on="1"/>
        <pt x="1917" y="1404" on="0"/>
        <pt x="1917" y="1398" on="1"/>
        <pt x="1917" y="1391" on="0"/>
        <pt x="1884" y="1379" on="0"/>
        <pt x="1844" y="1339" on="0"/>
        <pt x="1806" y="1292" on="1"/>
        <pt x="1708" y="1167" on="1"/>
        <pt x="1031" y="267" on="1"/>
        <pt x="1310" y="350" on="0"/>
        <pt x="1466" y="564" on="1"/>
        <pt x="1516" y="632" on="0"/>
        <pt x="1533" y="678" on="1"/>
        <pt x="1556" y="739" on="0"/>
        <pt x="1561" y="739" on="1"/>
        <pt x="1564" y="739" on="0"/>
        <pt x="1577" y="722" on="0"/>
        <pt x="1574" y="667" on="0"/>
        <pt x="1548" y="592" on="0"/>
        <pt x="1528" y="558" on="1"/>
        <pt x="1495" y="501" on="0"/>
        <pt x="1419" y="429" on="1"/>
        <pt x="1266" y="280" on="0"/>
        <pt x="999" y="225" on="1"/>
        <pt x="828" y="-1" on="1"/>
        <pt x="764" y="3" on="1"/>
        <pt x="732" y="5" on="0"/>
        <pt x="695" y="5" on="0"/>
        <pt x="682" y="3" on="1"/>
        <pt x="654" y="-1" on="1"/>
        <pt x="802" y="182" on="1"/>
        <pt x="805" y="187" on="0"/>
        <pt x="811" y="196" on="0"/>
        <pt x="813" y="201" on="1"/>
        <pt x="781" y="199" on="0"/>
      </contour>
      <contour>
        <pt x="840" y="562" on="1"/>
        <pt x="881" y="457" on="0"/>
        <pt x="881" y="307" on="0"/>
        <pt x="869" y="264" on="1"/>
        <pt x="1240" y="713" on="1"/>
        <pt x="1607" y="1140" on="0"/>
        <pt x="1783" y="1327" on="0"/>
        <pt x="1825" y="1366" on="1"/>
        <pt x="1758" y="1338" on="1"/>
        <pt x="1623" y="1279" on="0"/>
        <pt x="1372" y="1062" on="1"/>
        <pt x="1162" y="872" on="1"/>
      </contour>
      <contour>
        <pt x="475" y="269" on="1"/>
        <pt x="670" y="443" on="0"/>
        <pt x="803" y="572" on="1"/>
        <pt x="720" y="761" on="0"/>
        <pt x="550" y="820" on="1"/>
        <pt x="493" y="839" on="0"/>
        <pt x="384" y="839" on="0"/>
        <pt x="299" y="800" on="0"/>
        <pt x="267" y="768" on="1"/>
        <pt x="198" y="699" on="0"/>
        <pt x="198" y="604" on="1"/>
        <pt x="198" y="437" on="0"/>
        <pt x="354" y="329" on="1"/>
        <pt x="406" y="293" on="0"/>
      </contour>
      <contour>
        <pt x="510" y="258" on="1"/>
        <pt x="620" y="227" on="0"/>
        <pt x="756" y="227" on="1"/>
        <pt x="791" y="227" on="0"/>
        <pt x="826" y="230" on="1"/>
        <pt x="849" y="289" on="0"/>
        <pt x="849" y="344" on="1"/>
        <pt x="849" y="446" on="0"/>
        <pt x="816" y="539" on="1"/>
        <pt x="591" y="327" on="0"/>
      </contour>
    </TTGlyph>
    <TTGlyph name="Adieresis" xMin="-201" yMin="-5" xMax="2157" yMax="1624">
      <contour>
        <pt x="2028" y="1468" on="0"/>
        <pt x="1995" y="1505" on="0"/>
        <pt x="1995" y="1549" on="0"/>
        <pt x="2011" y="1582" on="0"/>
        <pt x="2024" y="1595" on="1"/>
        <pt x="2055" y="1624" on="0"/>
        <pt x="2123" y="1624" on="0"/>
        <pt x="2157" y="1589" on="0"/>
        <pt x="2157" y="1544" on="0"/>
        <pt x="2139" y="1510" on="0"/>
        <pt x="2125" y="1497" on="1"/>
        <pt x="2094" y="1468" on="0"/>
      </contour>
      <contour>
        <pt x="1729" y="1468" on="0"/>
        <pt x="1696" y="1505" on="0"/>
        <pt x="1696" y="1549" on="0"/>
        <pt x="1712" y="1582" on="0"/>
        <pt x="1726" y="1595" on="1"/>
        <pt x="1756" y="1624" on="0"/>
        <pt x="1824" y="1624" on="0"/>
        <pt x="1856" y="1589" on="0"/>
        <pt x="1856" y="1544" on="0"/>
        <pt x="1839" y="1510" on="0"/>
        <pt x="1825" y="1497" on="1"/>
        <pt x="1794" y="1468" on="0"/>
      </contour>
      <contour>
        <pt x="750" y="199" on="1"/>
        <pt x="608" y="199" on="0"/>
        <pt x="486" y="237" on="1"/>
        <pt x="346" y="121" on="0"/>
        <pt x="276" y="76" on="1"/>
        <pt x="146" y="-5" on="0"/>
        <pt x="11" y="-5" on="1"/>
        <pt x="-143" y="-5" on="0"/>
        <pt x="-188" y="84" on="1"/>
        <pt x="-201" y="111" on="0"/>
        <pt x="-201" y="163" on="0"/>
        <pt x="-183" y="195" on="0"/>
        <pt x="-170" y="204" on="1"/>
        <pt x="-143" y="223" on="0"/>
        <pt x="-107" y="223" on="1"/>
        <pt x="-57" y="223" on="0"/>
        <pt x="-57" y="178" on="1"/>
        <pt x="-57" y="158" on="0"/>
        <pt x="-90" y="129" on="0"/>
        <pt x="-147" y="129" on="0"/>
        <pt x="-161" y="139" on="1"/>
        <pt x="-161" y="132" on="1"/>
        <pt x="-161" y="22" on="0"/>
        <pt x="19" y="22" on="1"/>
        <pt x="144" y="22" on="0"/>
        <pt x="302" y="132" on="1"/>
        <pt x="451" y="249" on="1"/>
        <pt x="309" y="302" on="0"/>
        <pt x="224" y="399" on="1"/>
        <pt x="142" y="491" on="0"/>
        <pt x="136" y="602" on="1"/>
        <pt x="130" y="711" on="0"/>
        <pt x="208" y="788" on="1"/>
        <pt x="290" y="869" on="0"/>
        <pt x="430" y="869" on="1"/>
        <pt x="625" y="869" on="0"/>
        <pt x="758" y="702" on="1"/>
        <pt x="798" y="651" on="0"/>
        <pt x="826" y="593" on="1"/>
        <pt x="1147" y="901" on="0"/>
        <pt x="1246" y="989" on="1"/>
        <pt x="1410" y="1131" on="1"/>
        <pt x="1742" y="1404" on="0"/>
        <pt x="1899" y="1404" on="1"/>
        <pt x="1917" y="1404" on="0"/>
        <pt x="1917" y="1398" on="1"/>
        <pt x="1917" y="1391" on="0"/>
        <pt x="1884" y="1379" on="0"/>
        <pt x="1844" y="1339" on="0"/>
        <pt x="1806" y="1292" on="1"/>
        <pt x="1708" y="1167" on="1"/>
        <pt x="1031" y="267" on="1"/>
        <pt x="1310" y="350" on="0"/>
        <pt x="1466" y="564" on="1"/>
        <pt x="1516" y="632" on="0"/>
        <pt x="1533" y="678" on="1"/>
        <pt x="1556" y="739" on="0"/>
        <pt x="1561" y="739" on="1"/>
        <pt x="1564" y="739" on="0"/>
        <pt x="1577" y="722" on="0"/>
        <pt x="1574" y="667" on="0"/>
        <pt x="1548" y="592" on="0"/>
        <pt x="1528" y="558" on="1"/>
        <pt x="1495" y="501" on="0"/>
        <pt x="1419" y="429" on="1"/>
        <pt x="1266" y="280" on="0"/>
        <pt x="999" y="225" on="1"/>
        <pt x="828" y="-1" on="1"/>
        <pt x="764" y="3" on="1"/>
        <pt x="732" y="5" on="0"/>
        <pt x="695" y="5" on="0"/>
        <pt x="682" y="3" on="1"/>
        <pt x="654" y="-1" on="1"/>
        <pt x="802" y="182" on="1"/>
        <pt x="805" y="187" on="0"/>
        <pt x="811" y="196" on="0"/>
        <pt x="813" y="201" on="1"/>
        <pt x="781" y="199" on="0"/>
      </contour>
      <contour>
        <pt x="840" y="562" on="1"/>
        <pt x="881" y="457" on="0"/>
        <pt x="881" y="307" on="0"/>
        <pt x="869" y="264" on="1"/>
        <pt x="1240" y="713" on="1"/>
        <pt x="1607" y="1140" on="0"/>
        <pt x="1783" y="1327" on="0"/>
        <pt x="1825" y="1366" on="1"/>
        <pt x="1758" y="1338" on="1"/>
        <pt x="1623" y="1279" on="0"/>
        <pt x="1372" y="1062" on="1"/>
        <pt x="1162" y="872" on="1"/>
      </contour>
      <contour>
        <pt x="475" y="269" on="1"/>
        <pt x="670" y="443" on="0"/>
        <pt x="803" y="572" on="1"/>
        <pt x="720" y="761" on="0"/>
        <pt x="550" y="820" on="1"/>
        <pt x="493" y="839" on="0"/>
        <pt x="384" y="839" on="0"/>
        <pt x="299" y="800" on="0"/>
        <pt x="267" y="768" on="1"/>
        <pt x="198" y="699" on="0"/>
        <pt x="198" y="604" on="1"/>
        <pt x="198" y="437" on="0"/>
        <pt x="354" y="329" on="1"/>
        <pt x="406" y="293" on="0"/>
      </contour>
      <contour>
        <pt x="510" y="258" on="1"/>
        <pt x="620" y="227" on="0"/>
        <pt x="756" y="227" on="1"/>
        <pt x="791" y="227" on="0"/>
        <pt x="826" y="230" on="1"/>
        <pt x="849" y="289" on="0"/>
        <pt x="849" y="344" on="1"/>
        <pt x="849" y="446" on="0"/>
        <pt x="816" y="539" on="1"/>
        <pt x="591" y="327" on="0"/>
      </contour>
    </TTGlyph>
    <TTGlyph name="Agrave" xMin="-201" yMin="-5" xMax="1938" yMax="1768">
      <contour>
        <pt x="1938" y="1471" on="1"/>
        <pt x="1938" y="1459" on="0"/>
        <pt x="1928" y="1459" on="1"/>
        <pt x="1916" y="1459" on="0"/>
        <pt x="1832" y="1506" on="0"/>
        <pt x="1755" y="1567" on="0"/>
        <pt x="1726" y="1598" on="1"/>
        <pt x="1662" y="1666" on="0"/>
        <pt x="1662" y="1768" on="0"/>
        <pt x="1748" y="1768" on="0"/>
        <pt x="1760" y="1697" on="1"/>
        <pt x="1773" y="1632" on="0"/>
        <pt x="1797" y="1597" on="1"/>
        <pt x="1838" y="1536" on="0"/>
        <pt x="1913" y="1495" on="1"/>
        <pt x="1932" y="1480" on="1"/>
        <pt x="1938" y="1476" on="0"/>
      </contour>
      <contour>
        <pt x="750" y="199" on="1"/>
        <pt x="608" y="199" on="0"/>
        <pt x="486" y="237" on="1"/>
        <pt x="346" y="121" on="0"/>
        <pt x="276" y="76" on="1"/>
        <pt x="146" y="-5" on="0"/>
        <pt x="11" y="-5" on="1"/>
        <pt x="-143" y="-5" on="0"/>
        <pt x="-188" y="84" on="1"/>
        <pt x="-201" y="111" on="0"/>
        <pt x="-201" y="163" on="0"/>
        <pt x="-183" y="195" on="0"/>
        <pt x="-170" y="204" on="1"/>
        <pt x="-143" y="223" on="0"/>
        <pt x="-107" y="223" on="1"/>
        <pt x="-57" y="223" on="0"/>
        <pt x="-57" y="178" on="1"/>
        <pt x="-57" y="158" on="0"/>
        <pt x="-90" y="129" on="0"/>
        <pt x="-147" y="129" on="0"/>
        <pt x="-161" y="139" on="1"/>
        <pt x="-161" y="132" on="1"/>
        <pt x="-161" y="22" on="0"/>
        <pt x="19" y="22" on="1"/>
        <pt x="144" y="22" on="0"/>
        <pt x="302" y="132" on="1"/>
        <pt x="451" y="249" on="1"/>
        <pt x="309" y="302" on="0"/>
        <pt x="224" y="399" on="1"/>
        <pt x="142" y="491" on="0"/>
        <pt x="136" y="602" on="1"/>
        <pt x="130" y="711" on="0"/>
        <pt x="208" y="788" on="1"/>
        <pt x="290" y="869" on="0"/>
        <pt x="430" y="869" on="1"/>
        <pt x="625" y="869" on="0"/>
        <pt x="758" y="702" on="1"/>
        <pt x="798" y="651" on="0"/>
        <pt x="826" y="593" on="1"/>
        <pt x="1147" y="901" on="0"/>
        <pt x="1246" y="989" on="1"/>
        <pt x="1410" y="1131" on="1"/>
        <pt x="1742" y="1404" on="0"/>
        <pt x="1899" y="1404" on="1"/>
        <pt x="1917" y="1404" on="0"/>
        <pt x="1917" y="1398" on="1"/>
        <pt x="1917" y="1391" on="0"/>
        <pt x="1884" y="1379" on="0"/>
        <pt x="1844" y="1339" on="0"/>
        <pt x="1806" y="1292" on="1"/>
        <pt x="1708" y="1167" on="1"/>
        <pt x="1031" y="267" on="1"/>
        <pt x="1310" y="350" on="0"/>
        <pt x="1466" y="564" on="1"/>
        <pt x="1516" y="632" on="0"/>
        <pt x="1533" y="678" on="1"/>
        <pt x="1556" y="739" on="0"/>
        <pt x="1561" y="739" on="1"/>
        <pt x="1564" y="739" on="0"/>
        <pt x="1577" y="722" on="0"/>
        <pt x="1574" y="667" on="0"/>
        <pt x="1548" y="592" on="0"/>
        <pt x="1528" y="558" on="1"/>
        <pt x="1495" y="501" on="0"/>
        <pt x="1419" y="429" on="1"/>
        <pt x="1266" y="280" on="0"/>
        <pt x="999" y="225" on="1"/>
        <pt x="828" y="-1" on="1"/>
        <pt x="764" y="3" on="1"/>
        <pt x="732" y="5" on="0"/>
        <pt x="695" y="5" on="0"/>
        <pt x="682" y="3" on="1"/>
        <pt x="654" y="-1" on="1"/>
        <pt x="802" y="182" on="1"/>
        <pt x="805" y="187" on="0"/>
        <pt x="811" y="196" on="0"/>
        <pt x="813" y="201" on="1"/>
        <pt x="781" y="199" on="0"/>
      </contour>
      <contour>
        <pt x="840" y="562" on="1"/>
        <pt x="881" y="457" on="0"/>
        <pt x="881" y="307" on="0"/>
        <pt x="869" y="264" on="1"/>
        <pt x="1240" y="713" on="1"/>
        <pt x="1607" y="1140" on="0"/>
        <pt x="1783" y="1327" on="0"/>
        <pt x="1825" y="1366" on="1"/>
        <pt x="1758" y="1338" on="1"/>
        <pt x="1623" y="1279" on="0"/>
        <pt x="1372" y="1062" on="1"/>
        <pt x="1162" y="872" on="1"/>
      </contour>
      <contour>
        <pt x="475" y="269" on="1"/>
        <pt x="670" y="443" on="0"/>
        <pt x="803" y="572" on="1"/>
        <pt x="720" y="761" on="0"/>
        <pt x="550" y="820" on="1"/>
        <pt x="493" y="839" on="0"/>
        <pt x="384" y="839" on="0"/>
        <pt x="299" y="800" on="0"/>
        <pt x="267" y="768" on="1"/>
        <pt x="198" y="699" on="0"/>
        <pt x="198" y="604" on="1"/>
        <pt x="198" y="437" on="0"/>
        <pt x="354" y="329" on="1"/>
        <pt x="406" y="293" on="0"/>
      </contour>
      <contour>
        <pt x="510" y="258" on="1"/>
        <pt x="620" y="227" on="0"/>
        <pt x="756" y="227" on="1"/>
        <pt x="791" y="227" on="0"/>
        <pt x="826" y="230" on="1"/>
        <pt x="849" y="289" on="0"/>
        <pt x="849" y="344" on="1"/>
        <pt x="849" y="446" on="0"/>
        <pt x="816" y="539" on="1"/>
        <pt x="591" y="327" on="0"/>
      </contour>
    </TTGlyph>
    <TTGlyph name="Aring" xMin="-201" yMin="-5" xMax="2171" yMax="1729">
      <contour>
        <pt x="2092" y="1729" on="1"/>
        <pt x="2131" y="1729" on="0"/>
        <pt x="2171" y="1686" on="0"/>
        <pt x="2171" y="1619" on="0"/>
        <pt x="2126" y="1549" on="0"/>
        <pt x="2092" y="1521" on="1"/>
        <pt x="2013" y="1457" on="0"/>
        <pt x="1849" y="1457" on="0"/>
        <pt x="1849" y="1604" on="0"/>
        <pt x="2015" y="1729" on="0"/>
      </contour>
      <contour>
        <pt x="2073" y="1701" on="1"/>
        <pt x="2014" y="1701" on="0"/>
        <pt x="1959" y="1646" on="1"/>
        <pt x="1906" y="1593" on="0"/>
        <pt x="1906" y="1484" on="0"/>
        <pt x="1951" y="1484" on="1"/>
        <pt x="2009" y="1484" on="0"/>
        <pt x="2060" y="1537" on="1"/>
        <pt x="2113" y="1592" on="0"/>
        <pt x="2113" y="1701" on="0"/>
      </contour>
      <contour>
        <pt x="750" y="199" on="1"/>
        <pt x="608" y="199" on="0"/>
        <pt x="486" y="237" on="1"/>
        <pt x="346" y="121" on="0"/>
        <pt x="276" y="76" on="1"/>
        <pt x="146" y="-5" on="0"/>
        <pt x="11" y="-5" on="1"/>
        <pt x="-143" y="-5" on="0"/>
        <pt x="-188" y="84" on="1"/>
        <pt x="-201" y="111" on="0"/>
        <pt x="-201" y="163" on="0"/>
        <pt x="-183" y="195" on="0"/>
        <pt x="-170" y="204" on="1"/>
        <pt x="-143" y="223" on="0"/>
        <pt x="-107" y="223" on="1"/>
        <pt x="-57" y="223" on="0"/>
        <pt x="-57" y="178" on="1"/>
        <pt x="-57" y="158" on="0"/>
        <pt x="-90" y="129" on="0"/>
        <pt x="-147" y="129" on="0"/>
        <pt x="-161" y="139" on="1"/>
        <pt x="-161" y="132" on="1"/>
        <pt x="-161" y="22" on="0"/>
        <pt x="19" y="22" on="1"/>
        <pt x="144" y="22" on="0"/>
        <pt x="302" y="132" on="1"/>
        <pt x="451" y="249" on="1"/>
        <pt x="309" y="302" on="0"/>
        <pt x="224" y="399" on="1"/>
        <pt x="142" y="491" on="0"/>
        <pt x="136" y="602" on="1"/>
        <pt x="130" y="711" on="0"/>
        <pt x="208" y="788" on="1"/>
        <pt x="290" y="869" on="0"/>
        <pt x="430" y="869" on="1"/>
        <pt x="625" y="869" on="0"/>
        <pt x="758" y="702" on="1"/>
        <pt x="798" y="651" on="0"/>
        <pt x="826" y="593" on="1"/>
        <pt x="1147" y="901" on="0"/>
        <pt x="1246" y="989" on="1"/>
        <pt x="1410" y="1131" on="1"/>
        <pt x="1742" y="1404" on="0"/>
        <pt x="1899" y="1404" on="1"/>
        <pt x="1917" y="1404" on="0"/>
        <pt x="1917" y="1398" on="1"/>
        <pt x="1917" y="1391" on="0"/>
        <pt x="1884" y="1379" on="0"/>
        <pt x="1844" y="1339" on="0"/>
        <pt x="1806" y="1292" on="1"/>
        <pt x="1708" y="1167" on="1"/>
        <pt x="1031" y="267" on="1"/>
        <pt x="1310" y="350" on="0"/>
        <pt x="1466" y="564" on="1"/>
        <pt x="1516" y="632" on="0"/>
        <pt x="1533" y="678" on="1"/>
        <pt x="1556" y="739" on="0"/>
        <pt x="1561" y="739" on="1"/>
        <pt x="1564" y="739" on="0"/>
        <pt x="1577" y="722" on="0"/>
        <pt x="1574" y="667" on="0"/>
        <pt x="1548" y="592" on="0"/>
        <pt x="1528" y="558" on="1"/>
        <pt x="1495" y="501" on="0"/>
        <pt x="1419" y="429" on="1"/>
        <pt x="1266" y="280" on="0"/>
        <pt x="999" y="225" on="1"/>
        <pt x="828" y="-1" on="1"/>
        <pt x="764" y="3" on="1"/>
        <pt x="732" y="5" on="0"/>
        <pt x="695" y="5" on="0"/>
        <pt x="682" y="3" on="1"/>
        <pt x="654" y="-1" on="1"/>
        <pt x="802" y="182" on="1"/>
        <pt x="805" y="187" on="0"/>
        <pt x="811" y="196" on="0"/>
        <pt x="813" y="201" on="1"/>
        <pt x="781" y="199" on="0"/>
      </contour>
      <contour>
        <pt x="840" y="562" on="1"/>
        <pt x="881" y="457" on="0"/>
        <pt x="881" y="307" on="0"/>
        <pt x="869" y="264" on="1"/>
        <pt x="1240" y="713" on="1"/>
        <pt x="1607" y="1140" on="0"/>
        <pt x="1783" y="1327" on="0"/>
        <pt x="1825" y="1366" on="1"/>
        <pt x="1758" y="1338" on="1"/>
        <pt x="1623" y="1279" on="0"/>
        <pt x="1372" y="1062" on="1"/>
        <pt x="1162" y="872" on="1"/>
      </contour>
      <contour>
        <pt x="475" y="269" on="1"/>
        <pt x="670" y="443" on="0"/>
        <pt x="803" y="572" on="1"/>
        <pt x="720" y="761" on="0"/>
        <pt x="550" y="820" on="1"/>
        <pt x="493" y="839" on="0"/>
        <pt x="384" y="839" on="0"/>
        <pt x="299" y="800" on="0"/>
        <pt x="267" y="768" on="1"/>
        <pt x="198" y="699" on="0"/>
        <pt x="198" y="604" on="1"/>
        <pt x="198" y="437" on="0"/>
        <pt x="354" y="329" on="1"/>
        <pt x="406" y="293" on="0"/>
      </contour>
      <contour>
        <pt x="510" y="258" on="1"/>
        <pt x="620" y="227" on="0"/>
        <pt x="756" y="227" on="1"/>
        <pt x="791" y="227" on="0"/>
        <pt x="826" y="230" on="1"/>
        <pt x="849" y="289" on="0"/>
        <pt x="849" y="344" on="1"/>
        <pt x="849" y="446" on="0"/>
        <pt x="816" y="539" on="1"/>
        <pt x="591" y="327" on="0"/>
      </contour>
    </TTGlyph>
    <TTGlyph name="Atilde" xMin="-201" yMin="-5" xMax="2220" yMax="1669">
      <contour>
        <pt x="1736" y="1492" on="1"/>
        <pt x="1726" y="1492" on="0"/>
        <pt x="1726" y="1506" on="1"/>
        <pt x="1726" y="1545" on="0"/>
        <pt x="1766" y="1587" on="1"/>
        <pt x="1836" y="1660" on="0"/>
        <pt x="1889" y="1660" on="1"/>
        <pt x="1933" y="1660" on="0"/>
        <pt x="1980" y="1627" on="1"/>
        <pt x="2055" y="1575" on="0"/>
        <pt x="2097" y="1575" on="1"/>
        <pt x="2158" y="1575" on="0"/>
        <pt x="2189" y="1651" on="1"/>
        <pt x="2199" y="1669" on="0"/>
        <pt x="2206" y="1669" on="1"/>
        <pt x="2220" y="1669" on="0"/>
        <pt x="2220" y="1655" on="1"/>
        <pt x="2220" y="1620" on="0"/>
        <pt x="2180" y="1576" on="1"/>
        <pt x="2111" y="1500" on="0"/>
        <pt x="2055" y="1500" on="1"/>
        <pt x="2012" y="1500" on="0"/>
        <pt x="1908" y="1570" on="0"/>
        <pt x="1869" y="1586" on="0"/>
        <pt x="1849" y="1586" on="1"/>
        <pt x="1785" y="1586" on="0"/>
        <pt x="1755" y="1508" on="1"/>
        <pt x="1746" y="1492" on="0"/>
      </contour>
      <contour>
        <pt x="750" y="199" on="1"/>
        <pt x="608" y="199" on="0"/>
        <pt x="486" y="237" on="1"/>
        <pt x="346" y="121" on="0"/>
        <pt x="276" y="76" on="1"/>
        <pt x="146" y="-5" on="0"/>
        <pt x="11" y="-5" on="1"/>
        <pt x="-143" y="-5" on="0"/>
        <pt x="-188" y="84" on="1"/>
        <pt x="-201" y="111" on="0"/>
        <pt x="-201" y="163" on="0"/>
        <pt x="-183" y="195" on="0"/>
        <pt x="-170" y="204" on="1"/>
        <pt x="-143" y="223" on="0"/>
        <pt x="-107" y="223" on="1"/>
        <pt x="-57" y="223" on="0"/>
        <pt x="-57" y="178" on="1"/>
        <pt x="-57" y="158" on="0"/>
        <pt x="-90" y="129" on="0"/>
        <pt x="-147" y="129" on="0"/>
        <pt x="-161" y="139" on="1"/>
        <pt x="-161" y="132" on="1"/>
        <pt x="-161" y="22" on="0"/>
        <pt x="19" y="22" on="1"/>
        <pt x="144" y="22" on="0"/>
        <pt x="302" y="132" on="1"/>
        <pt x="451" y="249" on="1"/>
        <pt x="309" y="302" on="0"/>
        <pt x="224" y="399" on="1"/>
        <pt x="142" y="491" on="0"/>
        <pt x="136" y="602" on="1"/>
        <pt x="130" y="711" on="0"/>
        <pt x="208" y="788" on="1"/>
        <pt x="290" y="869" on="0"/>
        <pt x="430" y="869" on="1"/>
        <pt x="625" y="869" on="0"/>
        <pt x="758" y="702" on="1"/>
        <pt x="798" y="651" on="0"/>
        <pt x="826" y="593" on="1"/>
        <pt x="1147" y="901" on="0"/>
        <pt x="1246" y="989" on="1"/>
        <pt x="1410" y="1131" on="1"/>
        <pt x="1742" y="1404" on="0"/>
        <pt x="1899" y="1404" on="1"/>
        <pt x="1917" y="1404" on="0"/>
        <pt x="1917" y="1398" on="1"/>
        <pt x="1917" y="1391" on="0"/>
        <pt x="1884" y="1379" on="0"/>
        <pt x="1844" y="1339" on="0"/>
        <pt x="1806" y="1292" on="1"/>
        <pt x="1708" y="1167" on="1"/>
        <pt x="1031" y="267" on="1"/>
        <pt x="1310" y="350" on="0"/>
        <pt x="1466" y="564" on="1"/>
        <pt x="1516" y="632" on="0"/>
        <pt x="1533" y="678" on="1"/>
        <pt x="1556" y="739" on="0"/>
        <pt x="1561" y="739" on="1"/>
        <pt x="1564" y="739" on="0"/>
        <pt x="1577" y="722" on="0"/>
        <pt x="1574" y="667" on="0"/>
        <pt x="1548" y="592" on="0"/>
        <pt x="1528" y="558" on="1"/>
        <pt x="1495" y="501" on="0"/>
        <pt x="1419" y="429" on="1"/>
        <pt x="1266" y="280" on="0"/>
        <pt x="999" y="225" on="1"/>
        <pt x="828" y="-1" on="1"/>
        <pt x="764" y="3" on="1"/>
        <pt x="732" y="5" on="0"/>
        <pt x="695" y="5" on="0"/>
        <pt x="682" y="3" on="1"/>
        <pt x="654" y="-1" on="1"/>
        <pt x="802" y="182" on="1"/>
        <pt x="805" y="187" on="0"/>
        <pt x="811" y="196" on="0"/>
        <pt x="813" y="201" on="1"/>
        <pt x="781" y="199" on="0"/>
      </contour>
      <contour>
        <pt x="840" y="562" on="1"/>
        <pt x="881" y="457" on="0"/>
        <pt x="881" y="307" on="0"/>
        <pt x="869" y="264" on="1"/>
        <pt x="1240" y="713" on="1"/>
        <pt x="1607" y="1140" on="0"/>
        <pt x="1783" y="1327" on="0"/>
        <pt x="1825" y="1366" on="1"/>
        <pt x="1758" y="1338" on="1"/>
        <pt x="1623" y="1279" on="0"/>
        <pt x="1372" y="1062" on="1"/>
        <pt x="1162" y="872" on="1"/>
      </contour>
      <contour>
        <pt x="475" y="269" on="1"/>
        <pt x="670" y="443" on="0"/>
        <pt x="803" y="572" on="1"/>
        <pt x="720" y="761" on="0"/>
        <pt x="550" y="820" on="1"/>
        <pt x="493" y="839" on="0"/>
        <pt x="384" y="839" on="0"/>
        <pt x="299" y="800" on="0"/>
        <pt x="267" y="768" on="1"/>
        <pt x="198" y="699" on="0"/>
        <pt x="198" y="604" on="1"/>
        <pt x="198" y="437" on="0"/>
        <pt x="354" y="329" on="1"/>
        <pt x="406" y="293" on="0"/>
      </contour>
      <contour>
        <pt x="510" y="258" on="1"/>
        <pt x="620" y="227" on="0"/>
        <pt x="756" y="227" on="1"/>
        <pt x="791" y="227" on="0"/>
        <pt x="826" y="230" on="1"/>
        <pt x="849" y="289" on="0"/>
        <pt x="849" y="344" on="1"/>
        <pt x="849" y="446" on="0"/>
        <pt x="816" y="539" on="1"/>
        <pt x="591" y="327" on="0"/>
      </contour>
    </TTGlyph>
    <TTGlyph name="B" xMin="-182" yMin="-2" xMax="1879" yMax="1440">
      <contour>
        <pt x="1059" y="687" on="0"/>
        <pt x="1118" y="698" on="0"/>
        <pt x="1218" y="698" on="0"/>
        <pt x="1272" y="671" on="1"/>
        <pt x="1499" y="782" on="0"/>
        <pt x="1582" y="994" on="1"/>
        <pt x="1612" y="1069" on="0"/>
        <pt x="1612" y="1223" on="0"/>
        <pt x="1570" y="1277" on="1"/>
        <pt x="1547" y="1264" on="0"/>
        <pt x="1524" y="1248" on="1"/>
        <pt x="1476" y="1214" on="1"/>
        <pt x="1346" y="1116" on="0"/>
        <pt x="1256" y="1020" on="1"/>
        <pt x="1104" y="859" on="0"/>
        <pt x="763" y="400" on="0"/>
        <pt x="410" y="98" on="0"/>
        <pt x="250" y="32" on="1"/>
        <pt x="163" y="-2" on="0"/>
        <pt x="30" y="-2" on="1"/>
        <pt x="-57" y="-2" on="0"/>
        <pt x="-120" y="40" on="1"/>
        <pt x="-182" y="82" on="0"/>
        <pt x="-182" y="142" on="1"/>
        <pt x="-182" y="205" on="0"/>
        <pt x="-120" y="222" on="1"/>
        <pt x="-104" y="226" on="0"/>
        <pt x="-72" y="226" on="0"/>
        <pt x="-39" y="205" on="0"/>
        <pt x="-39" y="160" on="0"/>
        <pt x="-72" y="131" on="0"/>
        <pt x="-129" y="131" on="0"/>
        <pt x="-143" y="141" on="1"/>
        <pt x="-143" y="135" on="1"/>
        <pt x="-143" y="86" on="0"/>
        <pt x="-46" y="24" on="0"/>
        <pt x="80" y="24" on="0"/>
        <pt x="159" y="43" on="0"/>
        <pt x="253" y="97" on="0"/>
        <pt x="370" y="195" on="0"/>
        <pt x="450" y="274" on="1"/>
        <pt x="635" y="468" on="1"/>
        <pt x="882" y="738" on="1"/>
        <pt x="1233" y="1136" on="0"/>
        <pt x="1548" y="1303" on="1"/>
        <pt x="1433" y="1418" on="0"/>
        <pt x="1168" y="1418" on="1"/>
        <pt x="859" y="1418" on="0"/>
        <pt x="558" y="1191" on="1"/>
        <pt x="413" y="1081" on="0"/>
        <pt x="318" y="958" on="1"/>
        <pt x="222" y="831" on="0"/>
        <pt x="222" y="738" on="1"/>
        <pt x="222" y="653" on="0"/>
        <pt x="306" y="629" on="1"/>
        <pt x="330" y="622" on="0"/>
        <pt x="416" y="622" on="0"/>
        <pt x="549" y="668" on="0"/>
        <pt x="684" y="752" on="0"/>
        <pt x="812" y="869" on="0"/>
        <pt x="864" y="940" on="1"/>
        <pt x="979" y="1093" on="0"/>
        <pt x="1002" y="1260" on="1"/>
        <pt x="1008" y="1292" on="0"/>
        <pt x="1027" y="1292" on="0"/>
        <pt x="1027" y="1270" on="1"/>
        <pt x="1027" y="1086" on="0"/>
        <pt x="921" y="924" on="1"/>
        <pt x="825" y="778" on="0"/>
        <pt x="664" y="688" on="1"/>
        <pt x="507" y="600" on="0"/>
        <pt x="349" y="600" on="1"/>
        <pt x="245" y="600" on="0"/>
        <pt x="206" y="678" on="1"/>
        <pt x="192" y="704" on="0"/>
        <pt x="192" y="822" on="0"/>
        <pt x="270" y="989" on="0"/>
        <pt x="407" y="1144" on="0"/>
        <pt x="595" y="1280" on="0"/>
        <pt x="704" y="1331" on="1"/>
        <pt x="939" y="1440" on="0"/>
        <pt x="1449" y="1440" on="0"/>
        <pt x="1596" y="1328" on="1"/>
        <pt x="1746" y="1400" on="0"/>
        <pt x="1846" y="1400" on="1"/>
        <pt x="1879" y="1400" on="0"/>
        <pt x="1879" y="1390" on="1"/>
        <pt x="1879" y="1385" on="0"/>
        <pt x="1843" y="1380" on="0"/>
        <pt x="1809" y="1372" on="1"/>
        <pt x="1710" y="1351" on="0"/>
        <pt x="1622" y="1305" on="1"/>
        <pt x="1716" y="1215" on="0"/>
        <pt x="1716" y="1083" on="1"/>
        <pt x="1716" y="955" on="0"/>
        <pt x="1596" y="826" on="1"/>
        <pt x="1485" y="707" on="0"/>
        <pt x="1320" y="640" on="1"/>
        <pt x="1400" y="569" on="0"/>
        <pt x="1400" y="439" on="1"/>
        <pt x="1400" y="328" on="0"/>
        <pt x="1317" y="224" on="1"/>
        <pt x="1193" y="68" on="0"/>
        <pt x="976" y="15" on="1"/>
        <pt x="906" y="-2" on="0"/>
        <pt x="786" y="-2" on="0"/>
        <pt x="722" y="19" on="0"/>
        <pt x="703" y="35" on="1"/>
        <pt x="668" y="64" on="0"/>
        <pt x="668" y="143" on="0"/>
        <pt x="710" y="224" on="0"/>
        <pt x="783" y="304" on="0"/>
        <pt x="883" y="378" on="0"/>
        <pt x="940" y="406" on="1"/>
        <pt x="1067" y="469" on="0"/>
        <pt x="1186" y="469" on="1"/>
        <pt x="1207" y="469" on="0"/>
        <pt x="1207" y="443" on="0"/>
        <pt x="1124" y="443" on="0"/>
        <pt x="1013" y="413" on="0"/>
        <pt x="907" y="361" on="0"/>
        <pt x="813" y="293" on="0"/>
        <pt x="778" y="256" on="1"/>
        <pt x="701" y="176" on="0"/>
        <pt x="701" y="108" on="1"/>
        <pt x="701" y="26" on="0"/>
        <pt x="838" y="26" on="1"/>
        <pt x="934" y="26" on="0"/>
        <pt x="1040" y="98" on="1"/>
        <pt x="1210" y="212" on="0"/>
        <pt x="1272" y="416" on="1"/>
        <pt x="1292" y="484" on="0"/>
        <pt x="1292" y="599" on="0"/>
        <pt x="1277" y="623" on="1"/>
        <pt x="1174" y="588" on="0"/>
        <pt x="1033" y="588" on="0"/>
        <pt x="986" y="618" on="0"/>
        <pt x="986" y="646" on="0"/>
        <pt x="1013" y="669" on="0"/>
      </contour>
      <contour>
        <pt x="1241" y="657" on="1"/>
        <pt x="1210" y="675" on="0"/>
        <pt x="1127" y="675" on="0"/>
        <pt x="1086" y="669" on="0"/>
        <pt x="1070" y="664" on="1"/>
        <pt x="1037" y="655" on="0"/>
        <pt x="1037" y="644" on="1"/>
        <pt x="1037" y="620" on="0"/>
        <pt x="1153" y="620" on="0"/>
      </contour>
    </TTGlyph>
    <TTGlyph name="C" xMin="145" yMin="-262" xMax="1561" yMax="1467">
      <contour>
        <pt x="1468" y="1401" on="1"/>
        <pt x="1561" y="1401" on="0"/>
        <pt x="1561" y="1327" on="1"/>
        <pt x="1561" y="1217" on="0"/>
        <pt x="1391" y="1080" on="1"/>
        <pt x="1229" y="951" on="0"/>
        <pt x="993" y="856" on="1"/>
        <pt x="745" y="758" on="0"/>
        <pt x="536" y="748" on="1"/>
        <pt x="227" y="407" on="0"/>
        <pt x="227" y="213" on="1"/>
        <pt x="227" y="59" on="0"/>
        <pt x="373" y="29" on="1"/>
        <pt x="373" y="299" on="0"/>
        <pt x="559" y="518" on="1"/>
        <pt x="674" y="653" on="0"/>
        <pt x="820" y="706" on="1"/>
        <pt x="892" y="733" on="0"/>
        <pt x="1051" y="733" on="0"/>
        <pt x="1139" y="656" on="0"/>
        <pt x="1139" y="536" on="0"/>
        <pt x="1088" y="403" on="0"/>
        <pt x="996" y="271" on="0"/>
        <pt x="865" y="148" on="0"/>
        <pt x="785" y="101" on="1"/>
        <pt x="610" y="-2" on="0"/>
        <pt x="420" y="-2" on="1"/>
        <pt x="411" y="-2" on="1"/>
        <pt x="407" y="-2" on="0"/>
        <pt x="402" y="-1" on="1"/>
        <pt x="408" y="-175" on="0"/>
        <pt x="461" y="-244" on="1"/>
        <pt x="465" y="-249" on="0"/>
        <pt x="465" y="-252" on="1"/>
        <pt x="465" y="-257" on="1"/>
        <pt x="465" y="-262" on="0"/>
        <pt x="456" y="-262" on="1"/>
        <pt x="418" y="-262" on="0"/>
        <pt x="385" y="-104" on="1"/>
        <pt x="375" y="-56" on="0"/>
        <pt x="373" y="1" on="1"/>
        <pt x="226" y="21" on="0"/>
        <pt x="176" y="152" on="1"/>
        <pt x="160" y="195" on="0"/>
        <pt x="160" y="251" on="1"/>
        <pt x="160" y="485" on="0"/>
        <pt x="373" y="759" on="1"/>
        <pt x="205" y="797" on="0"/>
        <pt x="159" y="932" on="1"/>
        <pt x="145" y="974" on="0"/>
        <pt x="145" y="1070" on="0"/>
        <pt x="197" y="1175" on="0"/>
        <pt x="290" y="1274" on="0"/>
        <pt x="419" y="1362" on="0"/>
        <pt x="496" y="1395" on="1"/>
        <pt x="664" y="1467" on="0"/>
        <pt x="838" y="1467" on="1"/>
        <pt x="919" y="1467" on="0"/>
        <pt x="919" y="1450" on="1"/>
        <pt x="919" y="1442" on="0"/>
        <pt x="906" y="1442" on="1"/>
        <pt x="833" y="1446" on="1"/>
        <pt x="622" y="1446" on="0"/>
        <pt x="411" y="1304" on="1"/>
        <pt x="275" y="1213" on="0"/>
        <pt x="218" y="1099" on="1"/>
        <pt x="188" y="1040" on="0"/>
        <pt x="188" y="947" on="0"/>
        <pt x="215" y="886" on="0"/>
        <pt x="240" y="860" on="1"/>
        <pt x="294" y="804" on="0"/>
        <pt x="391" y="782" on="1"/>
        <pt x="601" y="1042" on="0"/>
        <pt x="900" y="1218" on="1"/>
        <pt x="1212" y="1401" on="0"/>
      </contour>
      <contour>
        <pt x="1537" y="1324" on="1"/>
        <pt x="1537" y="1377" on="0"/>
        <pt x="1459" y="1377" on="1"/>
        <pt x="1315" y="1377" on="0"/>
        <pt x="1046" y="1192" on="1"/>
        <pt x="784" y="1014" on="0"/>
        <pt x="561" y="775" on="1"/>
        <pt x="838" y="805" on="0"/>
        <pt x="1187" y="1002" on="1"/>
        <pt x="1394" y="1119" on="0"/>
        <pt x="1490" y="1229" on="1"/>
        <pt x="1537" y="1283" on="0"/>
      </contour>
      <contour>
        <pt x="402" y="25" on="1"/>
        <pt x="409" y="24" on="0"/>
        <pt x="416" y="24" on="1"/>
        <pt x="431" y="24" on="1"/>
        <pt x="558" y="24" on="0"/>
        <pt x="710" y="138" on="1"/>
        <pt x="845" y="240" on="0"/>
        <pt x="947" y="388" on="1"/>
        <pt x="1047" y="534" on="0"/>
        <pt x="1047" y="628" on="1"/>
        <pt x="1047" y="670" on="0"/>
        <pt x="1003" y="706" on="0"/>
        <pt x="898" y="706" on="0"/>
        <pt x="772" y="658" on="0"/>
        <pt x="649" y="570" on="0"/>
        <pt x="537" y="446" on="0"/>
        <pt x="494" y="370" on="1"/>
        <pt x="402" y="206" on="0"/>
        <pt x="402" y="26" on="1"/>
      </contour>
    </TTGlyph>
    <TTGlyph name="Ccedilla" xMin="145" yMin="-359" xMax="1561" yMax="1467">
      <contour>
        <pt x="474" y="-169" on="1"/>
        <pt x="474" y="-125" on="0"/>
        <pt x="406" y="-125" on="1"/>
        <pt x="384" y="-125" on="0"/>
        <pt x="363" y="-132" on="1"/>
        <pt x="448" y="-1" on="1"/>
        <pt x="440" y="-2" on="0"/>
        <pt x="434" y="-2" on="1"/>
        <pt x="420" y="-2" on="1"/>
        <pt x="243" y="-2" on="0"/>
        <pt x="180" y="141" on="1"/>
        <pt x="160" y="188" on="0"/>
        <pt x="160" y="251" on="1"/>
        <pt x="160" y="485" on="0"/>
        <pt x="373" y="759" on="1"/>
        <pt x="205" y="797" on="0"/>
        <pt x="159" y="932" on="1"/>
        <pt x="145" y="974" on="0"/>
        <pt x="145" y="1070" on="0"/>
        <pt x="197" y="1175" on="0"/>
        <pt x="290" y="1274" on="0"/>
        <pt x="419" y="1362" on="0"/>
        <pt x="496" y="1395" on="1"/>
        <pt x="664" y="1467" on="0"/>
        <pt x="838" y="1467" on="1"/>
        <pt x="919" y="1467" on="0"/>
        <pt x="919" y="1450" on="1"/>
        <pt x="919" y="1442" on="0"/>
        <pt x="906" y="1442" on="1"/>
        <pt x="833" y="1446" on="1"/>
        <pt x="622" y="1446" on="0"/>
        <pt x="411" y="1304" on="1"/>
        <pt x="275" y="1213" on="0"/>
        <pt x="218" y="1099" on="1"/>
        <pt x="188" y="1040" on="0"/>
        <pt x="188" y="947" on="0"/>
        <pt x="215" y="886" on="0"/>
        <pt x="240" y="860" on="1"/>
        <pt x="294" y="804" on="0"/>
        <pt x="391" y="782" on="1"/>
        <pt x="601" y="1042" on="0"/>
        <pt x="900" y="1218" on="1"/>
        <pt x="1212" y="1401" on="0"/>
        <pt x="1461" y="1401" on="1"/>
        <pt x="1561" y="1401" on="0"/>
        <pt x="1561" y="1327" on="1"/>
        <pt x="1561" y="1217" on="0"/>
        <pt x="1391" y="1080" on="1"/>
        <pt x="1229" y="951" on="0"/>
        <pt x="993" y="856" on="1"/>
        <pt x="745" y="758" on="0"/>
        <pt x="536" y="748" on="1"/>
        <pt x="227" y="407" on="0"/>
        <pt x="227" y="213" on="1"/>
        <pt x="227" y="118" on="0"/>
        <pt x="339" y="24" on="0"/>
        <pt x="498" y="24" on="0"/>
        <pt x="642" y="87" on="0"/>
        <pt x="779" y="190" on="0"/>
        <pt x="901" y="321" on="0"/>
        <pt x="947" y="388" on="1"/>
        <pt x="1047" y="534" on="0"/>
        <pt x="1047" y="628" on="1"/>
        <pt x="1047" y="670" on="0"/>
        <pt x="1003" y="706" on="0"/>
        <pt x="889" y="706" on="0"/>
        <pt x="740" y="640" on="0"/>
        <pt x="670" y="582" on="1"/>
        <pt x="517" y="454" on="0"/>
        <pt x="446" y="262" on="1"/>
        <pt x="444" y="256" on="0"/>
        <pt x="436" y="256" on="0"/>
        <pt x="432" y="260" on="1"/>
        <pt x="423" y="269" on="0"/>
        <pt x="431" y="288" on="1"/>
        <pt x="504" y="480" on="0"/>
        <pt x="652" y="605" on="1"/>
        <pt x="802" y="733" on="0"/>
        <pt x="966" y="733" on="1"/>
        <pt x="1051" y="733" on="0"/>
        <pt x="1139" y="656" on="0"/>
        <pt x="1139" y="539" on="0"/>
        <pt x="1093" y="414" on="0"/>
        <pt x="1009" y="288" on="0"/>
        <pt x="891" y="170" on="0"/>
        <pt x="818" y="122" on="1"/>
        <pt x="660" y="18" on="0"/>
        <pt x="483" y="1" on="1"/>
        <pt x="439" y="-65" on="1"/>
        <pt x="456" y="-60" on="0"/>
        <pt x="516" y="-60" on="0"/>
        <pt x="565" y="-107" on="0"/>
        <pt x="565" y="-161" on="0"/>
        <pt x="549" y="-200" on="0"/>
        <pt x="536" y="-217" on="1"/>
        <pt x="481" y="-286" on="0"/>
        <pt x="363" y="-338" on="1"/>
        <pt x="314" y="-359" on="0"/>
        <pt x="276" y="-359" on="0"/>
        <pt x="276" y="-345" on="1"/>
        <pt x="276" y="-336" on="0"/>
        <pt x="296" y="-328" on="1"/>
        <pt x="384" y="-300" on="0"/>
        <pt x="474" y="-224" on="0"/>
      </contour>
      <contour>
        <pt x="1537" y="1324" on="1"/>
        <pt x="1537" y="1377" on="0"/>
        <pt x="1459" y="1377" on="1"/>
        <pt x="1315" y="1377" on="0"/>
        <pt x="1046" y="1192" on="1"/>
        <pt x="784" y="1014" on="0"/>
        <pt x="561" y="775" on="1"/>
        <pt x="838" y="805" on="0"/>
        <pt x="1187" y="1002" on="1"/>
        <pt x="1394" y="1119" on="0"/>
        <pt x="1490" y="1229" on="1"/>
        <pt x="1537" y="1283" on="0"/>
      </contour>
    </TTGlyph>
    <TTGlyph name="D" xMin="-34" yMin="-6" xMax="1984" yMax="1384">
      <contour>
        <pt x="504" y="49" on="1"/>
        <pt x="341" y="-6" on="0"/>
        <pt x="146" y="-6" on="1"/>
        <pt x="12" y="-6" on="0"/>
        <pt x="-24" y="41" on="1"/>
        <pt x="-34" y="54" on="0"/>
        <pt x="-34" y="83" on="0"/>
        <pt x="-7" y="113" on="0"/>
        <pt x="19" y="126" on="1"/>
        <pt x="78" y="154" on="0"/>
        <pt x="198" y="154" on="0"/>
        <pt x="252" y="148" on="0"/>
        <pt x="284" y="142" on="1"/>
        <pt x="340" y="130" on="0"/>
        <pt x="452" y="97" on="0"/>
        <pt x="458" y="97" on="0"/>
        <pt x="462" y="95" on="1"/>
        <pt x="564" y="150" on="0"/>
        <pt x="763" y="343" on="0"/>
        <pt x="842" y="431" on="1"/>
        <pt x="1015" y="634" on="1"/>
        <pt x="1183" y="836" on="1"/>
        <pt x="1273" y="935" on="1"/>
        <pt x="1320" y="985" on="0"/>
        <pt x="1441" y="1099" on="0"/>
        <pt x="1523" y="1154" on="1"/>
        <pt x="1389" y="1360" on="0"/>
        <pt x="1054" y="1360" on="1"/>
        <pt x="867" y="1360" on="0"/>
        <pt x="680" y="1256" on="1"/>
        <pt x="511" y="1161" on="0"/>
        <pt x="400" y="1017" on="1"/>
        <pt x="291" y="875" on="0"/>
        <pt x="291" y="757" on="1"/>
        <pt x="291" y="685" on="0"/>
        <pt x="390" y="597" on="0"/>
        <pt x="532" y="597" on="0"/>
        <pt x="665" y="645" on="0"/>
        <pt x="804" y="728" on="0"/>
        <pt x="940" y="840" on="0"/>
        <pt x="994" y="904" on="1"/>
        <pt x="1113" y="1045" on="0"/>
        <pt x="1122" y="1173" on="1"/>
        <pt x="1125" y="1196" on="0"/>
        <pt x="1133" y="1196" on="1"/>
        <pt x="1145" y="1196" on="0"/>
        <pt x="1145" y="1175" on="1"/>
        <pt x="1145" y="1032" on="0"/>
        <pt x="1048" y="890" on="1"/>
        <pt x="900" y="671" on="0"/>
        <pt x="646" y="594" on="1"/>
        <pt x="564" y="569" on="0"/>
        <pt x="432" y="569" on="0"/>
        <pt x="344" y="599" on="0"/>
        <pt x="310" y="627" on="1"/>
        <pt x="233" y="689" on="0"/>
        <pt x="233" y="854" on="0"/>
        <pt x="291" y="1002" on="0"/>
        <pt x="397" y="1136" on="0"/>
        <pt x="546" y="1251" on="0"/>
        <pt x="636" y="1294" on="1"/>
        <pt x="829" y="1384" on="0"/>
        <pt x="1048" y="1384" on="1"/>
        <pt x="1396" y="1384" on="0"/>
        <pt x="1560" y="1178" on="1"/>
        <pt x="1788" y="1322" on="0"/>
        <pt x="1969" y="1330" on="1"/>
        <pt x="1984" y="1330" on="0"/>
        <pt x="1984" y="1314" on="0"/>
        <pt x="1974" y="1309" on="0"/>
        <pt x="1951" y="1305" on="1"/>
        <pt x="1775" y="1284" on="0"/>
        <pt x="1594" y="1128" on="1"/>
        <pt x="1668" y="1005" on="0"/>
        <pt x="1668" y="717" on="0"/>
        <pt x="1602" y="497" on="0"/>
        <pt x="1486" y="310" on="0"/>
        <pt x="1325" y="160" on="0"/>
        <pt x="1230" y="108" on="1"/>
        <pt x="1030" y="-2" on="0"/>
        <pt x="811" y="-2" on="1"/>
        <pt x="675" y="-2" on="0"/>
      </contour>
      <contour>
        <pt x="551" y="67" on="1"/>
        <pt x="678" y="28" on="0"/>
        <pt x="914" y="28" on="0"/>
        <pt x="1107" y="83" on="0"/>
        <pt x="1282" y="184" on="0"/>
        <pt x="1432" y="329" on="0"/>
        <pt x="1487" y="418" on="1"/>
        <pt x="1604" y="609" on="0"/>
        <pt x="1604" y="836" on="1"/>
        <pt x="1604" y="987" on="0"/>
        <pt x="1555" y="1094" on="1"/>
        <pt x="1443" y="990" on="0"/>
        <pt x="1345" y="849" on="1"/>
        <pt x="1162" y="592" on="1"/>
        <pt x="869" y="192" on="0"/>
      </contour>
      <contour>
        <pt x="417" y="73" on="1"/>
        <pt x="269" y="111" on="0"/>
        <pt x="79" y="111" on="0"/>
        <pt x="-6" y="85" on="0"/>
        <pt x="-6" y="68" on="1"/>
        <pt x="-6" y="26" on="0"/>
        <pt x="163" y="26" on="1"/>
        <pt x="311" y="26" on="0"/>
      </contour>
    </TTGlyph>
    <TTGlyph name="E" xMin="-52" yMin="-285" xMax="1461" yMax="1401">
      <contour>
        <pt x="343" y="-272" on="0"/>
        <pt x="343" y="-285" on="0"/>
        <pt x="331" y="-285" on="1"/>
        <pt x="290" y="-285" on="0"/>
        <pt x="264" y="-162" on="1"/>
        <pt x="249" y="-98" on="0"/>
        <pt x="247" y="-28" on="1"/>
        <pt x="247" y="1" on="1"/>
        <pt x="113" y="15" on="0"/>
        <pt x="30" y="88" on="1"/>
        <pt x="-50" y="158" on="0"/>
        <pt x="-52" y="262" on="1"/>
        <pt x="-56" y="388" on="0"/>
        <pt x="25" y="504" on="1"/>
        <pt x="145" y="677" on="0"/>
        <pt x="385" y="734" on="1"/>
        <pt x="463" y="752" on="0"/>
        <pt x="549" y="752" on="1"/>
        <pt x="555" y="752" on="1"/>
        <pt x="528" y="789" on="0"/>
        <pt x="516" y="837" on="1"/>
        <pt x="359" y="871" on="0"/>
        <pt x="162" y="1016" on="0"/>
        <pt x="119" y="1113" on="1"/>
        <pt x="113" y="1124" on="0"/>
        <pt x="113" y="1150" on="0"/>
        <pt x="132" y="1150" on="0"/>
        <pt x="142" y="1126" on="1"/>
        <pt x="233" y="922" on="0"/>
        <pt x="511" y="864" on="1"/>
        <pt x="510" y="869" on="0"/>
        <pt x="510" y="881" on="0"/>
        <pt x="510" y="887" on="1"/>
        <pt x="508" y="1036" on="0"/>
        <pt x="604" y="1159" on="1"/>
        <pt x="738" y="1330" on="0"/>
        <pt x="977" y="1384" on="1"/>
        <pt x="1049" y="1401" on="0"/>
        <pt x="1119" y="1401" on="1"/>
        <pt x="1281" y="1401" on="0"/>
        <pt x="1461" y="1286" on="0"/>
        <pt x="1461" y="1183" on="1"/>
        <pt x="1461" y="1106" on="0"/>
        <pt x="1349" y="971" on="0"/>
        <pt x="1254" y="921" on="1"/>
        <pt x="1047" y="813" on="0"/>
        <pt x="764" y="813" on="1"/>
        <pt x="676" y="813" on="0"/>
        <pt x="600" y="823" on="1"/>
        <pt x="610" y="784" on="0"/>
        <pt x="633" y="748" on="1"/>
        <pt x="731" y="737" on="0"/>
        <pt x="832" y="680" on="0"/>
        <pt x="833" y="649" on="1"/>
        <pt x="833" y="617" on="0"/>
        <pt x="784" y="617" on="1"/>
        <pt x="677" y="617" on="0"/>
        <pt x="584" y="716" on="1"/>
        <pt x="390" y="695" on="0"/>
        <pt x="219" y="540" on="1"/>
        <pt x="114" y="443" on="0"/>
        <pt x="72" y="336" on="1"/>
        <pt x="51" y="281" on="0"/>
        <pt x="54" y="149" on="0"/>
        <pt x="153" y="42" on="0"/>
        <pt x="249" y="27" on="1"/>
        <pt x="265" y="211" on="0"/>
        <pt x="395" y="356" on="1"/>
        <pt x="528" y="505" on="0"/>
        <pt x="689" y="505" on="1"/>
        <pt x="752" y="505" on="0"/>
        <pt x="845" y="423" on="0"/>
        <pt x="845" y="289" on="0"/>
        <pt x="763" y="154" on="0"/>
        <pt x="691" y="104" on="1"/>
        <pt x="536" y="-2" on="0"/>
        <pt x="313" y="-2" on="1"/>
        <pt x="277" y="-1" on="1"/>
        <pt x="276" y="-9" on="0"/>
        <pt x="276" y="-16" on="1"/>
        <pt x="276" y="-31" on="1"/>
        <pt x="276" y="-133" on="0"/>
        <pt x="310" y="-219" on="1"/>
        <pt x="322" y="-251" on="0"/>
      </contour>
      <contour>
        <pt x="596" y="850" on="1"/>
        <pt x="652" y="842" on="0"/>
        <pt x="821" y="842" on="0"/>
        <pt x="979" y="865" on="0"/>
        <pt x="1130" y="909" on="0"/>
        <pt x="1264" y="973" on="0"/>
        <pt x="1314" y="1014" on="1"/>
        <pt x="1424" y="1104" on="0"/>
        <pt x="1424" y="1213" on="1"/>
        <pt x="1424" y="1284" on="0"/>
        <pt x="1352" y="1329" on="1"/>
        <pt x="1277" y="1376" on="0"/>
        <pt x="1086" y="1376" on="0"/>
        <pt x="950" y="1328" on="0"/>
        <pt x="825" y="1248" on="0"/>
        <pt x="719" y="1144" on="0"/>
        <pt x="680" y="1087" on="1"/>
        <pt x="596" y="967" on="0"/>
        <pt x="596" y="864" on="1"/>
      </contour>
      <contour>
        <pt x="655" y="718" on="1"/>
        <pt x="724" y="640" on="0"/>
        <pt x="796" y="640" on="1"/>
        <pt x="812" y="640" on="0"/>
        <pt x="812" y="660" on="0"/>
        <pt x="787" y="681" on="0"/>
        <pt x="766" y="691" on="1"/>
        <pt x="717" y="714" on="0"/>
      </contour>
      <contour>
        <pt x="278" y="24" on="1"/>
        <pt x="298" y="22" on="0"/>
        <pt x="372" y="22" on="0"/>
        <pt x="484" y="58" on="0"/>
        <pt x="591" y="117" on="0"/>
        <pt x="686" y="194" on="0"/>
        <pt x="722" y="236" on="1"/>
        <pt x="799" y="326" on="0"/>
        <pt x="799" y="394" on="1"/>
        <pt x="799" y="436" on="0"/>
        <pt x="737" y="480" on="0"/>
        <pt x="629" y="480" on="0"/>
        <pt x="492" y="415" on="0"/>
        <pt x="432" y="355" on="1"/>
        <pt x="297" y="218" on="0"/>
      </contour>
    </TTGlyph>
    <TTGlyph name="Eacute" xMin="-52" yMin="-285" xMax="1615" yMax="1768">
      <contour>
        <pt x="1518" y="1697" on="1"/>
        <pt x="1527" y="1768" on="0"/>
        <pt x="1615" y="1768" on="0"/>
        <pt x="1615" y="1713" on="1"/>
        <pt x="1615" y="1668" on="0"/>
        <pt x="1551" y="1598" on="1"/>
        <pt x="1490" y="1532" on="0"/>
        <pt x="1364" y="1459" on="0"/>
        <pt x="1339" y="1459" on="0"/>
        <pt x="1339" y="1471" on="1"/>
        <pt x="1339" y="1476" on="0"/>
        <pt x="1352" y="1485" on="0"/>
        <pt x="1372" y="1498" on="1"/>
        <pt x="1466" y="1557" on="0"/>
        <pt x="1500" y="1636" on="1"/>
        <pt x="1510" y="1657" on="0"/>
      </contour>
      <contour>
        <pt x="343" y="-272" on="0"/>
        <pt x="343" y="-285" on="0"/>
        <pt x="331" y="-285" on="1"/>
        <pt x="290" y="-285" on="0"/>
        <pt x="264" y="-162" on="1"/>
        <pt x="249" y="-98" on="0"/>
        <pt x="247" y="-28" on="1"/>
        <pt x="247" y="1" on="1"/>
        <pt x="113" y="15" on="0"/>
        <pt x="30" y="88" on="1"/>
        <pt x="-50" y="158" on="0"/>
        <pt x="-52" y="262" on="1"/>
        <pt x="-56" y="388" on="0"/>
        <pt x="25" y="504" on="1"/>
        <pt x="145" y="677" on="0"/>
        <pt x="385" y="734" on="1"/>
        <pt x="463" y="752" on="0"/>
        <pt x="549" y="752" on="1"/>
        <pt x="555" y="752" on="1"/>
        <pt x="528" y="789" on="0"/>
        <pt x="516" y="837" on="1"/>
        <pt x="359" y="871" on="0"/>
        <pt x="162" y="1016" on="0"/>
        <pt x="119" y="1113" on="1"/>
        <pt x="113" y="1124" on="0"/>
        <pt x="113" y="1150" on="0"/>
        <pt x="132" y="1150" on="0"/>
        <pt x="142" y="1126" on="1"/>
        <pt x="233" y="922" on="0"/>
        <pt x="511" y="864" on="1"/>
        <pt x="510" y="869" on="0"/>
        <pt x="510" y="881" on="0"/>
        <pt x="510" y="887" on="1"/>
        <pt x="508" y="1036" on="0"/>
        <pt x="604" y="1159" on="1"/>
        <pt x="738" y="1330" on="0"/>
        <pt x="977" y="1384" on="1"/>
        <pt x="1049" y="1401" on="0"/>
        <pt x="1119" y="1401" on="1"/>
        <pt x="1281" y="1401" on="0"/>
        <pt x="1461" y="1286" on="0"/>
        <pt x="1461" y="1183" on="1"/>
        <pt x="1461" y="1106" on="0"/>
        <pt x="1349" y="971" on="0"/>
        <pt x="1254" y="921" on="1"/>
        <pt x="1047" y="813" on="0"/>
        <pt x="764" y="813" on="1"/>
        <pt x="676" y="813" on="0"/>
        <pt x="600" y="823" on="1"/>
        <pt x="610" y="784" on="0"/>
        <pt x="633" y="748" on="1"/>
        <pt x="731" y="737" on="0"/>
        <pt x="832" y="680" on="0"/>
        <pt x="833" y="649" on="1"/>
        <pt x="833" y="617" on="0"/>
        <pt x="784" y="617" on="1"/>
        <pt x="677" y="617" on="0"/>
        <pt x="584" y="716" on="1"/>
        <pt x="390" y="695" on="0"/>
        <pt x="219" y="540" on="1"/>
        <pt x="114" y="443" on="0"/>
        <pt x="72" y="336" on="1"/>
        <pt x="51" y="281" on="0"/>
        <pt x="54" y="149" on="0"/>
        <pt x="153" y="42" on="0"/>
        <pt x="249" y="27" on="1"/>
        <pt x="265" y="211" on="0"/>
        <pt x="395" y="356" on="1"/>
        <pt x="528" y="505" on="0"/>
        <pt x="689" y="505" on="1"/>
        <pt x="752" y="505" on="0"/>
        <pt x="845" y="423" on="0"/>
        <pt x="845" y="289" on="0"/>
        <pt x="763" y="154" on="0"/>
        <pt x="691" y="104" on="1"/>
        <pt x="536" y="-2" on="0"/>
        <pt x="313" y="-2" on="1"/>
        <pt x="277" y="-1" on="1"/>
        <pt x="276" y="-9" on="0"/>
        <pt x="276" y="-16" on="1"/>
        <pt x="276" y="-31" on="1"/>
        <pt x="276" y="-133" on="0"/>
        <pt x="310" y="-219" on="1"/>
        <pt x="322" y="-251" on="0"/>
      </contour>
      <contour>
        <pt x="596" y="850" on="1"/>
        <pt x="652" y="842" on="0"/>
        <pt x="821" y="842" on="0"/>
        <pt x="979" y="865" on="0"/>
        <pt x="1130" y="909" on="0"/>
        <pt x="1264" y="973" on="0"/>
        <pt x="1314" y="1014" on="1"/>
        <pt x="1424" y="1104" on="0"/>
        <pt x="1424" y="1213" on="1"/>
        <pt x="1424" y="1284" on="0"/>
        <pt x="1352" y="1329" on="1"/>
        <pt x="1277" y="1376" on="0"/>
        <pt x="1086" y="1376" on="0"/>
        <pt x="950" y="1328" on="0"/>
        <pt x="825" y="1248" on="0"/>
        <pt x="719" y="1144" on="0"/>
        <pt x="680" y="1087" on="1"/>
        <pt x="596" y="967" on="0"/>
        <pt x="596" y="864" on="1"/>
      </contour>
      <contour>
        <pt x="655" y="718" on="1"/>
        <pt x="724" y="640" on="0"/>
        <pt x="796" y="640" on="1"/>
        <pt x="812" y="640" on="0"/>
        <pt x="812" y="660" on="0"/>
        <pt x="787" y="681" on="0"/>
        <pt x="766" y="691" on="1"/>
        <pt x="717" y="714" on="0"/>
      </contour>
      <contour>
        <pt x="278" y="24" on="1"/>
        <pt x="298" y="22" on="0"/>
        <pt x="372" y="22" on="0"/>
        <pt x="484" y="58" on="0"/>
        <pt x="591" y="117" on="0"/>
        <pt x="686" y="194" on="0"/>
        <pt x="722" y="236" on="1"/>
        <pt x="799" y="326" on="0"/>
        <pt x="799" y="394" on="1"/>
        <pt x="799" y="436" on="0"/>
        <pt x="737" y="480" on="0"/>
        <pt x="629" y="480" on="0"/>
        <pt x="492" y="415" on="0"/>
        <pt x="432" y="355" on="1"/>
        <pt x="297" y="218" on="0"/>
      </contour>
    </TTGlyph>
    <TTGlyph name="Ecircumflex" xMin="-52" yMin="-285" xMax="1509" yMax="1768">
      <contour>
        <pt x="1259" y="1528" on="1"/>
        <pt x="1161" y="1463" on="1"/>
        <pt x="1121" y="1438" on="0"/>
        <pt x="1101" y="1438" on="0"/>
        <pt x="1101" y="1442" on="1"/>
        <pt x="1101" y="1455" on="0"/>
        <pt x="1162" y="1500" on="1"/>
        <pt x="1289" y="1600" on="1"/>
        <pt x="1356" y="1654" on="0"/>
        <pt x="1425" y="1719" on="1"/>
        <pt x="1469" y="1768" on="0"/>
        <pt x="1484" y="1768" on="1"/>
        <pt x="1492" y="1768" on="0"/>
        <pt x="1492" y="1761" on="1"/>
        <pt x="1492" y="1748" on="0"/>
        <pt x="1485" y="1731" on="1"/>
        <pt x="1461" y="1673" on="0"/>
        <pt x="1461" y="1609" on="1"/>
        <pt x="1461" y="1498" on="0"/>
        <pt x="1504" y="1459" on="1"/>
        <pt x="1509" y="1455" on="0"/>
        <pt x="1509" y="1447" on="0"/>
        <pt x="1500" y="1436" on="0"/>
        <pt x="1492" y="1436" on="1"/>
        <pt x="1458" y="1436" on="0"/>
        <pt x="1418" y="1508" on="1"/>
        <pt x="1395" y="1549" on="0"/>
        <pt x="1391" y="1577" on="1"/>
        <pt x="1385" y="1619" on="1"/>
        <pt x="1318" y="1567" on="0"/>
      </contour>
      <contour>
        <pt x="343" y="-272" on="0"/>
        <pt x="343" y="-285" on="0"/>
        <pt x="331" y="-285" on="1"/>
        <pt x="290" y="-285" on="0"/>
        <pt x="264" y="-162" on="1"/>
        <pt x="249" y="-98" on="0"/>
        <pt x="247" y="-28" on="1"/>
        <pt x="247" y="1" on="1"/>
        <pt x="113" y="15" on="0"/>
        <pt x="30" y="88" on="1"/>
        <pt x="-50" y="158" on="0"/>
        <pt x="-52" y="262" on="1"/>
        <pt x="-56" y="388" on="0"/>
        <pt x="25" y="504" on="1"/>
        <pt x="145" y="677" on="0"/>
        <pt x="385" y="734" on="1"/>
        <pt x="463" y="752" on="0"/>
        <pt x="549" y="752" on="1"/>
        <pt x="555" y="752" on="1"/>
        <pt x="528" y="789" on="0"/>
        <pt x="516" y="837" on="1"/>
        <pt x="359" y="871" on="0"/>
        <pt x="162" y="1016" on="0"/>
        <pt x="119" y="1113" on="1"/>
        <pt x="113" y="1124" on="0"/>
        <pt x="113" y="1150" on="0"/>
        <pt x="132" y="1150" on="0"/>
        <pt x="142" y="1126" on="1"/>
        <pt x="233" y="922" on="0"/>
        <pt x="511" y="864" on="1"/>
        <pt x="510" y="869" on="0"/>
        <pt x="510" y="881" on="0"/>
        <pt x="510" y="887" on="1"/>
        <pt x="508" y="1036" on="0"/>
        <pt x="604" y="1159" on="1"/>
        <pt x="738" y="1330" on="0"/>
        <pt x="977" y="1384" on="1"/>
        <pt x="1049" y="1401" on="0"/>
        <pt x="1119" y="1401" on="1"/>
        <pt x="1281" y="1401" on="0"/>
        <pt x="1461" y="1286" on="0"/>
        <pt x="1461" y="1183" on="1"/>
        <pt x="1461" y="1106" on="0"/>
        <pt x="1349" y="971" on="0"/>
        <pt x="1254" y="921" on="1"/>
        <pt x="1047" y="813" on="0"/>
        <pt x="764" y="813" on="1"/>
        <pt x="676" y="813" on="0"/>
        <pt x="600" y="823" on="1"/>
        <pt x="610" y="784" on="0"/>
        <pt x="633" y="748" on="1"/>
        <pt x="731" y="737" on="0"/>
        <pt x="832" y="680" on="0"/>
        <pt x="833" y="649" on="1"/>
        <pt x="833" y="617" on="0"/>
        <pt x="784" y="617" on="1"/>
        <pt x="677" y="617" on="0"/>
        <pt x="584" y="716" on="1"/>
        <pt x="390" y="695" on="0"/>
        <pt x="219" y="540" on="1"/>
        <pt x="114" y="443" on="0"/>
        <pt x="72" y="336" on="1"/>
        <pt x="51" y="281" on="0"/>
        <pt x="54" y="149" on="0"/>
        <pt x="153" y="42" on="0"/>
        <pt x="249" y="27" on="1"/>
        <pt x="265" y="211" on="0"/>
        <pt x="395" y="356" on="1"/>
        <pt x="528" y="505" on="0"/>
        <pt x="689" y="505" on="1"/>
        <pt x="752" y="505" on="0"/>
        <pt x="845" y="423" on="0"/>
        <pt x="845" y="289" on="0"/>
        <pt x="763" y="154" on="0"/>
        <pt x="691" y="104" on="1"/>
        <pt x="536" y="-2" on="0"/>
        <pt x="313" y="-2" on="1"/>
        <pt x="277" y="-1" on="1"/>
        <pt x="276" y="-9" on="0"/>
        <pt x="276" y="-16" on="1"/>
        <pt x="276" y="-31" on="1"/>
        <pt x="276" y="-133" on="0"/>
        <pt x="310" y="-219" on="1"/>
        <pt x="322" y="-251" on="0"/>
      </contour>
      <contour>
        <pt x="596" y="850" on="1"/>
        <pt x="652" y="842" on="0"/>
        <pt x="821" y="842" on="0"/>
        <pt x="979" y="865" on="0"/>
        <pt x="1130" y="909" on="0"/>
        <pt x="1264" y="973" on="0"/>
        <pt x="1314" y="1014" on="1"/>
        <pt x="1424" y="1104" on="0"/>
        <pt x="1424" y="1213" on="1"/>
        <pt x="1424" y="1284" on="0"/>
        <pt x="1352" y="1329" on="1"/>
        <pt x="1277" y="1376" on="0"/>
        <pt x="1086" y="1376" on="0"/>
        <pt x="950" y="1328" on="0"/>
        <pt x="825" y="1248" on="0"/>
        <pt x="719" y="1144" on="0"/>
        <pt x="680" y="1087" on="1"/>
        <pt x="596" y="967" on="0"/>
        <pt x="596" y="864" on="1"/>
      </contour>
      <contour>
        <pt x="655" y="718" on="1"/>
        <pt x="724" y="640" on="0"/>
        <pt x="796" y="640" on="1"/>
        <pt x="812" y="640" on="0"/>
        <pt x="812" y="660" on="0"/>
        <pt x="787" y="681" on="0"/>
        <pt x="766" y="691" on="1"/>
        <pt x="717" y="714" on="0"/>
      </contour>
      <contour>
        <pt x="278" y="24" on="1"/>
        <pt x="298" y="22" on="0"/>
        <pt x="372" y="22" on="0"/>
        <pt x="484" y="58" on="0"/>
        <pt x="591" y="117" on="0"/>
        <pt x="686" y="194" on="0"/>
        <pt x="722" y="236" on="1"/>
        <pt x="799" y="326" on="0"/>
        <pt x="799" y="394" on="1"/>
        <pt x="799" y="436" on="0"/>
        <pt x="737" y="480" on="0"/>
        <pt x="629" y="480" on="0"/>
        <pt x="492" y="415" on="0"/>
        <pt x="432" y="355" on="1"/>
        <pt x="297" y="218" on="0"/>
      </contour>
    </TTGlyph>
    <TTGlyph name="Edieresis" xMin="-52" yMin="-285" xMax="1595" yMax="1624">
      <contour>
        <pt x="1549" y="1484" on="0"/>
        <pt x="1512" y="1468" on="0"/>
        <pt x="1466" y="1468" on="0"/>
        <pt x="1433" y="1505" on="0"/>
        <pt x="1433" y="1549" on="0"/>
        <pt x="1449" y="1582" on="0"/>
        <pt x="1462" y="1595" on="1"/>
        <pt x="1493" y="1624" on="0"/>
        <pt x="1561" y="1624" on="0"/>
        <pt x="1595" y="1589" on="0"/>
        <pt x="1595" y="1544" on="0"/>
        <pt x="1577" y="1510" on="0"/>
      </contour>
      <contour>
        <pt x="1249" y="1484" on="0"/>
        <pt x="1213" y="1468" on="0"/>
        <pt x="1167" y="1468" on="0"/>
        <pt x="1134" y="1505" on="0"/>
        <pt x="1134" y="1549" on="0"/>
        <pt x="1150" y="1582" on="0"/>
        <pt x="1164" y="1595" on="1"/>
        <pt x="1194" y="1624" on="0"/>
        <pt x="1262" y="1624" on="0"/>
        <pt x="1294" y="1589" on="0"/>
        <pt x="1294" y="1544" on="0"/>
        <pt x="1277" y="1510" on="0"/>
      </contour>
      <contour>
        <pt x="343" y="-272" on="0"/>
        <pt x="343" y="-285" on="0"/>
        <pt x="331" y="-285" on="1"/>
        <pt x="290" y="-285" on="0"/>
        <pt x="264" y="-162" on="1"/>
        <pt x="249" y="-98" on="0"/>
        <pt x="247" y="-28" on="1"/>
        <pt x="247" y="1" on="1"/>
        <pt x="113" y="15" on="0"/>
        <pt x="30" y="88" on="1"/>
        <pt x="-50" y="158" on="0"/>
        <pt x="-52" y="262" on="1"/>
        <pt x="-56" y="388" on="0"/>
        <pt x="25" y="504" on="1"/>
        <pt x="145" y="677" on="0"/>
        <pt x="385" y="734" on="1"/>
        <pt x="463" y="752" on="0"/>
        <pt x="549" y="752" on="1"/>
        <pt x="555" y="752" on="1"/>
        <pt x="528" y="789" on="0"/>
        <pt x="516" y="837" on="1"/>
        <pt x="359" y="871" on="0"/>
        <pt x="162" y="1016" on="0"/>
        <pt x="119" y="1113" on="1"/>
        <pt x="113" y="1124" on="0"/>
        <pt x="113" y="1150" on="0"/>
        <pt x="132" y="1150" on="0"/>
        <pt x="142" y="1126" on="1"/>
        <pt x="233" y="922" on="0"/>
        <pt x="511" y="864" on="1"/>
        <pt x="510" y="869" on="0"/>
        <pt x="510" y="881" on="0"/>
        <pt x="510" y="887" on="1"/>
        <pt x="508" y="1036" on="0"/>
        <pt x="604" y="1159" on="1"/>
        <pt x="738" y="1330" on="0"/>
        <pt x="977" y="1384" on="1"/>
        <pt x="1049" y="1401" on="0"/>
        <pt x="1119" y="1401" on="1"/>
        <pt x="1281" y="1401" on="0"/>
        <pt x="1461" y="1286" on="0"/>
        <pt x="1461" y="1183" on="1"/>
        <pt x="1461" y="1106" on="0"/>
        <pt x="1349" y="971" on="0"/>
        <pt x="1254" y="921" on="1"/>
        <pt x="1047" y="813" on="0"/>
        <pt x="764" y="813" on="1"/>
        <pt x="676" y="813" on="0"/>
        <pt x="600" y="823" on="1"/>
        <pt x="610" y="784" on="0"/>
        <pt x="633" y="748" on="1"/>
        <pt x="731" y="737" on="0"/>
        <pt x="832" y="680" on="0"/>
        <pt x="833" y="649" on="1"/>
        <pt x="833" y="617" on="0"/>
        <pt x="784" y="617" on="1"/>
        <pt x="677" y="617" on="0"/>
        <pt x="584" y="716" on="1"/>
        <pt x="390" y="695" on="0"/>
        <pt x="219" y="540" on="1"/>
        <pt x="114" y="443" on="0"/>
        <pt x="72" y="336" on="1"/>
        <pt x="51" y="281" on="0"/>
        <pt x="54" y="149" on="0"/>
        <pt x="153" y="42" on="0"/>
        <pt x="249" y="27" on="1"/>
        <pt x="265" y="211" on="0"/>
        <pt x="395" y="356" on="1"/>
        <pt x="528" y="505" on="0"/>
        <pt x="689" y="505" on="1"/>
        <pt x="752" y="505" on="0"/>
        <pt x="845" y="423" on="0"/>
        <pt x="845" y="289" on="0"/>
        <pt x="763" y="154" on="0"/>
        <pt x="691" y="104" on="1"/>
        <pt x="536" y="-2" on="0"/>
        <pt x="313" y="-2" on="1"/>
        <pt x="277" y="-1" on="1"/>
        <pt x="276" y="-9" on="0"/>
        <pt x="276" y="-16" on="1"/>
        <pt x="276" y="-31" on="1"/>
        <pt x="276" y="-133" on="0"/>
        <pt x="310" y="-219" on="1"/>
        <pt x="322" y="-251" on="0"/>
      </contour>
      <contour>
        <pt x="596" y="850" on="1"/>
        <pt x="652" y="842" on="0"/>
        <pt x="821" y="842" on="0"/>
        <pt x="979" y="865" on="0"/>
        <pt x="1130" y="909" on="0"/>
        <pt x="1264" y="973" on="0"/>
        <pt x="1314" y="1014" on="1"/>
        <pt x="1424" y="1104" on="0"/>
        <pt x="1424" y="1213" on="1"/>
        <pt x="1424" y="1284" on="0"/>
        <pt x="1352" y="1329" on="1"/>
        <pt x="1277" y="1376" on="0"/>
        <pt x="1086" y="1376" on="0"/>
        <pt x="950" y="1328" on="0"/>
        <pt x="825" y="1248" on="0"/>
        <pt x="719" y="1144" on="0"/>
        <pt x="680" y="1087" on="1"/>
        <pt x="596" y="967" on="0"/>
        <pt x="596" y="864" on="1"/>
      </contour>
      <contour>
        <pt x="655" y="718" on="1"/>
        <pt x="724" y="640" on="0"/>
        <pt x="796" y="640" on="1"/>
        <pt x="812" y="640" on="0"/>
        <pt x="812" y="660" on="0"/>
        <pt x="787" y="681" on="0"/>
        <pt x="766" y="691" on="1"/>
        <pt x="717" y="714" on="0"/>
      </contour>
      <contour>
        <pt x="278" y="24" on="1"/>
        <pt x="298" y="22" on="0"/>
        <pt x="372" y="22" on="0"/>
        <pt x="484" y="58" on="0"/>
        <pt x="591" y="117" on="0"/>
        <pt x="686" y="194" on="0"/>
        <pt x="722" y="236" on="1"/>
        <pt x="799" y="326" on="0"/>
        <pt x="799" y="394" on="1"/>
        <pt x="799" y="436" on="0"/>
        <pt x="737" y="480" on="0"/>
        <pt x="629" y="480" on="0"/>
        <pt x="492" y="415" on="0"/>
        <pt x="432" y="355" on="1"/>
        <pt x="297" y="218" on="0"/>
      </contour>
    </TTGlyph>
    <TTGlyph name="Egrave" xMin="-52" yMin="-285" xMax="1461" yMax="1768">
      <contour>
        <pt x="1376" y="1471" on="1"/>
        <pt x="1376" y="1459" on="0"/>
        <pt x="1366" y="1459" on="1"/>
        <pt x="1354" y="1459" on="0"/>
        <pt x="1270" y="1506" on="0"/>
        <pt x="1193" y="1567" on="0"/>
        <pt x="1164" y="1598" on="1"/>
        <pt x="1100" y="1666" on="0"/>
        <pt x="1100" y="1768" on="0"/>
        <pt x="1186" y="1768" on="0"/>
        <pt x="1198" y="1697" on="1"/>
        <pt x="1211" y="1632" on="0"/>
        <pt x="1235" y="1597" on="1"/>
        <pt x="1276" y="1536" on="0"/>
        <pt x="1351" y="1495" on="1"/>
        <pt x="1370" y="1480" on="1"/>
        <pt x="1376" y="1476" on="0"/>
      </contour>
      <contour>
        <pt x="343" y="-272" on="0"/>
        <pt x="343" y="-285" on="0"/>
        <pt x="331" y="-285" on="1"/>
        <pt x="290" y="-285" on="0"/>
        <pt x="264" y="-162" on="1"/>
        <pt x="249" y="-98" on="0"/>
        <pt x="247" y="-28" on="1"/>
        <pt x="247" y="1" on="1"/>
        <pt x="113" y="15" on="0"/>
        <pt x="30" y="88" on="1"/>
        <pt x="-50" y="158" on="0"/>
        <pt x="-52" y="262" on="1"/>
        <pt x="-56" y="388" on="0"/>
        <pt x="25" y="504" on="1"/>
        <pt x="145" y="677" on="0"/>
        <pt x="385" y="734" on="1"/>
        <pt x="463" y="752" on="0"/>
        <pt x="549" y="752" on="1"/>
        <pt x="555" y="752" on="1"/>
        <pt x="528" y="789" on="0"/>
        <pt x="516" y="837" on="1"/>
        <pt x="359" y="871" on="0"/>
        <pt x="162" y="1016" on="0"/>
        <pt x="119" y="1113" on="1"/>
        <pt x="113" y="1124" on="0"/>
        <pt x="113" y="1150" on="0"/>
        <pt x="132" y="1150" on="0"/>
        <pt x="142" y="1126" on="1"/>
        <pt x="233" y="922" on="0"/>
        <pt x="511" y="864" on="1"/>
        <pt x="510" y="869" on="0"/>
        <pt x="510" y="881" on="0"/>
        <pt x="510" y="887" on="1"/>
        <pt x="508" y="1036" on="0"/>
        <pt x="604" y="1159" on="1"/>
        <pt x="738" y="1330" on="0"/>
        <pt x="977" y="1384" on="1"/>
        <pt x="1049" y="1401" on="0"/>
        <pt x="1119" y="1401" on="1"/>
        <pt x="1281" y="1401" on="0"/>
        <pt x="1461" y="1286" on="0"/>
        <pt x="1461" y="1183" on="1"/>
        <pt x="1461" y="1106" on="0"/>
        <pt x="1349" y="971" on="0"/>
        <pt x="1254" y="921" on="1"/>
        <pt x="1047" y="813" on="0"/>
        <pt x="764" y="813" on="1"/>
        <pt x="676" y="813" on="0"/>
        <pt x="600" y="823" on="1"/>
        <pt x="610" y="784" on="0"/>
        <pt x="633" y="748" on="1"/>
        <pt x="731" y="737" on="0"/>
        <pt x="832" y="680" on="0"/>
        <pt x="833" y="649" on="1"/>
        <pt x="833" y="617" on="0"/>
        <pt x="784" y="617" on="1"/>
        <pt x="677" y="617" on="0"/>
        <pt x="584" y="716" on="1"/>
        <pt x="390" y="695" on="0"/>
        <pt x="219" y="540" on="1"/>
        <pt x="114" y="443" on="0"/>
        <pt x="72" y="336" on="1"/>
        <pt x="51" y="281" on="0"/>
        <pt x="54" y="149" on="0"/>
        <pt x="153" y="42" on="0"/>
        <pt x="249" y="27" on="1"/>
        <pt x="265" y="211" on="0"/>
        <pt x="395" y="356" on="1"/>
        <pt x="528" y="505" on="0"/>
        <pt x="689" y="505" on="1"/>
        <pt x="752" y="505" on="0"/>
        <pt x="845" y="423" on="0"/>
        <pt x="845" y="289" on="0"/>
        <pt x="763" y="154" on="0"/>
        <pt x="691" y="104" on="1"/>
        <pt x="536" y="-2" on="0"/>
        <pt x="313" y="-2" on="1"/>
        <pt x="277" y="-1" on="1"/>
        <pt x="276" y="-9" on="0"/>
        <pt x="276" y="-16" on="1"/>
        <pt x="276" y="-31" on="1"/>
        <pt x="276" y="-133" on="0"/>
        <pt x="310" y="-219" on="1"/>
        <pt x="322" y="-251" on="0"/>
      </contour>
      <contour>
        <pt x="596" y="850" on="1"/>
        <pt x="652" y="842" on="0"/>
        <pt x="821" y="842" on="0"/>
        <pt x="979" y="865" on="0"/>
        <pt x="1130" y="909" on="0"/>
        <pt x="1264" y="973" on="0"/>
        <pt x="1314" y="1014" on="1"/>
        <pt x="1424" y="1104" on="0"/>
        <pt x="1424" y="1213" on="1"/>
        <pt x="1424" y="1284" on="0"/>
        <pt x="1352" y="1329" on="1"/>
        <pt x="1277" y="1376" on="0"/>
        <pt x="1086" y="1376" on="0"/>
        <pt x="950" y="1328" on="0"/>
        <pt x="825" y="1248" on="0"/>
        <pt x="719" y="1144" on="0"/>
        <pt x="680" y="1087" on="1"/>
        <pt x="596" y="967" on="0"/>
        <pt x="596" y="864" on="1"/>
      </contour>
      <contour>
        <pt x="655" y="718" on="1"/>
        <pt x="724" y="640" on="0"/>
        <pt x="796" y="640" on="1"/>
        <pt x="812" y="640" on="0"/>
        <pt x="812" y="660" on="0"/>
        <pt x="787" y="681" on="0"/>
        <pt x="766" y="691" on="1"/>
        <pt x="717" y="714" on="0"/>
      </contour>
      <contour>
        <pt x="278" y="24" on="1"/>
        <pt x="298" y="22" on="0"/>
        <pt x="372" y="22" on="0"/>
        <pt x="484" y="58" on="0"/>
        <pt x="591" y="117" on="0"/>
        <pt x="686" y="194" on="0"/>
        <pt x="722" y="236" on="1"/>
        <pt x="799" y="326" on="0"/>
        <pt x="799" y="394" on="1"/>
        <pt x="799" y="436" on="0"/>
        <pt x="737" y="480" on="0"/>
        <pt x="629" y="480" on="0"/>
        <pt x="492" y="415" on="0"/>
        <pt x="432" y="355" on="1"/>
        <pt x="297" y="218" on="0"/>
      </contour>
    </TTGlyph>
    <TTGlyph name="Eth" xMin="-34" yMin="-6" xMax="1984" yMax="1384">
      <contour>
        <pt x="503" y="49" on="1"/>
        <pt x="334" y="-6" on="0"/>
        <pt x="146" y="-6" on="1"/>
        <pt x="12" y="-6" on="0"/>
        <pt x="-24" y="41" on="1"/>
        <pt x="-34" y="54" on="0"/>
        <pt x="-34" y="83" on="0"/>
        <pt x="-7" y="113" on="0"/>
        <pt x="19" y="126" on="1"/>
        <pt x="78" y="154" on="0"/>
        <pt x="198" y="154" on="0"/>
        <pt x="252" y="148" on="0"/>
        <pt x="284" y="142" on="1"/>
        <pt x="340" y="130" on="0"/>
        <pt x="452" y="97" on="0"/>
        <pt x="458" y="97" on="0"/>
        <pt x="462" y="95" on="1"/>
        <pt x="585" y="163" on="0"/>
        <pt x="750" y="332" on="1"/>
        <pt x="872" y="466" on="1"/>
        <pt x="754" y="466" on="1"/>
        <pt x="776" y="483" on="0"/>
        <pt x="782" y="500" on="1"/>
        <pt x="902" y="500" on="1"/>
        <pt x="902" y="500" on="0"/>
        <pt x="1183" y="836" on="1"/>
        <pt x="1273" y="935" on="1"/>
        <pt x="1320" y="985" on="0"/>
        <pt x="1441" y="1099" on="0"/>
        <pt x="1523" y="1154" on="1"/>
        <pt x="1389" y="1360" on="0"/>
        <pt x="1054" y="1360" on="1"/>
        <pt x="867" y="1360" on="0"/>
        <pt x="680" y="1256" on="1"/>
        <pt x="511" y="1161" on="0"/>
        <pt x="400" y="1017" on="1"/>
        <pt x="291" y="875" on="0"/>
        <pt x="291" y="757" on="1"/>
        <pt x="291" y="685" on="0"/>
        <pt x="390" y="597" on="0"/>
        <pt x="532" y="597" on="0"/>
        <pt x="665" y="645" on="0"/>
        <pt x="804" y="728" on="0"/>
        <pt x="940" y="840" on="0"/>
        <pt x="994" y="904" on="1"/>
        <pt x="1113" y="1045" on="0"/>
        <pt x="1122" y="1173" on="1"/>
        <pt x="1125" y="1196" on="0"/>
        <pt x="1133" y="1196" on="1"/>
        <pt x="1145" y="1196" on="0"/>
        <pt x="1145" y="1175" on="1"/>
        <pt x="1145" y="1032" on="0"/>
        <pt x="1048" y="890" on="1"/>
        <pt x="900" y="671" on="0"/>
        <pt x="646" y="594" on="1"/>
        <pt x="564" y="569" on="0"/>
        <pt x="432" y="569" on="0"/>
        <pt x="344" y="599" on="0"/>
        <pt x="310" y="627" on="1"/>
        <pt x="233" y="689" on="0"/>
        <pt x="233" y="854" on="0"/>
        <pt x="291" y="1002" on="0"/>
        <pt x="397" y="1136" on="0"/>
        <pt x="546" y="1251" on="0"/>
        <pt x="636" y="1294" on="1"/>
        <pt x="829" y="1384" on="0"/>
        <pt x="1048" y="1384" on="1"/>
        <pt x="1396" y="1384" on="0"/>
        <pt x="1560" y="1178" on="1"/>
        <pt x="1788" y="1322" on="0"/>
        <pt x="1969" y="1330" on="1"/>
        <pt x="1984" y="1330" on="0"/>
        <pt x="1984" y="1314" on="0"/>
        <pt x="1974" y="1309" on="0"/>
        <pt x="1951" y="1305" on="1"/>
        <pt x="1775" y="1284" on="0"/>
        <pt x="1594" y="1128" on="1"/>
        <pt x="1668" y="1005" on="0"/>
        <pt x="1668" y="717" on="0"/>
        <pt x="1602" y="497" on="0"/>
        <pt x="1486" y="310" on="0"/>
        <pt x="1325" y="160" on="0"/>
        <pt x="1230" y="108" on="1"/>
        <pt x="1030" y="-2" on="0"/>
        <pt x="811" y="-2" on="1"/>
        <pt x="674" y="-2" on="0"/>
      </contour>
      <contour>
        <pt x="1343" y="500" on="1"/>
        <pt x="1336" y="493" on="0"/>
        <pt x="1327" y="466" on="1"/>
        <pt x="1062" y="466" on="1"/>
        <pt x="943" y="323" on="0"/>
        <pt x="855" y="252" on="1"/>
        <pt x="696" y="124" on="0"/>
        <pt x="551" y="67" on="1"/>
        <pt x="678" y="28" on="0"/>
        <pt x="914" y="28" on="0"/>
        <pt x="1107" y="83" on="0"/>
        <pt x="1282" y="184" on="0"/>
        <pt x="1432" y="329" on="0"/>
        <pt x="1487" y="418" on="1"/>
        <pt x="1604" y="609" on="0"/>
        <pt x="1604" y="836" on="1"/>
        <pt x="1604" y="987" on="0"/>
        <pt x="1555" y="1094" on="1"/>
        <pt x="1443" y="990" on="0"/>
        <pt x="1358" y="867" on="1"/>
        <pt x="1213" y="662" on="1"/>
        <pt x="1153" y="578" on="0"/>
        <pt x="1090" y="500" on="1"/>
      </contour>
      <contour>
        <pt x="417" y="73" on="1"/>
        <pt x="269" y="111" on="0"/>
        <pt x="79" y="111" on="0"/>
        <pt x="-6" y="85" on="0"/>
        <pt x="-6" y="68" on="1"/>
        <pt x="-6" y="26" on="0"/>
        <pt x="163" y="26" on="1"/>
        <pt x="311" y="26" on="0"/>
      </contour>
    </TTGlyph>
    <TTGlyph name="Euro" xMin="201" yMin="-2" xMax="1677" yMax="1384">
      <contour>
        <pt x="1168" y="440" on="0"/>
        <pt x="1168" y="411" on="0"/>
        <pt x="1157" y="400" on="1"/>
        <pt x="1028" y="245" on="0"/>
        <pt x="868" y="141" on="1"/>
        <pt x="648" y="-2" on="0"/>
        <pt x="453" y="-2" on="1"/>
        <pt x="272" y="-2" on="0"/>
        <pt x="218" y="126" on="1"/>
        <pt x="201" y="168" on="0"/>
        <pt x="201" y="223" on="1"/>
        <pt x="201" y="411" on="0"/>
        <pt x="340" y="634" on="1"/>
        <pt x="203" y="634" on="1"/>
        <pt x="220" y="647" on="0"/>
        <pt x="228" y="662" on="1"/>
        <pt x="358" y="662" on="1"/>
        <pt x="379" y="694" on="0"/>
        <pt x="402" y="725" on="1"/>
        <pt x="450" y="788" on="1"/>
        <pt x="284" y="788" on="1"/>
        <pt x="301" y="802" on="0"/>
        <pt x="309" y="816" on="1"/>
        <pt x="473" y="816" on="1"/>
        <pt x="674" y="1057" on="0"/>
        <pt x="936" y="1216" on="1"/>
        <pt x="1213" y="1384" on="0"/>
        <pt x="1440" y="1384" on="1"/>
        <pt x="1612" y="1384" on="0"/>
        <pt x="1662" y="1287" on="1"/>
        <pt x="1677" y="1258" on="0"/>
        <pt x="1677" y="1189" on="0"/>
        <pt x="1658" y="1141" on="0"/>
        <pt x="1644" y="1126" on="1"/>
        <pt x="1619" y="1099" on="0"/>
        <pt x="1571" y="1099" on="0"/>
        <pt x="1547" y="1130" on="0"/>
        <pt x="1547" y="1167" on="0"/>
        <pt x="1598" y="1203" on="0"/>
        <pt x="1635" y="1205" on="1"/>
        <pt x="1637" y="1215" on="0"/>
        <pt x="1637" y="1260" on="0"/>
        <pt x="1608" y="1313" on="0"/>
        <pt x="1582" y="1330" on="1"/>
        <pt x="1531" y="1362" on="0"/>
        <pt x="1402" y="1362" on="0"/>
        <pt x="1287" y="1321" on="0"/>
        <pt x="1156" y="1247" on="0"/>
        <pt x="1013" y="1146" on="0"/>
        <pt x="940" y="1085" on="1"/>
        <pt x="780" y="953" on="0"/>
        <pt x="651" y="816" on="1"/>
        <pt x="1016" y="816" on="1"/>
        <pt x="1006" y="803" on="0"/>
        <pt x="1004" y="788" on="1"/>
        <pt x="625" y="788" on="1"/>
        <pt x="566" y="725" on="0"/>
        <pt x="514" y="662" on="1"/>
        <pt x="935" y="662" on="1"/>
        <pt x="930" y="656" on="0"/>
        <pt x="923" y="634" on="1"/>
        <pt x="491" y="634" on="1"/>
        <pt x="254" y="339" on="0"/>
        <pt x="254" y="184" on="1"/>
        <pt x="254" y="112" on="0"/>
        <pt x="357" y="21" on="0"/>
        <pt x="446" y="21" on="1"/>
        <pt x="630" y="21" on="0"/>
        <pt x="854" y="169" on="1"/>
        <pt x="1013" y="275" on="0"/>
        <pt x="1122" y="416" on="1"/>
        <pt x="1143" y="440" on="0"/>
      </contour>
    </TTGlyph>
    <TTGlyph name="F" xMin="-143" yMin="-1" xMax="2094" yMax="1574">
      <contour>
        <pt x="398" y="961" on="1"/>
        <pt x="398" y="852" on="0"/>
        <pt x="504" y="852" on="1"/>
        <pt x="639" y="852" on="0"/>
        <pt x="788" y="980" on="1"/>
        <pt x="875" y="1055" on="0"/>
        <pt x="941" y="1176" on="0"/>
        <pt x="944" y="1198" on="1"/>
        <pt x="948" y="1231" on="0"/>
        <pt x="954" y="1231" on="1"/>
        <pt x="964" y="1231" on="0"/>
        <pt x="964" y="1160" on="0"/>
        <pt x="928" y="1063" on="0"/>
        <pt x="865" y="975" on="0"/>
        <pt x="782" y="900" on="0"/>
        <pt x="734" y="872" on="1"/>
        <pt x="633" y="814" on="0"/>
        <pt x="459" y="814" on="0"/>
        <pt x="369" y="885" on="0"/>
        <pt x="369" y="1014" on="0"/>
        <pt x="444" y="1142" on="0"/>
        <pt x="514" y="1200" on="1"/>
        <pt x="664" y="1325" on="0"/>
        <pt x="902" y="1382" on="1"/>
        <pt x="1043" y="1414" on="0"/>
        <pt x="1263" y="1414" on="1"/>
        <pt x="1335" y="1414" on="0"/>
        <pt x="1435" y="1402" on="1"/>
        <pt x="1628" y="1379" on="0"/>
        <pt x="1767" y="1379" on="0"/>
        <pt x="1883" y="1405" on="0"/>
        <pt x="1928" y="1429" on="1"/>
        <pt x="2015" y="1475" on="0"/>
        <pt x="2063" y="1557" on="1"/>
        <pt x="2074" y="1574" on="0"/>
        <pt x="2094" y="1574" on="0"/>
        <pt x="2094" y="1568" on="1"/>
        <pt x="2094" y="1557" on="0"/>
        <pt x="2085" y="1547" on="1"/>
        <pt x="1924" y="1290" on="0"/>
        <pt x="1571" y="1290" on="1"/>
        <pt x="1486" y="1290" on="0"/>
        <pt x="1355" y="1306" on="1"/>
        <pt x="1101" y="1337" on="0"/>
        <pt x="941" y="1337" on="0"/>
        <pt x="790" y="1306" on="0"/>
        <pt x="652" y="1252" on="0"/>
        <pt x="534" y="1179" on="0"/>
        <pt x="490" y="1137" on="1"/>
        <pt x="398" y="1048" on="0"/>
      </contour>
      <contour>
        <pt x="1" y="162" on="0"/>
        <pt x="-33" y="132" on="0"/>
        <pt x="-86" y="132" on="0"/>
        <pt x="-103" y="142" on="1"/>
        <pt x="-103" y="137" on="1"/>
        <pt x="-103" y="89" on="0"/>
        <pt x="-45" y="57" on="1"/>
        <pt x="11" y="26" on="0"/>
        <pt x="141" y="26" on="0"/>
        <pt x="236" y="44" on="0"/>
        <pt x="338" y="92" on="0"/>
        <pt x="449" y="177" on="0"/>
        <pt x="510" y="244" on="1"/>
        <pt x="639" y="384" on="0"/>
        <pt x="784" y="628" on="1"/>
        <pt x="787" y="634" on="0"/>
        <pt x="789" y="636" on="1"/>
        <pt x="451" y="561" on="0"/>
        <pt x="302" y="426" on="1"/>
        <pt x="258" y="387" on="0"/>
        <pt x="244" y="362" on="1"/>
        <pt x="224" y="328" on="0"/>
        <pt x="210" y="328" on="0"/>
        <pt x="210" y="333" on="1"/>
        <pt x="210" y="345" on="0"/>
        <pt x="217" y="353" on="1"/>
        <pt x="255" y="444" on="0"/>
        <pt x="418" y="536" on="1"/>
        <pt x="585" y="629" on="0"/>
        <pt x="809" y="676" on="1"/>
        <pt x="812" y="676" on="0"/>
        <pt x="814" y="677" on="1"/>
        <pt x="979" y="935" on="0"/>
        <pt x="1200" y="1090" on="1"/>
        <pt x="1384" y="1219" on="0"/>
        <pt x="1507" y="1219" on="1"/>
        <pt x="1530" y="1219" on="0"/>
        <pt x="1530" y="1205" on="0"/>
        <pt x="1514" y="1202" on="0"/>
        <pt x="1429" y="1177" on="0"/>
        <pt x="1301" y="1095" on="0"/>
        <pt x="1234" y="1034" on="1"/>
        <pt x="1098" y="909" on="0"/>
        <pt x="971" y="715" on="1"/>
        <pt x="1112" y="751" on="0"/>
        <pt x="1182" y="776" on="1"/>
        <pt x="1203" y="790" on="0"/>
        <pt x="1216" y="816" on="1"/>
        <pt x="1256" y="816" on="0"/>
        <pt x="1359" y="804" on="0"/>
        <pt x="1368" y="801" on="1"/>
        <pt x="1252" y="748" on="0"/>
        <pt x="1156" y="606" on="1"/>
        <pt x="1125" y="561" on="0"/>
        <pt x="1102" y="503" on="0"/>
        <pt x="1095" y="497" on="0"/>
        <pt x="1090" y="497" on="1"/>
        <pt x="1078" y="497" on="0"/>
        <pt x="1078" y="511" on="1"/>
        <pt x="1078" y="533" on="0"/>
        <pt x="1148" y="686" on="0"/>
        <pt x="1173" y="724" on="1"/>
        <pt x="1133" y="711" on="0"/>
        <pt x="1070" y="697" on="1"/>
        <pt x="942" y="669" on="1"/>
        <pt x="847" y="502" on="0"/>
        <pt x="611" y="216" on="0"/>
        <pt x="510" y="140" on="1"/>
        <pt x="323" y="-1" on="0"/>
        <pt x="89" y="-1" on="1"/>
        <pt x="-1" y="-1" on="0"/>
        <pt x="-70" y="42" on="1"/>
        <pt x="-143" y="87" on="0"/>
        <pt x="-143" y="145" on="1"/>
        <pt x="-143" y="207" on="0"/>
        <pt x="-82" y="224" on="1"/>
        <pt x="-65" y="228" on="0"/>
        <pt x="-33" y="228" on="0"/>
        <pt x="1" y="206" on="0"/>
      </contour>
    </TTGlyph>
    <TTGlyph name="G" xMin="-143" yMin="-3" xMax="1354" yMax="1440">
      <contour>
        <pt x="1200" y="961" on="1"/>
        <pt x="1224" y="961" on="0"/>
        <pt x="1224" y="950" on="1"/>
        <pt x="1224" y="941" on="0"/>
        <pt x="1179" y="920" on="0"/>
        <pt x="1117" y="867" on="0"/>
        <pt x="1041" y="777" on="0"/>
        <pt x="994" y="710" on="1"/>
        <pt x="885" y="548" on="1"/>
        <pt x="532" y="-3" on="0"/>
        <pt x="99" y="-3" on="1"/>
        <pt x="1" y="-3" on="0"/>
        <pt x="-143" y="82" on="0"/>
        <pt x="-143" y="141" on="1"/>
        <pt x="-143" y="204" on="0"/>
        <pt x="-82" y="220" on="1"/>
        <pt x="-65" y="225" on="0"/>
        <pt x="-33" y="225" on="0"/>
        <pt x="1" y="204" on="0"/>
        <pt x="1" y="159" on="0"/>
        <pt x="-33" y="130" on="0"/>
        <pt x="-88" y="130" on="0"/>
        <pt x="-103" y="139" on="1"/>
        <pt x="-103" y="133" on="1"/>
        <pt x="-103" y="58" on="0"/>
        <pt x="20" y="32" on="1"/>
        <pt x="59" y="23" on="0"/>
        <pt x="168" y="23" on="0"/>
        <pt x="292" y="67" on="0"/>
        <pt x="360" y="118" on="1"/>
        <pt x="497" y="223" on="0"/>
        <pt x="677" y="462" on="1"/>
        <pt x="744" y="547" on="0"/>
        <pt x="782" y="591" on="1"/>
        <pt x="879" y="702" on="0"/>
        <pt x="910" y="736" on="1"/>
        <pt x="621" y="529" on="0"/>
        <pt x="446" y="529" on="1"/>
        <pt x="372" y="529" on="0"/>
        <pt x="346" y="548" on="1"/>
        <pt x="299" y="581" on="0"/>
        <pt x="299" y="645" on="1"/>
        <pt x="299" y="663" on="0"/>
        <pt x="304" y="698" on="1"/>
        <pt x="266" y="695" on="0"/>
        <pt x="216" y="695" on="1"/>
        <pt x="108" y="695" on="0"/>
        <pt x="22" y="743" on="1"/>
        <pt x="-5" y="756" on="0"/>
        <pt x="-5" y="774" on="0"/>
        <pt x="9" y="774" on="0"/>
        <pt x="44" y="754" on="0"/>
        <pt x="93" y="735" on="0"/>
        <pt x="120" y="728" on="1"/>
        <pt x="169" y="715" on="0"/>
        <pt x="275" y="715" on="0"/>
        <pt x="308" y="718" on="1"/>
        <pt x="345" y="874" on="0"/>
        <pt x="510" y="1048" on="1"/>
        <pt x="664" y="1212" on="0"/>
        <pt x="868" y="1324" on="1"/>
        <pt x="1076" y="1440" on="0"/>
        <pt x="1233" y="1440" on="1"/>
        <pt x="1299" y="1440" on="0"/>
        <pt x="1354" y="1398" on="0"/>
        <pt x="1354" y="1295" on="0"/>
        <pt x="1263" y="1160" on="0"/>
        <pt x="1180" y="1089" on="1"/>
        <pt x="1009" y="941" on="0"/>
        <pt x="730" y="812" on="1"/>
        <pt x="572" y="742" on="0"/>
        <pt x="413" y="712" on="1"/>
        <pt x="381" y="650" on="0"/>
        <pt x="381" y="599" on="0"/>
        <pt x="389" y="580" on="0"/>
        <pt x="398" y="572" on="1"/>
        <pt x="419" y="555" on="0"/>
        <pt x="506" y="555" on="0"/>
        <pt x="616" y="588" on="0"/>
        <pt x="686" y="625" on="1"/>
        <pt x="833" y="702" on="0"/>
        <pt x="1047" y="868" on="1"/>
        <pt x="1162" y="961" on="0"/>
      </contour>
      <contour>
        <pt x="1330" y="1363" on="1"/>
        <pt x="1330" y="1417" on="0"/>
        <pt x="1252" y="1417" on="1"/>
        <pt x="1078" y="1417" on="0"/>
        <pt x="799" y="1174" on="1"/>
        <pt x="621" y="1018" on="0"/>
        <pt x="493" y="841" on="1"/>
        <pt x="454" y="787" on="0"/>
        <pt x="427" y="739" on="1"/>
        <pt x="565" y="772" on="0"/>
        <pt x="870" y="929" on="0"/>
        <pt x="1086" y="1080" on="0"/>
        <pt x="1164" y="1150" on="1"/>
        <pt x="1330" y="1297" on="0"/>
      </contour>
    </TTGlyph>
    <TTGlyph name="H" xMin="-329" yMin="-2" xMax="2094" yMax="1410">
      <contour>
        <pt x="-186" y="150" on="0"/>
        <pt x="-220" y="121" on="0"/>
        <pt x="-275" y="121" on="0"/>
        <pt x="-290" y="130" on="1"/>
        <pt x="-290" y="124" on="1"/>
        <pt x="-290" y="80" on="0"/>
        <pt x="-205" y="24" on="0"/>
        <pt x="-147" y="24" on="1"/>
        <pt x="-14" y="24" on="0"/>
        <pt x="112" y="118" on="1"/>
        <pt x="205" y="187" on="0"/>
        <pt x="303" y="299" on="1"/>
        <pt x="490" y="523" on="1"/>
        <pt x="461" y="515" on="0"/>
        <pt x="434" y="506" on="1"/>
        <pt x="383" y="490" on="1"/>
        <pt x="101" y="392" on="0"/>
        <pt x="9" y="250" on="1"/>
        <pt x="4" y="241" on="0"/>
        <pt x="-9" y="241" on="0"/>
        <pt x="-6" y="252" on="0"/>
        <pt x="-5" y="259" on="0"/>
        <pt x="12" y="294" on="0"/>
        <pt x="66" y="347" on="0"/>
        <pt x="100" y="372" on="1"/>
        <pt x="210" y="452" on="0"/>
        <pt x="415" y="526" on="0"/>
        <pt x="515" y="555" on="1"/>
        <pt x="576" y="639" on="0"/>
        <pt x="634" y="712" on="1"/>
        <pt x="782" y="890" on="0"/>
        <pt x="831" y="943" on="1"/>
        <pt x="831" y="943" on="0"/>
        <pt x="912" y="1029" on="1"/>
        <pt x="736" y="920" on="0"/>
        <pt x="628" y="920" on="1"/>
        <pt x="577" y="920" on="0"/>
        <pt x="510" y="969" on="0"/>
        <pt x="510" y="1044" on="0"/>
        <pt x="522" y="1092" on="0"/>
        <pt x="538" y="1118" on="1"/>
        <pt x="569" y="1169" on="0"/>
        <pt x="648" y="1231" on="1"/>
        <pt x="699" y="1271" on="0"/>
        <pt x="707" y="1293" on="0"/>
        <pt x="707" y="1298" on="1"/>
        <pt x="707" y="1328" on="0"/>
        <pt x="644" y="1366" on="0"/>
        <pt x="572" y="1366" on="1"/>
        <pt x="413" y="1366" on="0"/>
        <pt x="294" y="1257" on="1"/>
        <pt x="278" y="1243" on="0"/>
        <pt x="258" y="1243" on="0"/>
        <pt x="258" y="1250" on="1"/>
        <pt x="258" y="1260" on="0"/>
        <pt x="276" y="1278" on="1"/>
        <pt x="400" y="1387" on="0"/>
        <pt x="576" y="1387" on="1"/>
        <pt x="660" y="1387" on="0"/>
        <pt x="751" y="1326" on="0"/>
        <pt x="751" y="1273" on="1"/>
        <pt x="751" y="1212" on="0"/>
        <pt x="726" y="1174" on="1"/>
        <pt x="683" y="1106" on="0"/>
        <pt x="597" y="1051" on="1"/>
        <pt x="565" y="1031" on="0"/>
        <pt x="547" y="1010" on="0"/>
        <pt x="547" y="989" on="0"/>
        <pt x="556" y="972" on="0"/>
        <pt x="567" y="964" on="1"/>
        <pt x="593" y="947" on="0"/>
        <pt x="672" y="947" on="0"/>
        <pt x="754" y="971" on="0"/>
        <pt x="800" y="994" on="1"/>
        <pt x="899" y="1044" on="0"/>
        <pt x="979" y="1115" on="1"/>
        <pt x="1208" y="1314" on="0"/>
        <pt x="1298" y="1373" on="0"/>
        <pt x="1318" y="1383" on="1"/>
        <pt x="1348" y="1397" on="1"/>
        <pt x="1356" y="1401" on="0"/>
        <pt x="1375" y="1401" on="0"/>
        <pt x="1375" y="1392" on="0"/>
        <pt x="1366" y="1387" on="0"/>
        <pt x="1350" y="1377" on="0"/>
        <pt x="1339" y="1371" on="0"/>
        <pt x="1331" y="1366" on="1"/>
        <pt x="1281" y="1330" on="1"/>
        <pt x="1186" y="1252" on="0"/>
        <pt x="1096" y="1139" on="1"/>
        <pt x="939" y="936" on="1"/>
        <pt x="798" y="741" on="1"/>
        <pt x="688" y="602" on="1"/>
        <pt x="1075" y="698" on="1"/>
        <pt x="1126" y="759" on="1"/>
        <pt x="1345" y="1016" on="0"/>
        <pt x="1615" y="1216" on="1"/>
        <pt x="1879" y="1410" on="0"/>
        <pt x="2004" y="1410" on="1"/>
        <pt x="2049" y="1410" on="0"/>
        <pt x="2094" y="1369" on="0"/>
        <pt x="2094" y="1306" on="0"/>
        <pt x="2039" y="1212" on="0"/>
        <pt x="1934" y="1103" on="0"/>
        <pt x="1782" y="985" on="0"/>
        <pt x="1686" y="927" on="1"/>
        <pt x="1470" y="797" on="0"/>
        <pt x="1226" y="718" on="1"/>
        <pt x="968" y="405" on="0"/>
        <pt x="879" y="212" on="1"/>
        <pt x="850" y="150" on="0"/>
        <pt x="850" y="66" on="0"/>
        <pt x="888" y="23" on="0"/>
        <pt x="989" y="23" on="0"/>
        <pt x="1110" y="88" on="0"/>
        <pt x="1166" y="148" on="1"/>
        <pt x="1290" y="281" on="0"/>
        <pt x="1350" y="480" on="1"/>
        <pt x="1359" y="510" on="0"/>
        <pt x="1374" y="510" on="1"/>
        <pt x="1382" y="510" on="0"/>
        <pt x="1389" y="445" on="0"/>
        <pt x="1356" y="345" on="0"/>
        <pt x="1294" y="238" on="0"/>
        <pt x="1205" y="133" on="0"/>
        <pt x="1153" y="91" on="1"/>
        <pt x="1038" y="-2" on="0"/>
        <pt x="926" y="-2" on="1"/>
        <pt x="836" y="-2" on="0"/>
        <pt x="806" y="81" on="1"/>
        <pt x="797" y="104" on="0"/>
        <pt x="797" y="175" on="0"/>
        <pt x="821" y="286" on="0"/>
        <pt x="850" y="352" on="1"/>
        <pt x="914" y="493" on="0"/>
        <pt x="1050" y="667" on="1"/>
        <pt x="959" y="641" on="0"/>
        <pt x="858" y="617" on="1"/>
        <pt x="660" y="568" on="1"/>
        <pt x="512" y="397" on="1"/>
        <pt x="370" y="241" on="0"/>
        <pt x="191" y="103" on="0"/>
        <pt x="128" y="67" on="1"/>
        <pt x="6" y="-2" on="0"/>
        <pt x="-139" y="-2" on="1"/>
        <pt x="-218" y="-2" on="0"/>
        <pt x="-274" y="37" on="1"/>
        <pt x="-329" y="76" on="0"/>
        <pt x="-329" y="132" on="1"/>
        <pt x="-329" y="194" on="0"/>
        <pt x="-268" y="210" on="1"/>
        <pt x="-251" y="215" on="0"/>
        <pt x="-236" y="215" on="1"/>
        <pt x="-186" y="215" on="0"/>
        <pt x="-186" y="170" on="1"/>
      </contour>
      <contour>
        <pt x="1256" y="753" on="1"/>
        <pt x="1576" y="876" on="0"/>
        <pt x="1826" y="1078" on="1"/>
        <pt x="1974" y="1198" on="0"/>
        <pt x="2031" y="1285" on="1"/>
        <pt x="2059" y="1328" on="0"/>
        <pt x="2059" y="1355" on="1"/>
        <pt x="2059" y="1389" on="0"/>
        <pt x="1972" y="1389" on="0"/>
        <pt x="1868" y="1339" on="0"/>
        <pt x="1745" y="1252" on="0"/>
        <pt x="1608" y="1131" on="0"/>
        <pt x="1466" y="990" on="0"/>
        <pt x="1394" y="912" on="1"/>
      </contour>
    </TTGlyph>
    <TTGlyph name="I" xMin="-317" yMin="-2" xMax="1716" yMax="1392">
      <contour>
        <pt x="1177" y="771" on="0"/>
        <pt x="1237" y="943" on="0"/>
        <pt x="1237" y="1066" on="0"/>
        <pt x="1260" y="1066" on="0"/>
        <pt x="1260" y="921" on="0"/>
        <pt x="1200" y="746" on="0"/>
        <pt x="1098" y="595" on="0"/>
        <pt x="960" y="472" on="0"/>
        <pt x="882" y="428" on="1"/>
        <pt x="716" y="337" on="0"/>
        <pt x="556" y="337" on="1"/>
        <pt x="533" y="337" on="1"/>
        <pt x="284" y="94" on="0"/>
        <pt x="52" y="22" on="1"/>
        <pt x="-24" y="-2" on="0"/>
        <pt x="-143" y="-2" on="0"/>
        <pt x="-225" y="21" on="0"/>
        <pt x="-254" y="40" on="1"/>
        <pt x="-311" y="80" on="0"/>
        <pt x="-317" y="142" on="1"/>
        <pt x="-322" y="205" on="0"/>
        <pt x="-264" y="227" on="1"/>
        <pt x="-207" y="249" on="0"/>
        <pt x="-184" y="214" on="1"/>
        <pt x="-165" y="185" on="0"/>
        <pt x="-206" y="142" on="0"/>
        <pt x="-224" y="140" on="1"/>
        <pt x="-258" y="136" on="0"/>
        <pt x="-276" y="145" on="1"/>
        <pt x="-276" y="139" on="1"/>
        <pt x="-271" y="91" on="0"/>
        <pt x="-177" y="24" on="0"/>
        <pt x="-35" y="24" on="0"/>
        <pt x="79" y="58" on="0"/>
        <pt x="141" y="98" on="1"/>
        <pt x="262" y="175" on="0"/>
        <pt x="421" y="363" on="1"/>
        <pt x="288" y="425" on="0"/>
        <pt x="288" y="608" on="1"/>
        <pt x="288" y="794" on="0"/>
        <pt x="442" y="978" on="1"/>
        <pt x="596" y="1161" on="0"/>
        <pt x="844" y="1272" on="1"/>
        <pt x="1109" y="1392" on="0"/>
        <pt x="1402" y="1392" on="1"/>
        <pt x="1577" y="1378" on="1"/>
        <pt x="1679" y="1385" on="1"/>
        <pt x="1716" y="1385" on="0"/>
        <pt x="1716" y="1371" on="1"/>
        <pt x="1716" y="1354" on="0"/>
        <pt x="1645" y="1350" on="0"/>
        <pt x="1586" y="1351" on="0"/>
        <pt x="1560" y="1351" on="1"/>
        <pt x="1531" y="1344" on="0"/>
        <pt x="1510" y="1336" on="1"/>
        <pt x="1466" y="1320" on="1"/>
        <pt x="1169" y="1189" on="0"/>
        <pt x="813" y="673" on="1"/>
        <pt x="691" y="498" on="0"/>
        <pt x="560" y="365" on="1"/>
        <pt x="568" y="365" on="1"/>
        <pt x="710" y="365" on="0"/>
        <pt x="866" y="456" on="1"/>
        <pt x="1025" y="549" on="0"/>
        <pt x="1126" y="696" on="1"/>
      </contour>
      <contour>
        <pt x="1509" y="1358" on="1"/>
        <pt x="1457" y="1366" on="0"/>
        <pt x="1327" y="1366" on="0"/>
        <pt x="1153" y="1325" on="0"/>
        <pt x="973" y="1252" on="0"/>
        <pt x="796" y="1152" on="0"/>
        <pt x="634" y="1034" on="0"/>
        <pt x="496" y="905" on="0"/>
        <pt x="445" y="838" on="1"/>
        <pt x="336" y="696" on="0"/>
        <pt x="336" y="583" on="1"/>
        <pt x="336" y="429" on="0"/>
        <pt x="439" y="384" on="1"/>
        <pt x="543" y="515" on="0"/>
        <pt x="598" y="592" on="1"/>
        <pt x="863" y="957" on="0"/>
        <pt x="1114" y="1156" on="1"/>
        <pt x="1323" y="1322" on="0"/>
      </contour>
    </TTGlyph>
    <TTGlyph name="IJ" xMin="-317" yMin="-741" xMax="2780" yMax="1401">
      <contour>
        <pt x="1853" y="222" on="0"/>
        <pt x="1869" y="231" on="0"/>
        <pt x="1882" y="226" on="0"/>
        <pt x="1882" y="222" on="1"/>
        <pt x="1880" y="209" on="0"/>
        <pt x="1849" y="196" on="1"/>
        <pt x="1765" y="162" on="0"/>
        <pt x="1739" y="152" on="1"/>
        <pt x="1684" y="132" on="1"/>
        <pt x="1654" y="121" on="0"/>
        <pt x="1615" y="109" on="1"/>
        <pt x="1406" y="49" on="1"/>
        <pt x="944" y="-522" on="0"/>
        <pt x="663" y="-671" on="1"/>
        <pt x="531" y="-741" on="0"/>
        <pt x="413" y="-741" on="1"/>
        <pt x="368" y="-741" on="0"/>
        <pt x="350" y="-719" on="1"/>
        <pt x="321" y="-685" on="0"/>
        <pt x="321" y="-592" on="0"/>
        <pt x="386" y="-466" on="0"/>
        <pt x="506" y="-336" on="0"/>
        <pt x="676" y="-208" on="0"/>
        <pt x="781" y="-150" on="1"/>
        <pt x="1003" y="-26" on="0"/>
        <pt x="1265" y="46" on="1"/>
        <pt x="1486" y="347" on="1"/>
        <pt x="1425" y="380" on="0"/>
        <pt x="1345" y="500" on="0"/>
        <pt x="1345" y="688" on="0"/>
        <pt x="1430" y="893" on="0"/>
        <pt x="1582" y="1075" on="0"/>
        <pt x="1791" y="1228" on="0"/>
        <pt x="1914" y="1284" on="1"/>
        <pt x="2176" y="1401" on="0"/>
        <pt x="2456" y="1401" on="1"/>
        <pt x="2640" y="1387" on="1"/>
        <pt x="2742" y="1394" on="1"/>
        <pt x="2780" y="1394" on="0"/>
        <pt x="2780" y="1381" on="1"/>
        <pt x="2780" y="1359" on="0"/>
        <pt x="2688" y="1359" on="1"/>
        <pt x="2623" y="1360" on="1"/>
        <pt x="2450" y="1318" on="0"/>
        <pt x="2065" y="961" on="0"/>
        <pt x="1866" y="658" on="1"/>
        <pt x="1632" y="340" on="1"/>
        <pt x="1768" y="340" on="0"/>
        <pt x="1929" y="456" on="1"/>
        <pt x="2082" y="567" on="0"/>
        <pt x="2190" y="728" on="1"/>
        <pt x="2301" y="895" on="0"/>
        <pt x="2301" y="1035" on="1"/>
        <pt x="2301" y="1066" on="0"/>
        <pt x="2323" y="1066" on="0"/>
        <pt x="2323" y="938" on="0"/>
        <pt x="2266" y="769" on="0"/>
        <pt x="2166" y="612" on="0"/>
        <pt x="2030" y="475" on="0"/>
        <pt x="1952" y="424" on="1"/>
        <pt x="1785" y="313" on="0"/>
        <pt x="1621" y="313" on="1"/>
        <pt x="1611" y="313" on="1"/>
        <pt x="1487" y="149" on="0"/>
        <pt x="1440" y="92" on="1"/>
        <pt x="1560" y="124" on="1"/>
        <pt x="1699" y="161" on="0"/>
      </contour>
      <contour>
        <pt x="1177" y="771" on="0"/>
        <pt x="1237" y="943" on="0"/>
        <pt x="1237" y="1066" on="0"/>
        <pt x="1260" y="1066" on="0"/>
        <pt x="1260" y="921" on="0"/>
        <pt x="1200" y="746" on="0"/>
        <pt x="1098" y="595" on="0"/>
        <pt x="960" y="472" on="0"/>
        <pt x="882" y="428" on="1"/>
        <pt x="716" y="337" on="0"/>
        <pt x="556" y="337" on="1"/>
        <pt x="533" y="337" on="1"/>
        <pt x="284" y="94" on="0"/>
        <pt x="52" y="22" on="1"/>
        <pt x="-24" y="-2" on="0"/>
        <pt x="-143" y="-2" on="0"/>
        <pt x="-225" y="21" on="0"/>
        <pt x="-254" y="40" on="1"/>
        <pt x="-311" y="80" on="0"/>
        <pt x="-317" y="142" on="1"/>
        <pt x="-322" y="205" on="0"/>
        <pt x="-264" y="227" on="1"/>
        <pt x="-207" y="249" on="0"/>
        <pt x="-184" y="214" on="1"/>
        <pt x="-165" y="185" on="0"/>
        <pt x="-206" y="142" on="0"/>
        <pt x="-224" y="140" on="1"/>
        <pt x="-258" y="136" on="0"/>
        <pt x="-276" y="145" on="1"/>
        <pt x="-276" y="139" on="1"/>
        <pt x="-271" y="91" on="0"/>
        <pt x="-177" y="24" on="0"/>
        <pt x="-35" y="24" on="0"/>
        <pt x="79" y="58" on="0"/>
        <pt x="141" y="98" on="1"/>
        <pt x="262" y="175" on="0"/>
        <pt x="421" y="363" on="1"/>
        <pt x="288" y="425" on="0"/>
        <pt x="288" y="608" on="1"/>
        <pt x="288" y="794" on="0"/>
        <pt x="442" y="978" on="1"/>
        <pt x="596" y="1161" on="0"/>
        <pt x="844" y="1272" on="1"/>
        <pt x="1109" y="1392" on="0"/>
        <pt x="1402" y="1392" on="1"/>
        <pt x="1577" y="1378" on="1"/>
        <pt x="1679" y="1385" on="1"/>
        <pt x="1716" y="1385" on="0"/>
        <pt x="1716" y="1371" on="1"/>
        <pt x="1716" y="1354" on="0"/>
        <pt x="1645" y="1350" on="0"/>
        <pt x="1586" y="1351" on="0"/>
        <pt x="1560" y="1351" on="1"/>
        <pt x="1531" y="1344" on="0"/>
        <pt x="1510" y="1336" on="1"/>
        <pt x="1466" y="1320" on="1"/>
        <pt x="1169" y="1189" on="0"/>
        <pt x="813" y="673" on="1"/>
        <pt x="691" y="498" on="0"/>
        <pt x="560" y="365" on="1"/>
        <pt x="568" y="365" on="1"/>
        <pt x="710" y="365" on="0"/>
        <pt x="866" y="456" on="1"/>
        <pt x="1025" y="549" on="0"/>
        <pt x="1126" y="696" on="1"/>
      </contour>
      <contour>
        <pt x="2573" y="1367" on="1"/>
        <pt x="2521" y="1375" on="0"/>
        <pt x="2391" y="1375" on="0"/>
        <pt x="2218" y="1334" on="0"/>
        <pt x="2039" y="1260" on="0"/>
        <pt x="1861" y="1159" on="0"/>
        <pt x="1699" y="1040" on="0"/>
        <pt x="1560" y="906" on="0"/>
        <pt x="1509" y="837" on="1"/>
        <pt x="1400" y="690" on="0"/>
        <pt x="1400" y="565" on="1"/>
        <pt x="1400" y="433" on="0"/>
        <pt x="1504" y="373" on="1"/>
        <pt x="1625" y="545" on="1"/>
        <pt x="1880" y="910" on="0"/>
        <pt x="2161" y="1138" on="1"/>
        <pt x="2391" y="1325" on="0"/>
      </contour>
      <contour>
        <pt x="1509" y="1358" on="1"/>
        <pt x="1457" y="1366" on="0"/>
        <pt x="1327" y="1366" on="0"/>
        <pt x="1153" y="1325" on="0"/>
        <pt x="973" y="1252" on="0"/>
        <pt x="796" y="1152" on="0"/>
        <pt x="634" y="1034" on="0"/>
        <pt x="496" y="905" on="0"/>
        <pt x="445" y="838" on="1"/>
        <pt x="336" y="696" on="0"/>
        <pt x="336" y="583" on="1"/>
        <pt x="336" y="429" on="0"/>
        <pt x="439" y="384" on="1"/>
        <pt x="543" y="515" on="0"/>
        <pt x="598" y="592" on="1"/>
        <pt x="863" y="957" on="0"/>
        <pt x="1114" y="1156" on="1"/>
        <pt x="1323" y="1322" on="0"/>
      </contour>
      <contour>
        <pt x="393" y="-560" on="1"/>
        <pt x="353" y="-616" on="0"/>
        <pt x="353" y="-682" on="0"/>
        <pt x="388" y="-716" on="0"/>
        <pt x="416" y="-716" on="1"/>
        <pt x="629" y="-716" on="0"/>
        <pt x="1004" y="-280" on="1"/>
        <pt x="1116" y="-149" on="0"/>
        <pt x="1231" y="1" on="1"/>
        <pt x="958" y="-92" on="0"/>
        <pt x="656" y="-314" on="1"/>
        <pt x="473" y="-448" on="0"/>
      </contour>
    </TTGlyph>
    <TTGlyph name="Iacute" xMin="-317" yMin="-2" xMax="1769" yMax="1768">
      <contour>
        <pt x="1672" y="1697" on="1"/>
        <pt x="1681" y="1768" on="0"/>
        <pt x="1769" y="1768" on="0"/>
        <pt x="1769" y="1713" on="1"/>
        <pt x="1769" y="1668" on="0"/>
        <pt x="1705" y="1598" on="1"/>
        <pt x="1644" y="1532" on="0"/>
        <pt x="1518" y="1459" on="0"/>
        <pt x="1493" y="1459" on="0"/>
        <pt x="1493" y="1471" on="1"/>
        <pt x="1493" y="1476" on="0"/>
        <pt x="1506" y="1485" on="0"/>
        <pt x="1526" y="1498" on="1"/>
        <pt x="1620" y="1557" on="0"/>
        <pt x="1654" y="1636" on="1"/>
        <pt x="1664" y="1657" on="0"/>
      </contour>
      <contour>
        <pt x="1177" y="771" on="0"/>
        <pt x="1237" y="943" on="0"/>
        <pt x="1237" y="1066" on="0"/>
        <pt x="1260" y="1066" on="0"/>
        <pt x="1260" y="921" on="0"/>
        <pt x="1200" y="746" on="0"/>
        <pt x="1098" y="595" on="0"/>
        <pt x="960" y="472" on="0"/>
        <pt x="882" y="428" on="1"/>
        <pt x="716" y="337" on="0"/>
        <pt x="556" y="337" on="1"/>
        <pt x="533" y="337" on="1"/>
        <pt x="284" y="94" on="0"/>
        <pt x="52" y="22" on="1"/>
        <pt x="-24" y="-2" on="0"/>
        <pt x="-143" y="-2" on="0"/>
        <pt x="-225" y="21" on="0"/>
        <pt x="-254" y="40" on="1"/>
        <pt x="-311" y="80" on="0"/>
        <pt x="-317" y="142" on="1"/>
        <pt x="-322" y="205" on="0"/>
        <pt x="-264" y="227" on="1"/>
        <pt x="-207" y="249" on="0"/>
        <pt x="-184" y="214" on="1"/>
        <pt x="-165" y="185" on="0"/>
        <pt x="-206" y="142" on="0"/>
        <pt x="-224" y="140" on="1"/>
        <pt x="-258" y="136" on="0"/>
        <pt x="-276" y="145" on="1"/>
        <pt x="-276" y="139" on="1"/>
        <pt x="-271" y="91" on="0"/>
        <pt x="-177" y="24" on="0"/>
        <pt x="-35" y="24" on="0"/>
        <pt x="79" y="58" on="0"/>
        <pt x="141" y="98" on="1"/>
        <pt x="262" y="175" on="0"/>
        <pt x="421" y="363" on="1"/>
        <pt x="288" y="425" on="0"/>
        <pt x="288" y="608" on="1"/>
        <pt x="288" y="794" on="0"/>
        <pt x="442" y="978" on="1"/>
        <pt x="596" y="1161" on="0"/>
        <pt x="844" y="1272" on="1"/>
        <pt x="1109" y="1392" on="0"/>
        <pt x="1402" y="1392" on="1"/>
        <pt x="1577" y="1378" on="1"/>
        <pt x="1679" y="1385" on="1"/>
        <pt x="1716" y="1385" on="0"/>
        <pt x="1716" y="1371" on="1"/>
        <pt x="1716" y="1354" on="0"/>
        <pt x="1645" y="1350" on="0"/>
        <pt x="1586" y="1351" on="0"/>
        <pt x="1560" y="1351" on="1"/>
        <pt x="1531" y="1344" on="0"/>
        <pt x="1510" y="1336" on="1"/>
        <pt x="1466" y="1320" on="1"/>
        <pt x="1169" y="1189" on="0"/>
        <pt x="813" y="673" on="1"/>
        <pt x="691" y="498" on="0"/>
        <pt x="560" y="365" on="1"/>
        <pt x="568" y="365" on="1"/>
        <pt x="710" y="365" on="0"/>
        <pt x="866" y="456" on="1"/>
        <pt x="1025" y="549" on="0"/>
        <pt x="1126" y="696" on="1"/>
      </contour>
      <contour>
        <pt x="1509" y="1358" on="1"/>
        <pt x="1457" y="1366" on="0"/>
        <pt x="1327" y="1366" on="0"/>
        <pt x="1153" y="1325" on="0"/>
        <pt x="973" y="1252" on="0"/>
        <pt x="796" y="1152" on="0"/>
        <pt x="634" y="1034" on="0"/>
        <pt x="496" y="905" on="0"/>
        <pt x="445" y="838" on="1"/>
        <pt x="336" y="696" on="0"/>
        <pt x="336" y="583" on="1"/>
        <pt x="336" y="429" on="0"/>
        <pt x="439" y="384" on="1"/>
        <pt x="543" y="515" on="0"/>
        <pt x="598" y="592" on="1"/>
        <pt x="863" y="957" on="0"/>
        <pt x="1114" y="1156" on="1"/>
        <pt x="1323" y="1322" on="0"/>
      </contour>
    </TTGlyph>
    <TTGlyph name="Icircumflex" xMin="-317" yMin="-2" xMax="1716" yMax="1768">
      <contour>
        <pt x="1413" y="1528" on="1"/>
        <pt x="1315" y="1463" on="1"/>
        <pt x="1275" y="1438" on="0"/>
        <pt x="1255" y="1438" on="0"/>
        <pt x="1255" y="1442" on="1"/>
        <pt x="1255" y="1455" on="0"/>
        <pt x="1316" y="1500" on="1"/>
        <pt x="1443" y="1600" on="1"/>
        <pt x="1510" y="1654" on="0"/>
        <pt x="1579" y="1719" on="1"/>
        <pt x="1623" y="1768" on="0"/>
        <pt x="1638" y="1768" on="1"/>
        <pt x="1646" y="1768" on="0"/>
        <pt x="1646" y="1761" on="1"/>
        <pt x="1646" y="1748" on="0"/>
        <pt x="1639" y="1731" on="1"/>
        <pt x="1615" y="1673" on="0"/>
        <pt x="1615" y="1609" on="1"/>
        <pt x="1615" y="1498" on="0"/>
        <pt x="1658" y="1459" on="1"/>
        <pt x="1663" y="1455" on="0"/>
        <pt x="1663" y="1447" on="0"/>
        <pt x="1654" y="1436" on="0"/>
        <pt x="1646" y="1436" on="1"/>
        <pt x="1612" y="1436" on="0"/>
        <pt x="1572" y="1508" on="1"/>
        <pt x="1549" y="1549" on="0"/>
        <pt x="1545" y="1577" on="1"/>
        <pt x="1539" y="1619" on="1"/>
        <pt x="1472" y="1567" on="0"/>
      </contour>
      <contour>
        <pt x="1177" y="771" on="0"/>
        <pt x="1237" y="943" on="0"/>
        <pt x="1237" y="1066" on="0"/>
        <pt x="1260" y="1066" on="0"/>
        <pt x="1260" y="921" on="0"/>
        <pt x="1200" y="746" on="0"/>
        <pt x="1098" y="595" on="0"/>
        <pt x="960" y="472" on="0"/>
        <pt x="882" y="428" on="1"/>
        <pt x="716" y="337" on="0"/>
        <pt x="556" y="337" on="1"/>
        <pt x="533" y="337" on="1"/>
        <pt x="284" y="94" on="0"/>
        <pt x="52" y="22" on="1"/>
        <pt x="-24" y="-2" on="0"/>
        <pt x="-143" y="-2" on="0"/>
        <pt x="-225" y="21" on="0"/>
        <pt x="-254" y="40" on="1"/>
        <pt x="-311" y="80" on="0"/>
        <pt x="-317" y="142" on="1"/>
        <pt x="-322" y="205" on="0"/>
        <pt x="-264" y="227" on="1"/>
        <pt x="-207" y="249" on="0"/>
        <pt x="-184" y="214" on="1"/>
        <pt x="-165" y="185" on="0"/>
        <pt x="-206" y="142" on="0"/>
        <pt x="-224" y="140" on="1"/>
        <pt x="-258" y="136" on="0"/>
        <pt x="-276" y="145" on="1"/>
        <pt x="-276" y="139" on="1"/>
        <pt x="-271" y="91" on="0"/>
        <pt x="-177" y="24" on="0"/>
        <pt x="-35" y="24" on="0"/>
        <pt x="79" y="58" on="0"/>
        <pt x="141" y="98" on="1"/>
        <pt x="262" y="175" on="0"/>
        <pt x="421" y="363" on="1"/>
        <pt x="288" y="425" on="0"/>
        <pt x="288" y="608" on="1"/>
        <pt x="288" y="794" on="0"/>
        <pt x="442" y="978" on="1"/>
        <pt x="596" y="1161" on="0"/>
        <pt x="844" y="1272" on="1"/>
        <pt x="1109" y="1392" on="0"/>
        <pt x="1402" y="1392" on="1"/>
        <pt x="1577" y="1378" on="1"/>
        <pt x="1679" y="1385" on="1"/>
        <pt x="1716" y="1385" on="0"/>
        <pt x="1716" y="1371" on="1"/>
        <pt x="1716" y="1354" on="0"/>
        <pt x="1645" y="1350" on="0"/>
        <pt x="1586" y="1351" on="0"/>
        <pt x="1560" y="1351" on="1"/>
        <pt x="1531" y="1344" on="0"/>
        <pt x="1510" y="1336" on="1"/>
        <pt x="1466" y="1320" on="1"/>
        <pt x="1169" y="1189" on="0"/>
        <pt x="813" y="673" on="1"/>
        <pt x="691" y="498" on="0"/>
        <pt x="560" y="365" on="1"/>
        <pt x="568" y="365" on="1"/>
        <pt x="710" y="365" on="0"/>
        <pt x="866" y="456" on="1"/>
        <pt x="1025" y="549" on="0"/>
        <pt x="1126" y="696" on="1"/>
      </contour>
      <contour>
        <pt x="1509" y="1358" on="1"/>
        <pt x="1457" y="1366" on="0"/>
        <pt x="1327" y="1366" on="0"/>
        <pt x="1153" y="1325" on="0"/>
        <pt x="973" y="1252" on="0"/>
        <pt x="796" y="1152" on="0"/>
        <pt x="634" y="1034" on="0"/>
        <pt x="496" y="905" on="0"/>
        <pt x="445" y="838" on="1"/>
        <pt x="336" y="696" on="0"/>
        <pt x="336" y="583" on="1"/>
        <pt x="336" y="429" on="0"/>
        <pt x="439" y="384" on="1"/>
        <pt x="543" y="515" on="0"/>
        <pt x="598" y="592" on="1"/>
        <pt x="863" y="957" on="0"/>
        <pt x="1114" y="1156" on="1"/>
        <pt x="1323" y="1322" on="0"/>
      </contour>
    </TTGlyph>
    <TTGlyph name="Idieresis" xMin="-317" yMin="-2" xMax="1749" yMax="1624">
      <contour>
        <pt x="1620" y="1468" on="0"/>
        <pt x="1587" y="1505" on="0"/>
        <pt x="1587" y="1549" on="0"/>
        <pt x="1603" y="1582" on="0"/>
        <pt x="1616" y="1595" on="1"/>
        <pt x="1647" y="1624" on="0"/>
        <pt x="1715" y="1624" on="0"/>
        <pt x="1749" y="1589" on="0"/>
        <pt x="1749" y="1544" on="0"/>
        <pt x="1731" y="1510" on="0"/>
        <pt x="1717" y="1497" on="1"/>
        <pt x="1686" y="1468" on="0"/>
      </contour>
      <contour>
        <pt x="1403" y="1484" on="0"/>
        <pt x="1367" y="1468" on="0"/>
        <pt x="1321" y="1468" on="0"/>
        <pt x="1288" y="1505" on="0"/>
        <pt x="1288" y="1549" on="0"/>
        <pt x="1304" y="1582" on="0"/>
        <pt x="1318" y="1595" on="1"/>
        <pt x="1348" y="1624" on="0"/>
        <pt x="1416" y="1624" on="0"/>
        <pt x="1448" y="1589" on="0"/>
        <pt x="1448" y="1544" on="0"/>
        <pt x="1431" y="1510" on="0"/>
      </contour>
      <contour>
        <pt x="1177" y="771" on="0"/>
        <pt x="1237" y="943" on="0"/>
        <pt x="1237" y="1066" on="0"/>
        <pt x="1260" y="1066" on="0"/>
        <pt x="1260" y="921" on="0"/>
        <pt x="1200" y="746" on="0"/>
        <pt x="1098" y="595" on="0"/>
        <pt x="960" y="472" on="0"/>
        <pt x="882" y="428" on="1"/>
        <pt x="716" y="337" on="0"/>
        <pt x="556" y="337" on="1"/>
        <pt x="533" y="337" on="1"/>
        <pt x="284" y="94" on="0"/>
        <pt x="52" y="22" on="1"/>
        <pt x="-24" y="-2" on="0"/>
        <pt x="-143" y="-2" on="0"/>
        <pt x="-225" y="21" on="0"/>
        <pt x="-254" y="40" on="1"/>
        <pt x="-311" y="80" on="0"/>
        <pt x="-317" y="142" on="1"/>
        <pt x="-322" y="205" on="0"/>
        <pt x="-264" y="227" on="1"/>
        <pt x="-207" y="249" on="0"/>
        <pt x="-184" y="214" on="1"/>
        <pt x="-165" y="185" on="0"/>
        <pt x="-206" y="142" on="0"/>
        <pt x="-224" y="140" on="1"/>
        <pt x="-258" y="136" on="0"/>
        <pt x="-276" y="145" on="1"/>
        <pt x="-276" y="139" on="1"/>
        <pt x="-271" y="91" on="0"/>
        <pt x="-177" y="24" on="0"/>
        <pt x="-35" y="24" on="0"/>
        <pt x="79" y="58" on="0"/>
        <pt x="141" y="98" on="1"/>
        <pt x="262" y="175" on="0"/>
        <pt x="421" y="363" on="1"/>
        <pt x="288" y="425" on="0"/>
        <pt x="288" y="608" on="1"/>
        <pt x="288" y="794" on="0"/>
        <pt x="442" y="978" on="1"/>
        <pt x="596" y="1161" on="0"/>
        <pt x="844" y="1272" on="1"/>
        <pt x="1109" y="1392" on="0"/>
        <pt x="1402" y="1392" on="1"/>
        <pt x="1577" y="1378" on="1"/>
        <pt x="1679" y="1385" on="1"/>
        <pt x="1716" y="1385" on="0"/>
        <pt x="1716" y="1371" on="1"/>
        <pt x="1716" y="1354" on="0"/>
        <pt x="1645" y="1350" on="0"/>
        <pt x="1586" y="1351" on="0"/>
        <pt x="1560" y="1351" on="1"/>
        <pt x="1531" y="1344" on="0"/>
        <pt x="1510" y="1336" on="1"/>
        <pt x="1466" y="1320" on="1"/>
        <pt x="1169" y="1189" on="0"/>
        <pt x="813" y="673" on="1"/>
        <pt x="691" y="498" on="0"/>
        <pt x="560" y="365" on="1"/>
        <pt x="568" y="365" on="1"/>
        <pt x="710" y="365" on="0"/>
        <pt x="866" y="456" on="1"/>
        <pt x="1025" y="549" on="0"/>
        <pt x="1126" y="696" on="1"/>
      </contour>
      <contour>
        <pt x="1509" y="1358" on="1"/>
        <pt x="1457" y="1366" on="0"/>
        <pt x="1327" y="1366" on="0"/>
        <pt x="1153" y="1325" on="0"/>
        <pt x="973" y="1252" on="0"/>
        <pt x="796" y="1152" on="0"/>
        <pt x="634" y="1034" on="0"/>
        <pt x="496" y="905" on="0"/>
        <pt x="445" y="838" on="1"/>
        <pt x="336" y="696" on="0"/>
        <pt x="336" y="583" on="1"/>
        <pt x="336" y="429" on="0"/>
        <pt x="439" y="384" on="1"/>
        <pt x="543" y="515" on="0"/>
        <pt x="598" y="592" on="1"/>
        <pt x="863" y="957" on="0"/>
        <pt x="1114" y="1156" on="1"/>
        <pt x="1323" y="1322" on="0"/>
      </contour>
    </TTGlyph>
    <TTGlyph name="Igrave" xMin="-317" yMin="-2" xMax="1716" yMax="1768">
      <contour>
        <pt x="1530" y="1471" on="1"/>
        <pt x="1530" y="1459" on="0"/>
        <pt x="1520" y="1459" on="1"/>
        <pt x="1508" y="1459" on="0"/>
        <pt x="1424" y="1506" on="0"/>
        <pt x="1347" y="1567" on="0"/>
        <pt x="1318" y="1598" on="1"/>
        <pt x="1254" y="1666" on="0"/>
        <pt x="1254" y="1768" on="0"/>
        <pt x="1340" y="1768" on="0"/>
        <pt x="1352" y="1697" on="1"/>
        <pt x="1365" y="1632" on="0"/>
        <pt x="1389" y="1597" on="1"/>
        <pt x="1430" y="1536" on="0"/>
        <pt x="1505" y="1495" on="1"/>
        <pt x="1524" y="1480" on="1"/>
        <pt x="1530" y="1476" on="0"/>
      </contour>
      <contour>
        <pt x="1177" y="771" on="0"/>
        <pt x="1237" y="943" on="0"/>
        <pt x="1237" y="1066" on="0"/>
        <pt x="1260" y="1066" on="0"/>
        <pt x="1260" y="921" on="0"/>
        <pt x="1200" y="746" on="0"/>
        <pt x="1098" y="595" on="0"/>
        <pt x="960" y="472" on="0"/>
        <pt x="882" y="428" on="1"/>
        <pt x="716" y="337" on="0"/>
        <pt x="556" y="337" on="1"/>
        <pt x="533" y="337" on="1"/>
        <pt x="284" y="94" on="0"/>
        <pt x="52" y="22" on="1"/>
        <pt x="-24" y="-2" on="0"/>
        <pt x="-143" y="-2" on="0"/>
        <pt x="-225" y="21" on="0"/>
        <pt x="-254" y="40" on="1"/>
        <pt x="-311" y="80" on="0"/>
        <pt x="-317" y="142" on="1"/>
        <pt x="-322" y="205" on="0"/>
        <pt x="-264" y="227" on="1"/>
        <pt x="-207" y="249" on="0"/>
        <pt x="-184" y="214" on="1"/>
        <pt x="-165" y="185" on="0"/>
        <pt x="-206" y="142" on="0"/>
        <pt x="-224" y="140" on="1"/>
        <pt x="-258" y="136" on="0"/>
        <pt x="-276" y="145" on="1"/>
        <pt x="-276" y="139" on="1"/>
        <pt x="-271" y="91" on="0"/>
        <pt x="-177" y="24" on="0"/>
        <pt x="-35" y="24" on="0"/>
        <pt x="79" y="58" on="0"/>
        <pt x="141" y="98" on="1"/>
        <pt x="262" y="175" on="0"/>
        <pt x="421" y="363" on="1"/>
        <pt x="288" y="425" on="0"/>
        <pt x="288" y="608" on="1"/>
        <pt x="288" y="794" on="0"/>
        <pt x="442" y="978" on="1"/>
        <pt x="596" y="1161" on="0"/>
        <pt x="844" y="1272" on="1"/>
        <pt x="1109" y="1392" on="0"/>
        <pt x="1402" y="1392" on="1"/>
        <pt x="1577" y="1378" on="1"/>
        <pt x="1679" y="1385" on="1"/>
        <pt x="1716" y="1385" on="0"/>
        <pt x="1716" y="1371" on="1"/>
        <pt x="1716" y="1354" on="0"/>
        <pt x="1645" y="1350" on="0"/>
        <pt x="1586" y="1351" on="0"/>
        <pt x="1560" y="1351" on="1"/>
        <pt x="1531" y="1344" on="0"/>
        <pt x="1510" y="1336" on="1"/>
        <pt x="1466" y="1320" on="1"/>
        <pt x="1169" y="1189" on="0"/>
        <pt x="813" y="673" on="1"/>
        <pt x="691" y="498" on="0"/>
        <pt x="560" y="365" on="1"/>
        <pt x="568" y="365" on="1"/>
        <pt x="710" y="365" on="0"/>
        <pt x="866" y="456" on="1"/>
        <pt x="1025" y="549" on="0"/>
        <pt x="1126" y="696" on="1"/>
      </contour>
      <contour>
        <pt x="1509" y="1358" on="1"/>
        <pt x="1457" y="1366" on="0"/>
        <pt x="1327" y="1366" on="0"/>
        <pt x="1153" y="1325" on="0"/>
        <pt x="973" y="1252" on="0"/>
        <pt x="796" y="1152" on="0"/>
        <pt x="634" y="1034" on="0"/>
        <pt x="496" y="905" on="0"/>
        <pt x="445" y="838" on="1"/>
        <pt x="336" y="696" on="0"/>
        <pt x="336" y="583" on="1"/>
        <pt x="336" y="429" on="0"/>
        <pt x="439" y="384" on="1"/>
        <pt x="543" y="515" on="0"/>
        <pt x="598" y="592" on="1"/>
        <pt x="863" y="957" on="0"/>
        <pt x="1114" y="1156" on="1"/>
        <pt x="1323" y="1322" on="0"/>
      </contour>
    </TTGlyph>
    <TTGlyph name="Itilde" xMin="-317" yMin="-2" xMax="1812" yMax="1669">
      <contour>
        <pt x="1328" y="1492" on="1"/>
        <pt x="1318" y="1492" on="0"/>
        <pt x="1318" y="1506" on="1"/>
        <pt x="1318" y="1545" on="0"/>
        <pt x="1358" y="1587" on="1"/>
        <pt x="1428" y="1660" on="0"/>
        <pt x="1481" y="1660" on="1"/>
        <pt x="1525" y="1660" on="0"/>
        <pt x="1572" y="1627" on="1"/>
        <pt x="1647" y="1575" on="0"/>
        <pt x="1689" y="1575" on="1"/>
        <pt x="1750" y="1575" on="0"/>
        <pt x="1781" y="1651" on="1"/>
        <pt x="1791" y="1669" on="0"/>
        <pt x="1798" y="1669" on="1"/>
        <pt x="1812" y="1669" on="0"/>
        <pt x="1812" y="1655" on="1"/>
        <pt x="1812" y="1620" on="0"/>
        <pt x="1772" y="1576" on="1"/>
        <pt x="1703" y="1500" on="0"/>
        <pt x="1647" y="1500" on="1"/>
        <pt x="1604" y="1500" on="0"/>
        <pt x="1500" y="1570" on="0"/>
        <pt x="1461" y="1586" on="0"/>
        <pt x="1441" y="1586" on="1"/>
        <pt x="1377" y="1586" on="0"/>
        <pt x="1347" y="1508" on="1"/>
        <pt x="1338" y="1492" on="0"/>
      </contour>
      <contour>
        <pt x="1177" y="771" on="0"/>
        <pt x="1237" y="943" on="0"/>
        <pt x="1237" y="1066" on="0"/>
        <pt x="1260" y="1066" on="0"/>
        <pt x="1260" y="921" on="0"/>
        <pt x="1200" y="746" on="0"/>
        <pt x="1098" y="595" on="0"/>
        <pt x="960" y="472" on="0"/>
        <pt x="882" y="428" on="1"/>
        <pt x="716" y="337" on="0"/>
        <pt x="556" y="337" on="1"/>
        <pt x="533" y="337" on="1"/>
        <pt x="284" y="94" on="0"/>
        <pt x="52" y="22" on="1"/>
        <pt x="-24" y="-2" on="0"/>
        <pt x="-143" y="-2" on="0"/>
        <pt x="-225" y="21" on="0"/>
        <pt x="-254" y="40" on="1"/>
        <pt x="-311" y="80" on="0"/>
        <pt x="-317" y="142" on="1"/>
        <pt x="-322" y="205" on="0"/>
        <pt x="-264" y="227" on="1"/>
        <pt x="-207" y="249" on="0"/>
        <pt x="-184" y="214" on="1"/>
        <pt x="-165" y="185" on="0"/>
        <pt x="-206" y="142" on="0"/>
        <pt x="-224" y="140" on="1"/>
        <pt x="-258" y="136" on="0"/>
        <pt x="-276" y="145" on="1"/>
        <pt x="-276" y="139" on="1"/>
        <pt x="-271" y="91" on="0"/>
        <pt x="-177" y="24" on="0"/>
        <pt x="-35" y="24" on="0"/>
        <pt x="79" y="58" on="0"/>
        <pt x="141" y="98" on="1"/>
        <pt x="262" y="175" on="0"/>
        <pt x="421" y="363" on="1"/>
        <pt x="288" y="425" on="0"/>
        <pt x="288" y="608" on="1"/>
        <pt x="288" y="794" on="0"/>
        <pt x="442" y="978" on="1"/>
        <pt x="596" y="1161" on="0"/>
        <pt x="844" y="1272" on="1"/>
        <pt x="1109" y="1392" on="0"/>
        <pt x="1402" y="1392" on="1"/>
        <pt x="1577" y="1378" on="1"/>
        <pt x="1679" y="1385" on="1"/>
        <pt x="1716" y="1385" on="0"/>
        <pt x="1716" y="1371" on="1"/>
        <pt x="1716" y="1354" on="0"/>
        <pt x="1645" y="1350" on="0"/>
        <pt x="1586" y="1351" on="0"/>
        <pt x="1560" y="1351" on="1"/>
        <pt x="1531" y="1344" on="0"/>
        <pt x="1510" y="1336" on="1"/>
        <pt x="1466" y="1320" on="1"/>
        <pt x="1169" y="1189" on="0"/>
        <pt x="813" y="673" on="1"/>
        <pt x="691" y="498" on="0"/>
        <pt x="560" y="365" on="1"/>
        <pt x="568" y="365" on="1"/>
        <pt x="710" y="365" on="0"/>
        <pt x="866" y="456" on="1"/>
        <pt x="1025" y="549" on="0"/>
        <pt x="1126" y="696" on="1"/>
      </contour>
      <contour>
        <pt x="1509" y="1358" on="1"/>
        <pt x="1457" y="1366" on="0"/>
        <pt x="1327" y="1366" on="0"/>
        <pt x="1153" y="1325" on="0"/>
        <pt x="973" y="1252" on="0"/>
        <pt x="796" y="1152" on="0"/>
        <pt x="634" y="1034" on="0"/>
        <pt x="496" y="905" on="0"/>
        <pt x="445" y="838" on="1"/>
        <pt x="336" y="696" on="0"/>
        <pt x="336" y="583" on="1"/>
        <pt x="336" y="429" on="0"/>
        <pt x="439" y="384" on="1"/>
        <pt x="543" y="515" on="0"/>
        <pt x="598" y="592" on="1"/>
        <pt x="863" y="957" on="0"/>
        <pt x="1114" y="1156" on="1"/>
        <pt x="1323" y="1322" on="0"/>
      </contour>
    </TTGlyph>
    <TTGlyph name="J" xMin="-789" yMin="-741" xMax="1670" yMax="1401">
      <contour>
        <pt x="743" y="222" on="0"/>
        <pt x="759" y="231" on="0"/>
        <pt x="772" y="226" on="0"/>
        <pt x="772" y="222" on="1"/>
        <pt x="770" y="209" on="0"/>
        <pt x="739" y="196" on="1"/>
        <pt x="661" y="164" on="0"/>
        <pt x="632" y="153" on="1"/>
        <pt x="574" y="132" on="1"/>
        <pt x="544" y="121" on="0"/>
        <pt x="505" y="109" on="1"/>
        <pt x="296" y="49" on="1"/>
        <pt x="-164" y="-521" on="0"/>
        <pt x="-446" y="-671" on="1"/>
        <pt x="-578" y="-741" on="0"/>
        <pt x="-697" y="-741" on="1"/>
        <pt x="-742" y="-741" on="0"/>
        <pt x="-760" y="-719" on="1"/>
        <pt x="-789" y="-685" on="0"/>
        <pt x="-789" y="-592" on="0"/>
        <pt x="-724" y="-466" on="0"/>
        <pt x="-603" y="-336" on="0"/>
        <pt x="-433" y="-208" on="0"/>
        <pt x="-328" y="-150" on="1"/>
        <pt x="-110" y="-27" on="0"/>
        <pt x="155" y="46" on="1"/>
        <pt x="376" y="347" on="1"/>
        <pt x="315" y="380" on="0"/>
        <pt x="235" y="500" on="0"/>
        <pt x="235" y="688" on="0"/>
        <pt x="320" y="893" on="0"/>
        <pt x="472" y="1075" on="0"/>
        <pt x="681" y="1228" on="0"/>
        <pt x="804" y="1284" on="1"/>
        <pt x="1066" y="1401" on="0"/>
        <pt x="1346" y="1401" on="1"/>
        <pt x="1530" y="1387" on="1"/>
        <pt x="1632" y="1394" on="1"/>
        <pt x="1670" y="1394" on="0"/>
        <pt x="1670" y="1381" on="1"/>
        <pt x="1670" y="1359" on="0"/>
        <pt x="1578" y="1359" on="1"/>
        <pt x="1513" y="1360" on="1"/>
        <pt x="1340" y="1318" on="0"/>
        <pt x="955" y="961" on="0"/>
        <pt x="756" y="658" on="1"/>
        <pt x="522" y="340" on="1"/>
        <pt x="658" y="340" on="0"/>
        <pt x="819" y="456" on="1"/>
        <pt x="972" y="567" on="0"/>
        <pt x="1080" y="728" on="1"/>
        <pt x="1191" y="895" on="0"/>
        <pt x="1191" y="1035" on="1"/>
        <pt x="1191" y="1066" on="0"/>
        <pt x="1213" y="1066" on="0"/>
        <pt x="1213" y="938" on="0"/>
        <pt x="1156" y="769" on="0"/>
        <pt x="1056" y="612" on="0"/>
        <pt x="920" y="475" on="0"/>
        <pt x="842" y="424" on="1"/>
        <pt x="675" y="313" on="0"/>
        <pt x="511" y="313" on="1"/>
        <pt x="501" y="313" on="1"/>
        <pt x="377" y="149" on="0"/>
        <pt x="330" y="92" on="1"/>
        <pt x="450" y="124" on="1"/>
        <pt x="589" y="161" on="0"/>
      </contour>
      <contour>
        <pt x="1463" y="1367" on="1"/>
        <pt x="1411" y="1375" on="0"/>
        <pt x="1281" y="1375" on="0"/>
        <pt x="1108" y="1334" on="0"/>
        <pt x="929" y="1260" on="0"/>
        <pt x="751" y="1159" on="0"/>
        <pt x="589" y="1040" on="0"/>
        <pt x="450" y="906" on="0"/>
        <pt x="399" y="837" on="1"/>
        <pt x="290" y="690" on="0"/>
        <pt x="290" y="565" on="1"/>
        <pt x="290" y="433" on="0"/>
        <pt x="394" y="373" on="1"/>
        <pt x="515" y="545" on="1"/>
        <pt x="770" y="910" on="0"/>
        <pt x="1051" y="1138" on="1"/>
        <pt x="1281" y="1325" on="0"/>
      </contour>
      <contour>
        <pt x="121" y="1" on="1"/>
        <pt x="-50" y="-57" on="0"/>
        <pt x="-268" y="-190" on="1"/>
        <pt x="-594" y="-387" on="0"/>
        <pt x="-717" y="-560" on="1"/>
        <pt x="-757" y="-616" on="0"/>
        <pt x="-757" y="-682" on="0"/>
        <pt x="-722" y="-716" on="0"/>
        <pt x="-694" y="-716" on="1"/>
        <pt x="-424" y="-716" on="0"/>
      </contour>
    </TTGlyph>
    <TTGlyph name="Jcircumflex" xMin="-789" yMin="-741" xMax="1670" yMax="1768">
      <contour>
        <pt x="1272" y="1528" on="1"/>
        <pt x="1174" y="1463" on="1"/>
        <pt x="1134" y="1438" on="0"/>
        <pt x="1114" y="1438" on="0"/>
        <pt x="1114" y="1442" on="1"/>
        <pt x="1114" y="1455" on="0"/>
        <pt x="1174" y="1500" on="1"/>
        <pt x="1302" y="1600" on="1"/>
        <pt x="1369" y="1654" on="0"/>
        <pt x="1438" y="1719" on="1"/>
        <pt x="1482" y="1768" on="0"/>
        <pt x="1497" y="1768" on="1"/>
        <pt x="1505" y="1768" on="0"/>
        <pt x="1505" y="1761" on="1"/>
        <pt x="1505" y="1748" on="0"/>
        <pt x="1498" y="1731" on="1"/>
        <pt x="1474" y="1673" on="0"/>
        <pt x="1474" y="1609" on="1"/>
        <pt x="1474" y="1498" on="0"/>
        <pt x="1518" y="1459" on="1"/>
        <pt x="1522" y="1455" on="0"/>
        <pt x="1522" y="1447" on="0"/>
        <pt x="1513" y="1436" on="0"/>
        <pt x="1505" y="1436" on="1"/>
        <pt x="1471" y="1436" on="0"/>
        <pt x="1431" y="1508" on="1"/>
        <pt x="1408" y="1549" on="0"/>
        <pt x="1404" y="1577" on="1"/>
        <pt x="1398" y="1619" on="1"/>
        <pt x="1331" y="1567" on="0"/>
      </contour>
      <contour>
        <pt x="743" y="222" on="0"/>
        <pt x="759" y="231" on="0"/>
        <pt x="772" y="226" on="0"/>
        <pt x="772" y="222" on="1"/>
        <pt x="770" y="209" on="0"/>
        <pt x="739" y="196" on="1"/>
        <pt x="661" y="164" on="0"/>
        <pt x="632" y="153" on="1"/>
        <pt x="574" y="132" on="1"/>
        <pt x="544" y="121" on="0"/>
        <pt x="505" y="109" on="1"/>
        <pt x="296" y="49" on="1"/>
        <pt x="-164" y="-521" on="0"/>
        <pt x="-446" y="-671" on="1"/>
        <pt x="-578" y="-741" on="0"/>
        <pt x="-697" y="-741" on="1"/>
        <pt x="-742" y="-741" on="0"/>
        <pt x="-760" y="-719" on="1"/>
        <pt x="-789" y="-685" on="0"/>
        <pt x="-789" y="-592" on="0"/>
        <pt x="-724" y="-466" on="0"/>
        <pt x="-603" y="-336" on="0"/>
        <pt x="-433" y="-208" on="0"/>
        <pt x="-328" y="-150" on="1"/>
        <pt x="-110" y="-27" on="0"/>
        <pt x="155" y="46" on="1"/>
        <pt x="376" y="347" on="1"/>
        <pt x="315" y="380" on="0"/>
        <pt x="235" y="500" on="0"/>
        <pt x="235" y="688" on="0"/>
        <pt x="320" y="893" on="0"/>
        <pt x="472" y="1075" on="0"/>
        <pt x="681" y="1228" on="0"/>
        <pt x="804" y="1284" on="1"/>
        <pt x="1066" y="1401" on="0"/>
        <pt x="1346" y="1401" on="1"/>
        <pt x="1530" y="1387" on="1"/>
        <pt x="1632" y="1394" on="1"/>
        <pt x="1670" y="1394" on="0"/>
        <pt x="1670" y="1381" on="1"/>
        <pt x="1670" y="1359" on="0"/>
        <pt x="1578" y="1359" on="1"/>
        <pt x="1513" y="1360" on="1"/>
        <pt x="1340" y="1318" on="0"/>
        <pt x="955" y="961" on="0"/>
        <pt x="756" y="658" on="1"/>
        <pt x="522" y="340" on="1"/>
        <pt x="658" y="340" on="0"/>
        <pt x="819" y="456" on="1"/>
        <pt x="972" y="567" on="0"/>
        <pt x="1080" y="728" on="1"/>
        <pt x="1191" y="895" on="0"/>
        <pt x="1191" y="1035" on="1"/>
        <pt x="1191" y="1066" on="0"/>
        <pt x="1213" y="1066" on="0"/>
        <pt x="1213" y="938" on="0"/>
        <pt x="1156" y="769" on="0"/>
        <pt x="1056" y="612" on="0"/>
        <pt x="920" y="475" on="0"/>
        <pt x="842" y="424" on="1"/>
        <pt x="675" y="313" on="0"/>
        <pt x="511" y="313" on="1"/>
        <pt x="501" y="313" on="1"/>
        <pt x="377" y="149" on="0"/>
        <pt x="330" y="92" on="1"/>
        <pt x="450" y="124" on="1"/>
        <pt x="589" y="161" on="0"/>
      </contour>
      <contour>
        <pt x="1463" y="1367" on="1"/>
        <pt x="1411" y="1375" on="0"/>
        <pt x="1281" y="1375" on="0"/>
        <pt x="1108" y="1334" on="0"/>
        <pt x="929" y="1260" on="0"/>
        <pt x="751" y="1159" on="0"/>
        <pt x="589" y="1040" on="0"/>
        <pt x="450" y="906" on="0"/>
        <pt x="399" y="837" on="1"/>
        <pt x="290" y="690" on="0"/>
        <pt x="290" y="565" on="1"/>
        <pt x="290" y="433" on="0"/>
        <pt x="394" y="373" on="1"/>
        <pt x="515" y="545" on="1"/>
        <pt x="770" y="910" on="0"/>
        <pt x="1051" y="1138" on="1"/>
        <pt x="1281" y="1325" on="0"/>
      </contour>
      <contour>
        <pt x="121" y="1" on="1"/>
        <pt x="-50" y="-57" on="0"/>
        <pt x="-268" y="-190" on="1"/>
        <pt x="-594" y="-387" on="0"/>
        <pt x="-717" y="-560" on="1"/>
        <pt x="-757" y="-616" on="0"/>
        <pt x="-757" y="-682" on="0"/>
        <pt x="-722" y="-716" on="0"/>
        <pt x="-694" y="-716" on="1"/>
        <pt x="-424" y="-716" on="0"/>
      </contour>
    </TTGlyph>
    <TTGlyph name="K" xMin="-174" yMin="-14" xMax="2433" yMax="1446">
      <contour>
        <pt x="985" y="1321" on="1"/>
        <pt x="985" y="1383" on="0"/>
        <pt x="876" y="1383" on="1"/>
        <pt x="700" y="1383" on="0"/>
        <pt x="555" y="1244" on="1"/>
        <pt x="473" y="1164" on="0"/>
        <pt x="406" y="1026" on="0"/>
        <pt x="400" y="1000" on="1"/>
        <pt x="390" y="962" on="0"/>
        <pt x="384" y="962" on="1"/>
        <pt x="373" y="962" on="0"/>
        <pt x="373" y="974" on="1"/>
        <pt x="373" y="988" on="1"/>
        <pt x="373" y="1004" on="0"/>
        <pt x="419" y="1108" on="0"/>
        <pt x="479" y="1200" on="0"/>
        <pt x="563" y="1292" on="0"/>
        <pt x="617" y="1328" on="1"/>
        <pt x="739" y="1411" on="0"/>
        <pt x="883" y="1411" on="1"/>
        <pt x="991" y="1411" on="0"/>
        <pt x="1030" y="1350" on="1"/>
        <pt x="1042" y="1332" on="0"/>
        <pt x="1042" y="1260" on="0"/>
        <pt x="975" y="1150" on="0"/>
        <pt x="894" y="1099" on="1"/>
        <pt x="850" y="1070" on="1"/>
        <pt x="834" y="1060" on="0"/>
        <pt x="834" y="1044" on="1"/>
        <pt x="834" y="1011" on="0"/>
        <pt x="889" y="1011" on="1"/>
        <pt x="1089" y="1011" on="0"/>
        <pt x="1377" y="1255" on="1"/>
        <pt x="1617" y="1446" on="0"/>
        <pt x="1679" y="1446" on="1"/>
        <pt x="1693" y="1446" on="0"/>
        <pt x="1693" y="1429" on="0"/>
        <pt x="1662" y="1420" on="0"/>
        <pt x="1599" y="1387" on="0"/>
        <pt x="1510" y="1320" on="0"/>
        <pt x="1392" y="1209" on="0"/>
        <pt x="1240" y="1041" on="0"/>
        <pt x="1145" y="924" on="1"/>
        <pt x="933" y="651" on="1"/>
        <pt x="688" y="325" on="0"/>
        <pt x="437" y="152" on="1"/>
        <pt x="212" y="-2" on="0"/>
        <pt x="25" y="-2" on="1"/>
        <pt x="-116" y="-2" on="0"/>
        <pt x="-160" y="80" on="1"/>
        <pt x="-174" y="104" on="0"/>
        <pt x="-174" y="155" on="0"/>
        <pt x="-156" y="187" on="0"/>
        <pt x="-142" y="196" on="1"/>
        <pt x="-116" y="215" on="0"/>
        <pt x="-91" y="215" on="1"/>
        <pt x="-31" y="215" on="0"/>
        <pt x="-31" y="170" on="1"/>
        <pt x="-31" y="150" on="0"/>
        <pt x="-65" y="121" on="0"/>
        <pt x="-120" y="121" on="0"/>
        <pt x="-135" y="130" on="1"/>
        <pt x="-135" y="124" on="1"/>
        <pt x="-135" y="80" on="0"/>
        <pt x="-50" y="24" on="0"/>
        <pt x="81" y="24" on="0"/>
        <pt x="218" y="77" on="0"/>
        <pt x="300" y="139" on="1"/>
        <pt x="475" y="270" on="0"/>
        <pt x="689" y="560" on="1"/>
        <pt x="769" y="668" on="0"/>
        <pt x="877" y="778" on="1"/>
        <pt x="1066" y="962" on="1"/>
        <pt x="1229" y="1115" on="1"/>
        <pt x="1030" y="983" on="0"/>
        <pt x="889" y="983" on="1"/>
        <pt x="789" y="983" on="0"/>
        <pt x="789" y="1064" on="1"/>
        <pt x="789" y="1160" on="0"/>
        <pt x="938" y="1267" on="1"/>
        <pt x="985" y="1299" on="0"/>
      </contour>
      <contour>
        <pt x="1518" y="521" on="1"/>
        <pt x="1530" y="521" on="0"/>
        <pt x="1530" y="436" on="0"/>
        <pt x="1485" y="325" on="0"/>
        <pt x="1410" y="214" on="0"/>
        <pt x="1311" y="112" on="0"/>
        <pt x="1257" y="72" on="1"/>
        <pt x="1139" y="-14" on="0"/>
        <pt x="1043" y="-14" on="1"/>
        <pt x="907" y="-14" on="0"/>
        <pt x="907" y="90" on="1"/>
        <pt x="907" y="164" on="0"/>
        <pt x="951" y="237" on="1"/>
        <pt x="1034" y="374" on="0"/>
        <pt x="1203" y="540" on="1"/>
        <pt x="1253" y="587" on="0"/>
        <pt x="1269" y="656" on="1"/>
        <pt x="1273" y="673" on="0"/>
        <pt x="1273" y="695" on="0"/>
        <pt x="1270" y="704" on="1"/>
        <pt x="1210" y="685" on="0"/>
        <pt x="1107" y="682" on="0"/>
        <pt x="1047" y="715" on="0"/>
        <pt x="1047" y="752" on="0"/>
        <pt x="1098" y="780" on="0"/>
        <pt x="1144" y="782" on="1"/>
        <pt x="1239" y="785" on="0"/>
        <pt x="1283" y="741" on="1"/>
        <pt x="1390" y="794" on="0"/>
        <pt x="1556" y="983" on="1"/>
        <pt x="1751" y="1195" on="0"/>
        <pt x="1960" y="1308" on="1"/>
        <pt x="2150" y="1412" on="0"/>
        <pt x="2294" y="1412" on="1"/>
        <pt x="2369" y="1412" on="0"/>
        <pt x="2443" y="1337" on="0"/>
        <pt x="2433" y="1281" on="1"/>
        <pt x="2421" y="1212" on="0"/>
        <pt x="2366" y="1188" on="1"/>
        <pt x="2350" y="1181" on="0"/>
        <pt x="2305" y="1181" on="0"/>
        <pt x="2281" y="1218" on="0"/>
        <pt x="2288" y="1259" on="0"/>
        <pt x="2328" y="1292" on="0"/>
        <pt x="2380" y="1292" on="0"/>
        <pt x="2397" y="1277" on="1"/>
        <pt x="2408" y="1326" on="0"/>
        <pt x="2388" y="1348" on="1"/>
        <pt x="2349" y="1389" on="0"/>
        <pt x="2249" y="1389" on="0"/>
        <pt x="2164" y="1363" on="0"/>
        <pt x="2112" y="1331" on="1"/>
        <pt x="2025" y="1277" on="0"/>
        <pt x="1837" y="1102" on="1"/>
        <pt x="1529" y="798" on="0"/>
        <pt x="1303" y="715" on="1"/>
        <pt x="1321" y="679" on="0"/>
        <pt x="1321" y="596" on="0"/>
        <pt x="1301" y="504" on="0"/>
        <pt x="1272" y="450" on="1"/>
        <pt x="1209" y="332" on="0"/>
        <pt x="1053" y="193" on="1"/>
        <pt x="960" y="110" on="0"/>
        <pt x="960" y="67" on="1"/>
        <pt x="960" y="41" on="0"/>
        <pt x="1000" y="14" on="0"/>
        <pt x="1087" y="14" on="0"/>
        <pt x="1168" y="44" on="0"/>
        <pt x="1256" y="102" on="0"/>
        <pt x="1344" y="185" on="0"/>
        <pt x="1384" y="238" on="1"/>
        <pt x="1470" y="354" on="0"/>
        <pt x="1504" y="490" on="1"/>
        <pt x="1512" y="521" on="0"/>
      </contour>
      <contour>
        <pt x="1128" y="759" on="0"/>
        <pt x="1096" y="742" on="0"/>
        <pt x="1096" y="727" on="0"/>
        <pt x="1130" y="710" on="0"/>
        <pt x="1161" y="712" on="1"/>
        <pt x="1215" y="714" on="0"/>
        <pt x="1254" y="729" on="1"/>
        <pt x="1216" y="765" on="0"/>
        <pt x="1151" y="760" on="1"/>
      </contour>
    </TTGlyph>
    <TTGlyph name="L" xMin="-280" yMin="-26" xMax="1819" yMax="1401">
      <contour>
        <pt x="286" y="67" on="1"/>
        <pt x="128" y="-2" on="0"/>
        <pt x="-60" y="-2" on="1"/>
        <pt x="-220" y="-2" on="0"/>
        <pt x="-267" y="50" on="1"/>
        <pt x="-280" y="65" on="0"/>
        <pt x="-280" y="103" on="0"/>
        <pt x="-248" y="141" on="0"/>
        <pt x="-218" y="154" on="1"/>
        <pt x="-158" y="182" on="0"/>
        <pt x="73" y="182" on="0"/>
        <pt x="271" y="112" on="1"/>
        <pt x="413" y="205" on="0"/>
        <pt x="619" y="486" on="1"/>
        <pt x="415" y="492" on="0"/>
        <pt x="286" y="576" on="1"/>
        <pt x="160" y="659" on="0"/>
        <pt x="160" y="790" on="1"/>
        <pt x="160" y="921" on="0"/>
        <pt x="280" y="1032" on="1"/>
        <pt x="402" y="1145" on="0"/>
        <pt x="553" y="1145" on="1"/>
        <pt x="575" y="1145" on="0"/>
        <pt x="575" y="1133" on="1"/>
        <pt x="575" y="1124" on="0"/>
        <pt x="465" y="1113" on="0"/>
        <pt x="350" y="1053" on="0"/>
        <pt x="312" y="1010" on="1"/>
        <pt x="235" y="923" on="0"/>
        <pt x="235" y="737" on="0"/>
        <pt x="292" y="625" on="0"/>
        <pt x="345" y="588" on="1"/>
        <pt x="449" y="517" on="0"/>
        <pt x="640" y="515" on="1"/>
        <pt x="776" y="712" on="1"/>
        <pt x="1024" y="1082" on="0"/>
        <pt x="1232" y="1244" on="1"/>
        <pt x="1435" y="1401" on="0"/>
        <pt x="1653" y="1401" on="1"/>
        <pt x="1769" y="1401" on="0"/>
        <pt x="1807" y="1330" on="1"/>
        <pt x="1819" y="1307" on="0"/>
        <pt x="1819" y="1227" on="0"/>
        <pt x="1766" y="1110" on="0"/>
        <pt x="1671" y="988" on="0"/>
        <pt x="1541" y="866" on="0"/>
        <pt x="1387" y="752" on="0"/>
        <pt x="1214" y="650" on="0"/>
        <pt x="1124" y="608" on="1"/>
        <pt x="935" y="521" on="0"/>
        <pt x="769" y="496" on="1"/>
        <pt x="549" y="202" on="0"/>
        <pt x="332" y="89" on="1"/>
        <pt x="514" y="24" on="0"/>
        <pt x="767" y="24" on="1"/>
        <pt x="991" y="24" on="0"/>
        <pt x="1094" y="127" on="1"/>
        <pt x="1109" y="142" on="0"/>
        <pt x="1113" y="133" on="1"/>
        <pt x="1120" y="117" on="0"/>
        <pt x="1098" y="95" on="1"/>
        <pt x="961" y="-25" on="0"/>
        <pt x="593" y="-25" on="0"/>
      </contour>
      <contour>
        <pt x="793" y="528" on="1"/>
        <pt x="1003" y="564" on="0"/>
        <pt x="1238" y="700" on="1"/>
        <pt x="1454" y="824" on="0"/>
        <pt x="1601" y="988" on="1"/>
        <pt x="1752" y="1155" on="0"/>
        <pt x="1752" y="1286" on="1"/>
        <pt x="1752" y="1344" on="0"/>
        <pt x="1688" y="1370" on="1"/>
        <pt x="1669" y="1378" on="0"/>
        <pt x="1647" y="1378" on="1"/>
        <pt x="1329" y="1378" on="0"/>
        <pt x="1026" y="880" on="1"/>
        <pt x="906" y="692" on="1"/>
        <pt x="849" y="604" on="0"/>
      </contour>
      <contour>
        <pt x="-48" y="131" on="1"/>
        <pt x="-252" y="131" on="0"/>
        <pt x="-252" y="81" on="1"/>
        <pt x="-252" y="47" on="0"/>
        <pt x="-149" y="28" on="1"/>
        <pt x="-116" y="22" on="0"/>
        <pt x="-52" y="22" on="1"/>
        <pt x="110" y="22" on="0"/>
        <pt x="226" y="85" on="1"/>
        <pt x="52" y="131" on="0"/>
      </contour>
    </TTGlyph>
    <TTGlyph name="Lslash" xMin="-280" yMin="-26" xMax="1819" yMax="1401">
      <contour>
        <pt x="286" y="67" on="1"/>
        <pt x="128" y="-2" on="0"/>
        <pt x="-60" y="-2" on="1"/>
        <pt x="-220" y="-2" on="0"/>
        <pt x="-267" y="50" on="1"/>
        <pt x="-280" y="65" on="0"/>
        <pt x="-280" y="103" on="0"/>
        <pt x="-248" y="141" on="0"/>
        <pt x="-218" y="154" on="1"/>
        <pt x="-158" y="182" on="0"/>
        <pt x="73" y="182" on="0"/>
        <pt x="271" y="112" on="1"/>
        <pt x="413" y="207" on="0"/>
        <pt x="604" y="466" on="1"/>
        <pt x="293" y="389" on="1"/>
        <pt x="301" y="401" on="0"/>
        <pt x="313" y="416" on="0"/>
        <pt x="316" y="427" on="1"/>
        <pt x="634" y="507" on="1"/>
        <pt x="734" y="648" on="0"/>
        <pt x="781" y="718" on="0"/>
        <pt x="788" y="731" on="0"/>
        <pt x="793" y="738" on="1"/>
        <pt x="784" y="738" on="1"/>
        <pt x="567" y="738" on="0"/>
        <pt x="430" y="823" on="1"/>
        <pt x="294" y="907" on="0"/>
        <pt x="294" y="1042" on="1"/>
        <pt x="294" y="1173" on="0"/>
        <pt x="414" y="1283" on="1"/>
        <pt x="537" y="1396" on="0"/>
        <pt x="687" y="1396" on="1"/>
        <pt x="709" y="1385" on="1"/>
        <pt x="709" y="1376" on="0"/>
        <pt x="701" y="1373" on="0"/>
        <pt x="600" y="1365" on="0"/>
        <pt x="484" y="1305" on="0"/>
        <pt x="446" y="1262" on="1"/>
        <pt x="369" y="1175" on="0"/>
        <pt x="369" y="988" on="0"/>
        <pt x="428" y="875" on="0"/>
        <pt x="483" y="838" on="1"/>
        <pt x="591" y="767" on="0"/>
        <pt x="788" y="767" on="1"/>
        <pt x="813" y="767" on="1"/>
        <pt x="1155" y="1262" on="0"/>
        <pt x="1450" y="1366" on="1"/>
        <pt x="1549" y="1401" on="0"/>
        <pt x="1690" y="1401" on="0"/>
        <pt x="1751" y="1384" on="0"/>
        <pt x="1773" y="1368" on="1"/>
        <pt x="1819" y="1335" on="0"/>
        <pt x="1819" y="1223" on="0"/>
        <pt x="1748" y="1108" on="0"/>
        <pt x="1624" y="999" on="0"/>
        <pt x="1456" y="900" on="0"/>
        <pt x="1359" y="860" on="1"/>
        <pt x="1152" y="774" on="0"/>
        <pt x="944" y="749" on="1"/>
        <pt x="850" y="606" on="0"/>
        <pt x="810" y="552" on="1"/>
        <pt x="1140" y="635" on="1"/>
        <pt x="1135" y="624" on="0"/>
        <pt x="1121" y="608" on="0"/>
        <pt x="1119" y="594" on="1"/>
        <pt x="779" y="510" on="1"/>
        <pt x="550" y="202" on="0"/>
        <pt x="332" y="89" on="1"/>
        <pt x="514" y="24" on="0"/>
        <pt x="767" y="24" on="1"/>
        <pt x="991" y="24" on="0"/>
        <pt x="1094" y="127" on="1"/>
        <pt x="1109" y="142" on="0"/>
        <pt x="1113" y="133" on="1"/>
        <pt x="1120" y="117" on="0"/>
        <pt x="1098" y="95" on="1"/>
        <pt x="961" y="-25" on="0"/>
        <pt x="593" y="-25" on="0"/>
      </contour>
      <contour>
        <pt x="963" y="779" on="1"/>
        <pt x="1267" y="821" on="0"/>
        <pt x="1510" y="972" on="1"/>
        <pt x="1659" y="1066" on="0"/>
        <pt x="1722" y="1178" on="1"/>
        <pt x="1752" y="1232" on="0"/>
        <pt x="1752" y="1304" on="0"/>
        <pt x="1736" y="1337" on="0"/>
        <pt x="1722" y="1350" on="1"/>
        <pt x="1690" y="1378" on="0"/>
        <pt x="1566" y="1378" on="0"/>
        <pt x="1407" y="1312" on="0"/>
        <pt x="1329" y="1248" on="1"/>
        <pt x="1173" y="1121" on="0"/>
        <pt x="1026" y="880" on="1"/>
        <pt x="1009" y="854" on="0"/>
        <pt x="979" y="803" on="0"/>
      </contour>
      <contour>
        <pt x="-48" y="131" on="1"/>
        <pt x="-252" y="131" on="0"/>
        <pt x="-252" y="81" on="1"/>
        <pt x="-252" y="47" on="0"/>
        <pt x="-149" y="28" on="1"/>
        <pt x="-116" y="22" on="0"/>
        <pt x="-52" y="22" on="1"/>
        <pt x="110" y="22" on="0"/>
        <pt x="226" y="85" on="1"/>
        <pt x="52" y="131" on="0"/>
      </contour>
    </TTGlyph>
    <TTGlyph name="M" xMin="-307" yMin="-2" xMax="2238" yMax="1487">
      <contour>
        <pt x="1140" y="67" on="1"/>
        <pt x="1140" y="25" on="0"/>
        <pt x="1198" y="25" on="1"/>
        <pt x="1285" y="25" on="0"/>
        <pt x="1405" y="96" on="1"/>
        <pt x="1444" y="119" on="0"/>
        <pt x="1474" y="148" on="1"/>
        <pt x="1479" y="145" on="0"/>
        <pt x="1479" y="135" on="1"/>
        <pt x="1479" y="117" on="0"/>
        <pt x="1474" y="112" on="1"/>
        <pt x="1378" y="33" on="0"/>
        <pt x="1242" y="6" on="1"/>
        <pt x="1206" y="-2" on="0"/>
        <pt x="1119" y="-2" on="0"/>
        <pt x="1060" y="52" on="0"/>
        <pt x="1060" y="108" on="0"/>
        <pt x="1071" y="152" on="0"/>
        <pt x="1086" y="185" on="1"/>
        <pt x="1154" y="334" on="0"/>
        <pt x="1334" y="564" on="1"/>
        <pt x="1491" y="756" on="1"/>
        <pt x="1656" y="943" on="1"/>
        <pt x="1818" y="1118" on="1"/>
        <pt x="1971" y="1274" on="1"/>
        <pt x="2104" y="1407" on="1"/>
        <pt x="2074" y="1386" on="0"/>
        <pt x="2040" y="1359" on="1"/>
        <pt x="1965" y="1296" on="1"/>
        <pt x="1746" y="1097" on="1"/>
        <pt x="1387" y="757" on="1"/>
        <pt x="1107" y="491" on="0"/>
        <pt x="769" y="96" on="1"/>
        <pt x="692" y="7" on="0"/>
        <pt x="667" y="7" on="1"/>
        <pt x="660" y="7" on="0"/>
        <pt x="645" y="26" on="0"/>
        <pt x="645" y="105" on="0"/>
        <pt x="698" y="266" on="0"/>
        <pt x="797" y="464" on="0"/>
        <pt x="938" y="693" on="0"/>
        <pt x="1026" y="817" on="1"/>
        <pt x="1211" y="1076" on="0"/>
        <pt x="1441" y="1335" on="1"/>
        <pt x="1362" y="1259" on="1"/>
        <pt x="1236" y="1130" on="1"/>
        <pt x="1058" y="941" on="1"/>
        <pt x="825" y="687" on="1"/>
        <pt x="393" y="213" on="0"/>
        <pt x="93" y="59" on="1"/>
        <pt x="-25" y="-1" on="0"/>
        <pt x="-213" y="-1" on="0"/>
        <pt x="-307" y="70" on="0"/>
        <pt x="-307" y="127" on="1"/>
        <pt x="-307" y="169" on="0"/>
        <pt x="-284" y="188" on="1"/>
        <pt x="-249" y="218" on="0"/>
        <pt x="-224" y="218" on="1"/>
        <pt x="-163" y="218" on="0"/>
        <pt x="-163" y="172" on="1"/>
        <pt x="-163" y="152" on="0"/>
        <pt x="-197" y="122" on="0"/>
        <pt x="-252" y="122" on="0"/>
        <pt x="-268" y="133" on="1"/>
        <pt x="-269" y="121" on="1"/>
        <pt x="-269" y="77" on="0"/>
        <pt x="-194" y="26" on="0"/>
        <pt x="-71" y="26" on="0"/>
        <pt x="46" y="63" on="0"/>
        <pt x="190" y="148" on="0"/>
        <pt x="367" y="286" on="0"/>
        <pt x="583" y="486" on="0"/>
        <pt x="714" y="620" on="1"/>
        <pt x="1003" y="926" on="1"/>
        <pt x="1260" y="1207" on="0"/>
        <pt x="1441" y="1368" on="1"/>
        <pt x="1572" y="1484" on="0"/>
        <pt x="1595" y="1484" on="1"/>
        <pt x="1622" y="1484" on="0"/>
        <pt x="1622" y="1474" on="1"/>
        <pt x="1622" y="1468" on="0"/>
        <pt x="1610" y="1457" on="1"/>
        <pt x="1582" y="1433" on="1"/>
        <pt x="1535" y="1391" on="0"/>
        <pt x="1485" y="1321" on="1"/>
        <pt x="1377" y="1164" on="1"/>
        <pt x="1114" y="758" on="1"/>
        <pt x="748" y="163" on="0"/>
        <pt x="701" y="65" on="1"/>
        <pt x="868" y="256" on="1"/>
        <pt x="1013" y="418" on="1"/>
        <pt x="1151" y="566" on="1"/>
        <pt x="1295" y="712" on="1"/>
        <pt x="1458" y="872" on="1"/>
        <pt x="1655" y="1060" on="1"/>
        <pt x="2110" y="1487" on="0"/>
        <pt x="2228" y="1487" on="1"/>
        <pt x="2238" y="1487" on="0"/>
        <pt x="2238" y="1479" on="1"/>
        <pt x="2238" y="1471" on="0"/>
        <pt x="2186" y="1436" on="0"/>
        <pt x="2090" y="1352" on="0"/>
        <pt x="1942" y="1190" on="0"/>
        <pt x="1864" y="1094" on="1"/>
        <pt x="1706" y="891" on="1"/>
        <pt x="1546" y="674" on="1"/>
        <pt x="1186" y="168" on="0"/>
        <pt x="1166" y="132" on="1"/>
        <pt x="1140" y="85" on="0"/>
      </contour>
    </TTGlyph>
    <TTGlyph name="N" xMin="-253" yMin="-20" xMax="2584" yMax="1496">
      <contour>
        <pt x="687" y="-19" on="0"/>
        <pt x="687" y="3" on="0"/>
        <pt x="693" y="8" on="1"/>
        <pt x="741" y="45" on="0"/>
        <pt x="780" y="150" on="1"/>
        <pt x="795" y="193" on="0"/>
        <pt x="813" y="250" on="1"/>
        <pt x="855" y="388" on="1"/>
        <pt x="974" y="776" on="0"/>
        <pt x="1228" y="1209" on="1"/>
        <pt x="960" y="878" on="1"/>
        <pt x="768" y="655" on="1"/>
        <pt x="649" y="522" on="1"/>
        <pt x="287" y="126" on="0"/>
        <pt x="84" y="32" on="1"/>
        <pt x="10" y="-2" on="0"/>
        <pt x="-103" y="-2" on="0"/>
        <pt x="-179" y="19" on="0"/>
        <pt x="-204" y="38" on="1"/>
        <pt x="-253" y="75" on="0"/>
        <pt x="-253" y="133" on="1"/>
        <pt x="-253" y="173" on="0"/>
        <pt x="-230" y="190" on="1"/>
        <pt x="-196" y="217" on="0"/>
        <pt x="-170" y="217" on="1"/>
        <pt x="-109" y="217" on="0"/>
        <pt x="-109" y="171" on="1"/>
        <pt x="-109" y="151" on="0"/>
        <pt x="-143" y="121" on="0"/>
        <pt x="-196" y="121" on="0"/>
        <pt x="-213" y="131" on="1"/>
        <pt x="-213" y="125" on="1"/>
        <pt x="-213" y="81" on="0"/>
        <pt x="-136" y="25" on="0"/>
        <pt x="-8" y="25" on="0"/>
        <pt x="122" y="81" on="0"/>
        <pt x="209" y="146" on="1"/>
        <pt x="396" y="284" on="0"/>
        <pt x="658" y="578" on="1"/>
        <pt x="935" y="896" on="1"/>
        <pt x="1276" y="1304" on="0"/>
        <pt x="1319" y="1368" on="1"/>
        <pt x="1337" y="1390" on="0"/>
        <pt x="1353" y="1390" on="0"/>
        <pt x="1353" y="1376" on="0"/>
        <pt x="1349" y="1368" on="1"/>
        <pt x="1335" y="1342" on="1"/>
        <pt x="1298" y="1281" on="0"/>
        <pt x="1259" y="1142" on="0"/>
        <pt x="1238" y="1061" on="0"/>
        <pt x="1224" y="1014" on="1"/>
        <pt x="1192" y="908" on="1"/>
        <pt x="1121" y="684" on="0"/>
        <pt x="1020" y="491" on="1"/>
        <pt x="1020" y="491" on="0"/>
        <pt x="846" y="178" on="1"/>
        <pt x="1149" y="538" on="1"/>
        <pt x="1282" y="690" on="1"/>
        <pt x="1420" y="842" on="1"/>
        <pt x="1555" y="986" on="1"/>
        <pt x="1937" y="1382" on="0"/>
        <pt x="2197" y="1466" on="1"/>
        <pt x="2285" y="1495" on="0"/>
        <pt x="2476" y="1496" on="0"/>
        <pt x="2583" y="1403" on="0"/>
        <pt x="2584" y="1318" on="1"/>
        <pt x="2586" y="1223" on="0"/>
        <pt x="2488" y="1106" on="1"/>
        <pt x="2386" y="986" on="0"/>
        <pt x="2232" y="912" on="1"/>
        <pt x="2196" y="895" on="0"/>
        <pt x="2165" y="895" on="0"/>
        <pt x="2165" y="910" on="0"/>
        <pt x="2242" y="941" on="0"/>
        <pt x="2363" y="1023" on="0"/>
        <pt x="2412" y="1074" on="1"/>
        <pt x="2521" y="1191" on="0"/>
        <pt x="2521" y="1301" on="1"/>
        <pt x="2521" y="1380" on="0"/>
        <pt x="2436" y="1467" on="0"/>
        <pt x="2275" y="1467" on="0"/>
        <pt x="2087" y="1397" on="0"/>
        <pt x="1976" y="1320" on="1"/>
        <pt x="1757" y="1169" on="0"/>
        <pt x="1447" y="830" on="1"/>
        <pt x="1214" y="569" on="1"/>
        <pt x="1020" y="341" on="1"/>
        <pt x="757" y="28" on="1"/>
        <pt x="718" y="-19" on="0"/>
      </contour>
      <contour>
        <pt x="512" y="1150" on="1"/>
        <pt x="494" y="1129" on="0"/>
        <pt x="454" y="1129" on="0"/>
        <pt x="424" y="1154" on="0"/>
        <pt x="424" y="1191" on="0"/>
        <pt x="449" y="1219" on="0"/>
        <pt x="491" y="1219" on="0"/>
        <pt x="526" y="1200" on="0"/>
        <pt x="540" y="1182" on="1"/>
        <pt x="570" y="1143" on="0"/>
        <pt x="570" y="1024" on="0"/>
        <pt x="516" y="925" on="0"/>
        <pt x="472" y="890" on="1"/>
        <pt x="378" y="815" on="0"/>
        <pt x="255" y="815" on="1"/>
        <pt x="130" y="815" on="0"/>
        <pt x="49" y="884" on="1"/>
        <pt x="-41" y="959" on="0"/>
        <pt x="-41" y="1091" on="1"/>
        <pt x="-41" y="1233" on="0"/>
        <pt x="84" y="1328" on="1"/>
        <pt x="210" y="1424" on="0"/>
        <pt x="409" y="1424" on="1"/>
        <pt x="528" y="1424" on="0"/>
        <pt x="651" y="1387" on="0"/>
        <pt x="741" y="1350" on="0"/>
        <pt x="786" y="1328" on="1"/>
        <pt x="888" y="1281" on="1"/>
        <pt x="966" y="1249" on="0"/>
        <pt x="1015" y="1249" on="1"/>
        <pt x="1110" y="1249" on="0"/>
        <pt x="1184" y="1315" on="1"/>
        <pt x="1189" y="1319" on="0"/>
        <pt x="1202" y="1319" on="0"/>
        <pt x="1202" y="1312" on="1"/>
        <pt x="1202" y="1304" on="0"/>
        <pt x="1188" y="1288" on="1"/>
        <pt x="1129" y="1229" on="0"/>
        <pt x="1010" y="1204" on="1"/>
        <pt x="978" y="1198" on="0"/>
        <pt x="924" y="1198" on="0"/>
        <pt x="850" y="1210" on="0"/>
        <pt x="812" y="1220" on="1"/>
        <pt x="735" y="1242" on="0"/>
        <pt x="610" y="1314" on="0"/>
        <pt x="521" y="1355" on="0"/>
        <pt x="486" y="1366" on="1"/>
        <pt x="428" y="1385" on="0"/>
        <pt x="284" y="1385" on="0"/>
        <pt x="151" y="1340" on="0"/>
        <pt x="100" y="1300" on="1"/>
        <pt x="-9" y="1212" on="0"/>
        <pt x="-9" y="1085" on="1"/>
        <pt x="-9" y="978" on="0"/>
        <pt x="62" y="909" on="1"/>
        <pt x="134" y="839" on="0"/>
        <pt x="251" y="839" on="1"/>
        <pt x="362" y="839" on="0"/>
        <pt x="446" y="904" on="1"/>
        <pt x="539" y="974" on="0"/>
        <pt x="539" y="1081" on="1"/>
        <pt x="539" y="1121" on="0"/>
      </contour>
    </TTGlyph>
    <TTGlyph name="Nacute" xMin="-253" yMin="-20" xMax="2584" yMax="1768">
      <contour>
        <pt x="1724" y="1459" on="0"/>
        <pt x="1699" y="1459" on="0"/>
        <pt x="1699" y="1471" on="1"/>
        <pt x="1699" y="1476" on="0"/>
        <pt x="1712" y="1485" on="0"/>
        <pt x="1732" y="1498" on="1"/>
        <pt x="1826" y="1557" on="0"/>
        <pt x="1860" y="1636" on="1"/>
        <pt x="1870" y="1657" on="0"/>
        <pt x="1878" y="1697" on="1"/>
        <pt x="1887" y="1768" on="0"/>
        <pt x="1975" y="1768" on="0"/>
        <pt x="1975" y="1713" on="1"/>
        <pt x="1975" y="1668" on="0"/>
        <pt x="1911" y="1598" on="1"/>
        <pt x="1852" y="1534" on="0"/>
      </contour>
      <contour>
        <pt x="687" y="-19" on="0"/>
        <pt x="687" y="3" on="0"/>
        <pt x="693" y="8" on="1"/>
        <pt x="741" y="45" on="0"/>
        <pt x="780" y="150" on="1"/>
        <pt x="795" y="193" on="0"/>
        <pt x="813" y="250" on="1"/>
        <pt x="855" y="388" on="1"/>
        <pt x="974" y="776" on="0"/>
        <pt x="1228" y="1209" on="1"/>
        <pt x="960" y="878" on="1"/>
        <pt x="768" y="655" on="1"/>
        <pt x="649" y="522" on="1"/>
        <pt x="287" y="126" on="0"/>
        <pt x="84" y="32" on="1"/>
        <pt x="10" y="-2" on="0"/>
        <pt x="-103" y="-2" on="0"/>
        <pt x="-179" y="19" on="0"/>
        <pt x="-204" y="38" on="1"/>
        <pt x="-253" y="75" on="0"/>
        <pt x="-253" y="133" on="1"/>
        <pt x="-253" y="173" on="0"/>
        <pt x="-230" y="190" on="1"/>
        <pt x="-196" y="217" on="0"/>
        <pt x="-170" y="217" on="1"/>
        <pt x="-109" y="217" on="0"/>
        <pt x="-109" y="171" on="1"/>
        <pt x="-109" y="151" on="0"/>
        <pt x="-143" y="121" on="0"/>
        <pt x="-196" y="121" on="0"/>
        <pt x="-213" y="131" on="1"/>
        <pt x="-213" y="125" on="1"/>
        <pt x="-213" y="81" on="0"/>
        <pt x="-136" y="25" on="0"/>
        <pt x="-8" y="25" on="0"/>
        <pt x="122" y="81" on="0"/>
        <pt x="209" y="146" on="1"/>
        <pt x="396" y="284" on="0"/>
        <pt x="658" y="578" on="1"/>
        <pt x="935" y="896" on="1"/>
        <pt x="1276" y="1304" on="0"/>
        <pt x="1319" y="1368" on="1"/>
        <pt x="1337" y="1390" on="0"/>
        <pt x="1353" y="1390" on="0"/>
        <pt x="1353" y="1376" on="0"/>
        <pt x="1349" y="1368" on="1"/>
        <pt x="1335" y="1342" on="1"/>
        <pt x="1298" y="1281" on="0"/>
        <pt x="1259" y="1142" on="0"/>
        <pt x="1238" y="1061" on="0"/>
        <pt x="1224" y="1014" on="1"/>
        <pt x="1192" y="908" on="1"/>
        <pt x="1121" y="684" on="0"/>
        <pt x="1020" y="491" on="1"/>
        <pt x="846" y="178" on="1"/>
        <pt x="1149" y="538" on="1"/>
        <pt x="1282" y="690" on="1"/>
        <pt x="1420" y="842" on="1"/>
        <pt x="1555" y="986" on="1"/>
        <pt x="1937" y="1382" on="0"/>
        <pt x="2197" y="1466" on="1"/>
        <pt x="2285" y="1495" on="0"/>
        <pt x="2476" y="1496" on="0"/>
        <pt x="2583" y="1403" on="0"/>
        <pt x="2584" y="1318" on="1"/>
        <pt x="2586" y="1223" on="0"/>
        <pt x="2488" y="1106" on="1"/>
        <pt x="2386" y="986" on="0"/>
        <pt x="2232" y="912" on="1"/>
        <pt x="2196" y="895" on="0"/>
        <pt x="2165" y="895" on="0"/>
        <pt x="2165" y="910" on="0"/>
        <pt x="2242" y="941" on="0"/>
        <pt x="2363" y="1023" on="0"/>
        <pt x="2412" y="1074" on="1"/>
        <pt x="2521" y="1191" on="0"/>
        <pt x="2521" y="1301" on="1"/>
        <pt x="2521" y="1380" on="0"/>
        <pt x="2436" y="1467" on="0"/>
        <pt x="2275" y="1467" on="0"/>
        <pt x="2087" y="1397" on="0"/>
        <pt x="1976" y="1320" on="1"/>
        <pt x="1757" y="1169" on="0"/>
        <pt x="1447" y="830" on="1"/>
        <pt x="1214" y="569" on="1"/>
        <pt x="1020" y="341" on="1"/>
        <pt x="757" y="28" on="1"/>
        <pt x="718" y="-19" on="0"/>
      </contour>
      <contour>
        <pt x="512" y="1150" on="1"/>
        <pt x="494" y="1129" on="0"/>
        <pt x="454" y="1129" on="0"/>
        <pt x="424" y="1154" on="0"/>
        <pt x="424" y="1191" on="0"/>
        <pt x="449" y="1219" on="0"/>
        <pt x="491" y="1219" on="0"/>
        <pt x="526" y="1200" on="0"/>
        <pt x="540" y="1182" on="1"/>
        <pt x="570" y="1143" on="0"/>
        <pt x="570" y="1024" on="0"/>
        <pt x="516" y="925" on="0"/>
        <pt x="472" y="890" on="1"/>
        <pt x="378" y="815" on="0"/>
        <pt x="255" y="815" on="1"/>
        <pt x="130" y="815" on="0"/>
        <pt x="49" y="884" on="1"/>
        <pt x="-41" y="959" on="0"/>
        <pt x="-41" y="1091" on="1"/>
        <pt x="-41" y="1233" on="0"/>
        <pt x="84" y="1328" on="1"/>
        <pt x="210" y="1424" on="0"/>
        <pt x="409" y="1424" on="1"/>
        <pt x="528" y="1424" on="0"/>
        <pt x="651" y="1387" on="0"/>
        <pt x="741" y="1350" on="0"/>
        <pt x="786" y="1328" on="1"/>
        <pt x="888" y="1281" on="1"/>
        <pt x="966" y="1249" on="0"/>
        <pt x="1015" y="1249" on="1"/>
        <pt x="1110" y="1249" on="0"/>
        <pt x="1184" y="1315" on="1"/>
        <pt x="1189" y="1319" on="0"/>
        <pt x="1202" y="1319" on="0"/>
        <pt x="1202" y="1312" on="1"/>
        <pt x="1202" y="1304" on="0"/>
        <pt x="1188" y="1288" on="1"/>
        <pt x="1129" y="1229" on="0"/>
        <pt x="1010" y="1204" on="1"/>
        <pt x="978" y="1198" on="0"/>
        <pt x="924" y="1198" on="0"/>
        <pt x="850" y="1210" on="0"/>
        <pt x="812" y="1220" on="1"/>
        <pt x="735" y="1242" on="0"/>
        <pt x="610" y="1314" on="0"/>
        <pt x="521" y="1355" on="0"/>
        <pt x="486" y="1366" on="1"/>
        <pt x="428" y="1385" on="0"/>
        <pt x="284" y="1385" on="0"/>
        <pt x="151" y="1340" on="0"/>
        <pt x="100" y="1300" on="1"/>
        <pt x="-9" y="1212" on="0"/>
        <pt x="-9" y="1085" on="1"/>
        <pt x="-9" y="978" on="0"/>
        <pt x="62" y="909" on="1"/>
        <pt x="134" y="839" on="0"/>
        <pt x="251" y="839" on="1"/>
        <pt x="362" y="839" on="0"/>
        <pt x="446" y="904" on="1"/>
        <pt x="539" y="974" on="0"/>
        <pt x="539" y="1081" on="1"/>
        <pt x="539" y="1121" on="0"/>
      </contour>
    </TTGlyph>
    <TTGlyph name="Ntilde" xMin="-253" yMin="-20" xMax="2584" yMax="1669">
      <contour>
        <pt x="1534" y="1492" on="1"/>
        <pt x="1524" y="1492" on="0"/>
        <pt x="1524" y="1506" on="1"/>
        <pt x="1524" y="1545" on="0"/>
        <pt x="1564" y="1587" on="1"/>
        <pt x="1634" y="1660" on="0"/>
        <pt x="1687" y="1660" on="1"/>
        <pt x="1731" y="1660" on="0"/>
        <pt x="1778" y="1627" on="1"/>
        <pt x="1853" y="1575" on="0"/>
        <pt x="1895" y="1575" on="1"/>
        <pt x="1956" y="1575" on="0"/>
        <pt x="1987" y="1651" on="1"/>
        <pt x="1997" y="1669" on="0"/>
        <pt x="2004" y="1669" on="1"/>
        <pt x="2018" y="1669" on="0"/>
        <pt x="2018" y="1655" on="1"/>
        <pt x="2018" y="1620" on="0"/>
        <pt x="1978" y="1576" on="1"/>
        <pt x="1909" y="1500" on="0"/>
        <pt x="1853" y="1500" on="1"/>
        <pt x="1810" y="1500" on="0"/>
        <pt x="1706" y="1570" on="0"/>
        <pt x="1667" y="1586" on="0"/>
        <pt x="1647" y="1586" on="1"/>
        <pt x="1583" y="1586" on="0"/>
        <pt x="1553" y="1508" on="1"/>
        <pt x="1544" y="1492" on="0"/>
      </contour>
      <contour>
        <pt x="687" y="-19" on="0"/>
        <pt x="687" y="3" on="0"/>
        <pt x="693" y="8" on="1"/>
        <pt x="741" y="45" on="0"/>
        <pt x="780" y="150" on="1"/>
        <pt x="795" y="193" on="0"/>
        <pt x="813" y="250" on="1"/>
        <pt x="855" y="388" on="1"/>
        <pt x="974" y="776" on="0"/>
        <pt x="1228" y="1209" on="1"/>
        <pt x="960" y="878" on="1"/>
        <pt x="768" y="655" on="1"/>
        <pt x="649" y="522" on="1"/>
        <pt x="287" y="126" on="0"/>
        <pt x="84" y="32" on="1"/>
        <pt x="10" y="-2" on="0"/>
        <pt x="-103" y="-2" on="0"/>
        <pt x="-179" y="19" on="0"/>
        <pt x="-204" y="38" on="1"/>
        <pt x="-253" y="75" on="0"/>
        <pt x="-253" y="133" on="1"/>
        <pt x="-253" y="173" on="0"/>
        <pt x="-230" y="190" on="1"/>
        <pt x="-196" y="217" on="0"/>
        <pt x="-170" y="217" on="1"/>
        <pt x="-109" y="217" on="0"/>
        <pt x="-109" y="171" on="1"/>
        <pt x="-109" y="151" on="0"/>
        <pt x="-143" y="121" on="0"/>
        <pt x="-196" y="121" on="0"/>
        <pt x="-213" y="131" on="1"/>
        <pt x="-213" y="125" on="1"/>
        <pt x="-213" y="81" on="0"/>
        <pt x="-136" y="25" on="0"/>
        <pt x="-8" y="25" on="0"/>
        <pt x="122" y="81" on="0"/>
        <pt x="209" y="146" on="1"/>
        <pt x="396" y="284" on="0"/>
        <pt x="658" y="578" on="1"/>
        <pt x="935" y="896" on="1"/>
        <pt x="1276" y="1304" on="0"/>
        <pt x="1319" y="1368" on="1"/>
        <pt x="1337" y="1390" on="0"/>
        <pt x="1353" y="1390" on="0"/>
        <pt x="1353" y="1376" on="0"/>
        <pt x="1349" y="1368" on="1"/>
        <pt x="1335" y="1342" on="1"/>
        <pt x="1298" y="1281" on="0"/>
        <pt x="1259" y="1142" on="0"/>
        <pt x="1238" y="1061" on="0"/>
        <pt x="1224" y="1014" on="1"/>
        <pt x="1192" y="908" on="1"/>
        <pt x="1121" y="684" on="0"/>
        <pt x="1020" y="491" on="1"/>
        <pt x="846" y="178" on="1"/>
        <pt x="1149" y="538" on="1"/>
        <pt x="1282" y="690" on="1"/>
        <pt x="1420" y="842" on="1"/>
        <pt x="1555" y="986" on="1"/>
        <pt x="1937" y="1382" on="0"/>
        <pt x="2197" y="1466" on="1"/>
        <pt x="2285" y="1495" on="0"/>
        <pt x="2476" y="1496" on="0"/>
        <pt x="2583" y="1403" on="0"/>
        <pt x="2584" y="1318" on="1"/>
        <pt x="2586" y="1223" on="0"/>
        <pt x="2488" y="1106" on="1"/>
        <pt x="2386" y="986" on="0"/>
        <pt x="2232" y="912" on="1"/>
        <pt x="2196" y="895" on="0"/>
        <pt x="2165" y="895" on="0"/>
        <pt x="2165" y="910" on="0"/>
        <pt x="2242" y="941" on="0"/>
        <pt x="2363" y="1023" on="0"/>
        <pt x="2412" y="1074" on="1"/>
        <pt x="2521" y="1191" on="0"/>
        <pt x="2521" y="1301" on="1"/>
        <pt x="2521" y="1380" on="0"/>
        <pt x="2436" y="1467" on="0"/>
        <pt x="2275" y="1467" on="0"/>
        <pt x="2087" y="1397" on="0"/>
        <pt x="1976" y="1320" on="1"/>
        <pt x="1757" y="1169" on="0"/>
        <pt x="1447" y="830" on="1"/>
        <pt x="1214" y="569" on="1"/>
        <pt x="1020" y="341" on="1"/>
        <pt x="757" y="28" on="1"/>
        <pt x="718" y="-19" on="0"/>
      </contour>
      <contour>
        <pt x="512" y="1150" on="1"/>
        <pt x="494" y="1129" on="0"/>
        <pt x="454" y="1129" on="0"/>
        <pt x="424" y="1154" on="0"/>
        <pt x="424" y="1191" on="0"/>
        <pt x="449" y="1219" on="0"/>
        <pt x="491" y="1219" on="0"/>
        <pt x="526" y="1200" on="0"/>
        <pt x="540" y="1182" on="1"/>
        <pt x="570" y="1143" on="0"/>
        <pt x="570" y="1024" on="0"/>
        <pt x="516" y="925" on="0"/>
        <pt x="472" y="890" on="1"/>
        <pt x="378" y="815" on="0"/>
        <pt x="255" y="815" on="1"/>
        <pt x="130" y="815" on="0"/>
        <pt x="49" y="884" on="1"/>
        <pt x="-41" y="959" on="0"/>
        <pt x="-41" y="1091" on="1"/>
        <pt x="-41" y="1233" on="0"/>
        <pt x="84" y="1328" on="1"/>
        <pt x="210" y="1424" on="0"/>
        <pt x="409" y="1424" on="1"/>
        <pt x="528" y="1424" on="0"/>
        <pt x="651" y="1387" on="0"/>
        <pt x="741" y="1350" on="0"/>
        <pt x="786" y="1328" on="1"/>
        <pt x="888" y="1281" on="1"/>
        <pt x="966" y="1249" on="0"/>
        <pt x="1015" y="1249" on="1"/>
        <pt x="1110" y="1249" on="0"/>
        <pt x="1184" y="1315" on="1"/>
        <pt x="1189" y="1319" on="0"/>
        <pt x="1202" y="1319" on="0"/>
        <pt x="1202" y="1312" on="1"/>
        <pt x="1202" y="1304" on="0"/>
        <pt x="1188" y="1288" on="1"/>
        <pt x="1129" y="1229" on="0"/>
        <pt x="1010" y="1204" on="1"/>
        <pt x="978" y="1198" on="0"/>
        <pt x="924" y="1198" on="0"/>
        <pt x="850" y="1210" on="0"/>
        <pt x="812" y="1220" on="1"/>
        <pt x="735" y="1242" on="0"/>
        <pt x="610" y="1314" on="0"/>
        <pt x="521" y="1355" on="0"/>
        <pt x="486" y="1366" on="1"/>
        <pt x="428" y="1385" on="0"/>
        <pt x="284" y="1385" on="0"/>
        <pt x="151" y="1340" on="0"/>
        <pt x="100" y="1300" on="1"/>
        <pt x="-9" y="1212" on="0"/>
        <pt x="-9" y="1085" on="1"/>
        <pt x="-9" y="978" on="0"/>
        <pt x="62" y="909" on="1"/>
        <pt x="134" y="839" on="0"/>
        <pt x="251" y="839" on="1"/>
        <pt x="362" y="839" on="0"/>
        <pt x="446" y="904" on="1"/>
        <pt x="539" y="974" on="0"/>
        <pt x="539" y="1081" on="1"/>
        <pt x="539" y="1121" on="0"/>
      </contour>
    </TTGlyph>
    <TTGlyph name="O" xMin="41" yMin="-2" xMax="1504" yMax="1401">
      <contour>
        <pt x="1228" y="925" on="1"/>
        <pt x="1228" y="1093" on="0"/>
        <pt x="1058" y="1093" on="1"/>
        <pt x="931" y="1093" on="0"/>
        <pt x="793" y="994" on="1"/>
        <pt x="576" y="839" on="0"/>
        <pt x="498" y="576" on="1"/>
        <pt x="472" y="489" on="0"/>
        <pt x="472" y="376" on="0"/>
        <pt x="476" y="330" on="0"/>
        <pt x="482" y="306" on="1"/>
        <pt x="495" y="248" on="0"/>
        <pt x="520" y="212" on="0"/>
        <pt x="525" y="201" on="0"/>
        <pt x="518" y="197" on="1"/>
        <pt x="503" y="191" on="0"/>
        <pt x="476" y="248" on="1"/>
        <pt x="442" y="322" on="0"/>
        <pt x="442" y="503" on="0"/>
        <pt x="492" y="683" on="0"/>
        <pt x="580" y="841" on="0"/>
        <pt x="700" y="973" on="0"/>
        <pt x="770" y="1020" on="1"/>
        <pt x="917" y="1121" on="0"/>
        <pt x="1068" y="1121" on="1"/>
        <pt x="1155" y="1121" on="0"/>
        <pt x="1212" y="1068" on="1"/>
        <pt x="1277" y="1009" on="0"/>
        <pt x="1277" y="804" on="0"/>
        <pt x="1199" y="597" on="0"/>
        <pt x="1063" y="397" on="0"/>
        <pt x="879" y="216" on="0"/>
        <pt x="773" y="148" on="1"/>
        <pt x="542" y="-2" on="0"/>
        <pt x="323" y="-2" on="1"/>
        <pt x="130" y="-2" on="0"/>
        <pt x="64" y="167" on="1"/>
        <pt x="41" y="224" on="0"/>
        <pt x="41" y="394" on="0"/>
        <pt x="98" y="588" on="0"/>
        <pt x="201" y="778" on="0"/>
        <pt x="344" y="958" on="0"/>
        <pt x="516" y="1118" on="0"/>
        <pt x="711" y="1251" on="0"/>
        <pt x="814" y="1299" on="1"/>
        <pt x="1033" y="1401" on="0"/>
        <pt x="1233" y="1401" on="1"/>
        <pt x="1435" y="1401" on="0"/>
        <pt x="1488" y="1274" on="1"/>
        <pt x="1504" y="1236" on="0"/>
        <pt x="1504" y="1171" on="0"/>
        <pt x="1496" y="1124" on="0"/>
        <pt x="1490" y="1101" on="1"/>
        <pt x="1471" y="1036" on="0"/>
        <pt x="1438" y="1003" on="0"/>
        <pt x="1425" y="1003" on="0"/>
        <pt x="1425" y="1010" on="1"/>
        <pt x="1425" y="1018" on="0"/>
        <pt x="1435" y="1031" on="1"/>
        <pt x="1459" y="1063" on="0"/>
        <pt x="1476" y="1166" on="0"/>
        <pt x="1476" y="1229" on="0"/>
        <pt x="1447" y="1297" on="0"/>
        <pt x="1416" y="1322" on="1"/>
        <pt x="1351" y="1373" on="0"/>
        <pt x="1141" y="1373" on="0"/>
        <pt x="959" y="1309" on="0"/>
        <pt x="773" y="1197" on="0"/>
        <pt x="589" y="1045" on="0"/>
        <pt x="422" y="870" on="0"/>
        <pt x="279" y="680" on="0"/>
        <pt x="226" y="586" on="1"/>
        <pt x="114" y="385" on="0"/>
        <pt x="114" y="237" on="1"/>
        <pt x="114" y="87" on="0"/>
        <pt x="238" y="39" on="1"/>
        <pt x="279" y="23" on="0"/>
        <pt x="425" y="23" on="0"/>
        <pt x="627" y="103" on="0"/>
        <pt x="826" y="239" on="0"/>
        <pt x="1007" y="419" on="0"/>
        <pt x="1076" y="519" on="1"/>
        <pt x="1228" y="737" on="0"/>
      </contour>
    </TTGlyph>
</ttFont>
